<svg class="icon" width="200" height="200" viewBox="0 0 1024 1024" xmlns="http://www.w3.org/2000/svg">
    <path fill="#333" d="M512 1024C229.216 1024 0 794.752 0 512 0 229.216 229.216 0 512 0s512 229.216 512 512c0 282.752-229.216 512-512 512zm209.856-720.896a48.448 48.448 0 00-68.416 0l-141.92 141.92L375.264 308.8a46.912 46.912 0 00-66.464 0 46.944 46.944 0 000 66.432l136.256 136.256-141.92 141.952a48.352 48.352 0 1068.416 68.384l141.92-141.92 137.024 137.024a47.04 47.04 0 0066.464-66.464L579.936 513.44l141.92-141.92a48.448 48.448 0 000-68.416z"/>
</svg>
