<svg class="icon" width="200" height="200" viewBox="0 0 1024 1024" xmlns="http://www.w3.org/2000/svg">
    <path fill="#333" d="M512 2.276a509.724 509.724 0 110 1019.521A509.724 509.724 0 01512 2.276zm76.459 312.97c37.865 0 68.594-26.287 68.594-65.244s-30.802-65.245-68.594-65.245c-37.866 0-68.449 26.287-68.449 65.245s30.583 65.244 68.449 65.244zm13.325 409.746c0-7.792 2.695-28.035 1.165-39.54l-59.856 68.886c-12.379 13.034-27.889 22.063-35.17 19.66a14.782 14.782 0 01-9.394-16.748l99.76-315.155c8.156-39.977-14.272-76.459-61.822-81.12-50.172 0-124.009 50.9-168.937 115.49 0 7.719-1.457 26.943.072 38.448l59.784-68.959c12.379-12.888 26.797-21.99 34.078-19.515a14.564 14.564 0 018.884 18.35l-98.886 313.626c-11.433 36.7 10.194 72.673 62.623 80.828 77.187 0 122.77-49.662 167.772-114.251z"/>
</svg>
