<svg class="icon" width="200" height="200" viewBox="0 0 1024 1024" xmlns="http://www.w3.org/2000/svg">
    <path fill="#333" d="M480 64h64v256h-64V64zm0 640h64v256h-64V704zm480-224v64H704v-64h256zm-640 0v64H64v-64h256zM172.608 217.856l45.248-45.248L398.848 353.6 353.6 398.848 172.608 217.856zm452.48 452.48l45.312-45.184 180.992 180.992-45.248 45.248L625.152 670.4zm181.12-497.728l45.184 45.248L670.4 398.848 625.152 353.6l180.992-180.992zM353.6 625.088l45.248 45.312-180.992 180.992-45.248-45.248L353.6 625.152z"/>
</svg>
