<svg class="icon" width="200" height="200" viewBox="0 0 1024 1024" xmlns="http://www.w3.org/2000/svg">
    <path fill="#333" d="M512 64a384 384 0 01384 384c0 256-384 512-384 512S128 704 128 448A384 384 0 01512 64zm0 64c-176.448 0-320 143.552-320 320 0 162.944 206.016 349.248 319.936 433.664C625.92 797.056 832 610.56 832 448c0-176.448-143.552-320-320-320zm0 128a192 192 0 110 384 192 192 0 010-384zm0 64c-70.592 0-128 57.408-128 128s57.408 128 128 128 128-57.408 128-128-57.408-128-128-128z"/>
</svg>
