<svg class="icon" width="200" height="200" viewBox="0 0 1024 1024" xmlns="http://www.w3.org/2000/svg">
    <path fill="#333" d="M64 416.96L607.04 960l316.736-135.744-203.584-203.648-90.496 45.248L358.08 394.24l45.376-90.496-203.712-203.648L64 416.96zm75.84-14.72l81.536-190.08 104.192 104.32-24.64 49.216-20.608 41.216 32.576 32.64 271.552 271.552 32.64 32.64 41.216-20.672 49.28-24.576 104.192 104.128-190.08 81.472L139.84 402.304zM512 320v-64a256 256 0 01256 256h-64a192 192 0 00-192-192zm0-192V64a448 448 0 01448 448h-64a384 384 0 00-384-384z"/>
</svg>
