<svg class="icon" width="200" height="200" viewBox="0 0 1024 1024" xmlns="http://www.w3.org/2000/svg">
    <path fill="#333" d="M512 64a447.744 447.744 0 01448 447.808A448 448 0 11512 64zm83.648 451.2c24.064-15.808 91.84-47.744 91.84-131.712 0-84.16-71.104-142.08-130.752-154.24-59.904-12.288-124.8-4.16-170.432 45.696-34.688 37.376-46.272 68.416-49.088 123.52a45.696 45.696 0 0045.248 53.184c22.4 0 41.152-16 45.12-37.12h1.024v-8.576c.896-38.656 8.96-77.44 64.64-88.576 32.768-6.592 63.488 3.648 81.536 21.12 20.864 20.224 20.928 65.536-12.224 88.32l-52.032 34.816c-30.272 19.456-40.512 40.896-40.512 72.32v73.088h.128a34.304 34.304 0 00-.128 2.56c0 22.976 20.928 41.536 46.72 41.536 25.792 0 45.44-18.56 45.44-41.472l-.064-1.28V568.32c0-19.264 9.152-37.312 33.536-53.184zM512 799.872c33.92 0 61.376-27.264 61.376-60.8a61.056 61.056 0 00-61.44-60.8 61.056 61.056 0 00-61.248 60.8c0 33.536 27.456 60.8 61.312 60.8z"/>
</svg>
