<svg class="icon" width="200" height="200" viewBox="0 0 1024 1024" xmlns="http://www.w3.org/2000/svg">
    <path fill="#333" d="M565.504 896l213.984-.128c135.744-4.064 244.544-115.936 244.544-253.312 0-139.968-112.896-253.44-252.192-253.44-2.592 0-5.184.032-7.744.128.064-2.592.128-5.184.128-7.808 0-139.968-112.896-253.44-252.192-253.44S259.84 241.472 259.84 381.44c0 2.624.032 5.216.128 7.808-2.592-.064-5.152-.128-7.744-.128C112.96 389.12.032 502.592.032 642.56c0 137.408 108.8 249.28 244.544 253.312V896h229.248V724.32h-90.208c-25.504 0-34.816-17.28-20.832-38.592l140.064-213.44c8.992-13.696 24.352-14.144 33.632 0l140.064 213.44c13.952 21.248 4.672 38.592-20.832 38.592h-90.208V896z"/>
</svg>
