<svg class="icon" width="200" height="200" viewBox="0 0 1024 1024" xmlns="http://www.w3.org/2000/svg">
    <path fill="#333" d="M512 1024C229.728 1024 0 794.336 0 512 0 229.696 229.728 0 512 0c282.304 0 512 229.696 512 512 0 282.336-229.696 512-512 512zm-51.072-200.8c15.072 15.36 34.112 23.072 56.96 23.072 21.76 0 39.712-7.296 53.76-22.016 14.112-14.592 21.216-32.832 21.216-54.56a74.24 74.24 0 00-22.528-54.624 73.76 73.76 0 00-54.112-22.496c-19.2 0-38.336 8.896-57.248 26.784-13.888 13.216-20.864 29.792-20.864 49.792 0 20.672 7.616 38.72 22.816 54.048zM578.4 213.504c-16.672-12.416-37.248-18.688-61.696-18.688-3.616 0-11.392.928-23.392 2.784-21.376 1.568-37.952 6.784-49.76 15.68-11.776 8.928-18.528 22.592-20.352 41.056a123.2 123.2 0 00-2.624 16.64c0 9.184 1.024 23.296 3.296 42.368 4.416 30.432 13.376 79.168 26.688 146.176l38.08 171.552c24.448-.352 41.44.64 50.72 0 9.344-28.288 17.568-65.504 24.704-108.8L592.8 373.28c7.104-50.112 10.624-85.76 10.624-107.008 0-22.688-8.32-40.288-25.024-52.768z"/>
</svg>
