<svg class="icon" width="200" height="200" viewBox="0 0 1024 1024" xmlns="http://www.w3.org/2000/svg"><path fill="#333" d="M512 896a384 384 0 100-768 384 384 0 000 768zm0 64a448 448 0 110-896 448 448 0 010 896zm0-256a192 192 0 100-384 192 192 0 000 384zm0 64a256 256 0 110-512 256 256 0 010 512zm111.232-412.544L783.552 195.2l45.248 45.248-160.256 160.32a193.28 193.28 0 00-45.312-45.312zm45.312 267.776L828.8 783.552 783.552 828.8l-160.32-160.256a193.28 193.28 0 0045.312-45.312zm-267.776 45.312L240.448 828.8 195.2 783.552l160.256-160.32a193.28 193.28 0 0045.312 45.312zm-45.312-267.776L195.2 240.448l45.248-45.248 160.32 160.256a193.28 193.28 0 00-45.312 45.312z"/></svg>