<svg class="icon" width="200" height="200" viewBox="0 0 1024 1024" xmlns="http://www.w3.org/2000/svg"><path fill="#333" d="M349.952 716.992L478.72 588.16a106.688 106.688 0 01-26.176-19.072 106.688 106.688 0 01-19.072-26.176L304.704 671.744c.768 3.072 1.472 6.144 2.048 9.216l2.048 31.936 31.872 1.984c3.136.64 6.208 1.28 9.28 2.112zm57.344 33.152a128 128 0 11-216.32 114.432l-1.92-32-32-1.92a128 128 0 11114.432-216.32L416.64 469.248c-2.432-101.44 58.112-239.104 149.056-330.048 107.328-107.328 231.296-85.504 316.8 0 85.44 85.44 107.328 209.408 0 316.8-91.008 90.88-228.672 151.424-330.112 149.056L407.296 750.08zm90.496-226.304c49.536 49.536 233.344-7.04 339.392-113.088 78.208-78.208 63.232-163.072 0-226.304-63.168-63.232-148.032-78.208-226.24 0C504.896 290.496 448.32 474.368 497.792 523.84zM244.864 708.928a64 64 0 10-59.84 59.84l56.32-3.52 3.52-56.32zm8.064 127.68a64 64 0 1059.84-59.84l-56.32 3.52-3.52 56.32z"/></svg>