<svg class="icon" width="200" height="200" viewBox="0 0 1024 1024" xmlns="http://www.w3.org/2000/svg"><path fill="#333" d="M800 832a32 32 0 110 64H352a32 32 0 110-64h448zM624.64 129.408L805.632 310.4a32 32 0 010 45.248l-90.496 90.496-353.92 353.92a32 32 0 01-19.712 9.216l-199.04 18.048a32 32 0 01-34.816-28.928v-5.76l18.112-199.168a32 32 0 019.216-19.712l444.352-444.352a32 32 0 0145.248 0zM185.728 640.832l-10.88 119.296 119.296-10.88-108.416-108.416zM488.832 310.4L217.28 581.952l135.808 135.744 271.488-271.552-135.68-135.68zm113.152-113.152l-67.84 67.904 135.68 135.744 67.904-67.84-135.744-135.808z"/></svg>