<svg class="icon" width="200" height="200" viewBox="0 0 1024 1024" xmlns="http://www.w3.org/2000/svg"><path fill="#333" d="M512 768a256 256 0 100-512 256 256 0 000 512zm0 64a320 320 0 110-640 320 320 0 010 640z"/><path fill="#333" d="M608 256V128H416v128h-64V64h320v192h-64zM416 768v128h192V768h64v192H352V768h64zM512 384a32 32 0 110-64 32 32 0 010 64zm0 320a32 32 0 110-64 32 32 0 010 64zM384 512a32 32 0 11-64 0 32 32 0 0164 0zm320 0a32 32 0 11-64 0 32 32 0 0164 0zm-282.496-90.496a32 32 0 11-45.248-45.248 32 32 0 0145.248 45.248zm226.24 226.24a32 32 0 11-45.248-45.248 32 32 0 0145.248 45.248zm-226.24-45.248a32 32 0 11-45.248 45.248 32 32 0 0145.248-45.248zM647.68 376.32a32 32 0 11-45.248 45.248 32 32 0 0145.248-45.248z"/></svg>