<svg viewBox="0 0 1024 1024" xmlns="http://www.w3.org/2000/svg"><path fill="currentColor" d="M512 896a384 384 0 1 0 0-768 384 384 0 0 0 0 768zm0 64a448 448 0 1 1 0-896 448 448 0 0 1 0 896z"/><path fill="currentColor" d="M512 96a32 32 0 0 1 32 32v192a32 32 0 0 1-64 0V128a32 32 0 0 1 32-32zm0 576a32 32 0 0 1 32 32v192a32 32 0 1 1-64 0V704a32 32 0 0 1 32-32zM96 512a32 32 0 0 1 32-32h192a32 32 0 0 1 0 64H128a32 32 0 0 1-32-32zm576 0a32 32 0 0 1 32-32h192a32 32 0 1 1 0 64H704a32 32 0 0 1-32-32z"/></svg>