<svg class="icon" width="200" height="200" viewBox="0 0 1024 1024" xmlns="http://www.w3.org/2000/svg"><path fill="currentColor" d="M512 896a384 384 0 100-768 384 384 0 000 768zm0 64a448 448 0 110-896 448 448 0 010 896z"/><path fill="currentColor" d="M512 96a32 32 0 0132 32v192a32 32 0 01-64 0V128a32 32 0 0132-32zm0 576a32 32 0 0132 32v192a32 32 0 11-64 0V704a32 32 0 0132-32zM96 512a32 32 0 0132-32h192a32 32 0 010 64H128a32 32 0 01-32-32zm576 0a32 32 0 0132-32h192a32 32 0 110 64H704a32 32 0 01-32-32z"/></svg>
