<svg xmlns="http://www.w3.org/2000/svg" viewBox="0 0 1024 1024"><path fill="currentColor" d="M512 832a320 320 0 1 0 0-640 320 320 0 0 0 0 640m0 64a384 384 0 1 1 0-768 384 384 0 0 1 0 768"/><path fill="currentColor" d="m292.3 824.6 55.4 32-48 83.1a32 32 0 1 1-55.4-32zm439.4 0-55.4 32 48 83.1a32 32 0 1 0 55.4-32zM512 512h160a32 32 0 1 1 0 64H480a32 32 0 0 1-32-32V320a32 32 0 0 1 64 0zM90.5 312.3A160 160 0 0 1 312.3 90.5l-46.8 46.8a96 96 0 0 0-128 128zm835.3 0A160 160 0 0 0 704 90.5l46.8 46.8a96 96 0 0 1 128 128z"/></svg>