<svg xmlns="http://www.w3.org/2000/svg" viewBox="0 0 1024 1024"><path fill="currentColor" d="M599.9 203.8a189 189 0 0 1 64.4-4.7l2.6.1c31.1 1 51.2 4.1 79.5 16.4 37.6 16 74.5 45 111.5 89.3 96.3 115.3 82.7 372.8-34.8 521.7-7.7 9.8-32 41.6-30.7 40a427 427 0 0 1-30.1 35.7c-31.2 32.6-65.3 49.3-110 50-31.4.7-53.6-5.2-84.4-18.7l-6.5-2.8c-21-9.3-30.6-12-47.3-12-18.1 0-28.6 3-51.1 12.7l-6.5 2.8c-28.4 12.3-48.3 18-76.1 19.2-74.2 2.8-117-38-180.7-132.1C103 679.3 67 472 144.7 335c46.2-82 129.9-133.7 220.6-135 32.8-.6 60.3 6.8 99.7 22.7a426 426 0 0 0 37.3 14.2q24.4-30.3 34.6-50.2 20.4-39.5 40.7-100.8a32 32 0 1 1 60.8 20.2 837 837 0 0 1-38.5 97.7m-51.5 78a1161 1161 0 0 1-52 58.9 32 32 0 1 1-46.7-43.8l12.3-13.3c-28-11.2-61.2-26.6-95.7-26-70.4 1-135.3 41.5-171.6 105.7C121.6 492.6 176 684.2 247.3 789c34.8 51.3 76.3 109 131 107 52.4-2.2 72.3-34.8 135.8-34.8s81.3 34.7 137 33.6c56.4-1.1 75.7-39 126.8-103.9 108-136.8 108-362.7 35.8-449S689 257.6 662 256.6c-41.5-4.3-81.6 12.5-113.6 25.2"/></svg>