<svg xmlns="http://www.w3.org/2000/svg" viewBox="0 0 1024 1024"><path fill="currentColor" d="M778.8 788.2a383 383 0 0 0 116-245.6 257 257 0 0 0-241.7-14 763 763 0 0 1 125.7 259.6m-55 44.2a700 700 0 0 0-125.1-269.6 256 256 0 0 0-56.1 332 383 383 0 0 0 181.1-62.4m-254 61.3a320 320 0 0 1 88-380.1 716 716 0 0 0-48.1-48.1 320 320 0 0 1-379.3 88.4 382 382 0 0 0 110.1 229.7 382 382 0 0 0 229.2 110zM129.2 481.1a256 256 0 0 0 331-56.5 700 700 0 0 0-268.7-124.3A383 383 0 0 0 129.3 481m106.5-235.9a763 763 0 0 1 258.7 125.1 257 257 0 0 0-13.4-241 383 383 0 0 0-245.3 116m318.1-115a321 321 0 0 1-8.4 281.3 780 780 0 0 1 66.1 66.2 321 321 0 0 1 282.2-8.2 382 382 0 0 0-110.2-229A382 382 0 0 0 554 130.2zm274.9 698.5a448 448 0 1 1-633.6-633.6 448 448 0 0 1 633.6 633.6"/></svg>