<svg class="icon" width="200" height="200" viewBox="0 0 1024 1024" xmlns="http://www.w3.org/2000/svg"><path fill="currentColor" d="M256 832a128 128 0 100-256 128 128 0 000 256zm0 64a192 192 0 110-384 192 192 0 010 384z"/><path fill="currentColor" d="M288 672h320q32 0 32 32t-32 32H288q-32 0-32-32t32-32z"/><path fill="currentColor" d="M768 832a128 128 0 100-256 128 128 0 000 256zm0 64a192 192 0 110-384 192 192 0 010 384z"/><path fill="currentColor" d="M480 192a32 32 0 010-64h160a32 32 0 0131.04 24.256l96 384a32 32 0 01-62.08 15.488L615.04 192H480zM96 384a32 32 0 010-64h128a32 32 0 0130.336 21.888l64 192a32 32 0 11-60.672 20.224L200.96 384H96z"/><path fill="currentColor" d="M373.376 599.808l-42.752-47.616 320-288 42.752 47.616z"/></svg>
