<svg xmlns="http://www.w3.org/2000/svg" viewBox="0 0 1024 1024"><path fill="currentColor" d="M256 832a128 128 0 1 0 0-256 128 128 0 0 0 0 256m0 64a192 192 0 1 1 0-384 192 192 0 0 1 0 384"/><path fill="currentColor" d="M288 672h320q32 0 32 32t-32 32H288q-32 0-32-32t32-32"/><path fill="currentColor" d="M768 832a128 128 0 1 0 0-256 128 128 0 0 0 0 256m0 64a192 192 0 1 1 0-384 192 192 0 0 1 0 384"/><path fill="currentColor" d="M480 192a32 32 0 0 1 0-64h160a32 32 0 0 1 31 24.3l96 384a32 32 0 0 1-62 15.4L615 192zM96 384a32 32 0 0 1 0-64h128a32 32 0 0 1 30.3 21.9l64 192a32 32 0 1 1-60.6 20.2L201 384z"/><path fill="currentColor" d="m373.4 599.8-42.8-47.6 320-288 42.8 47.6z"/></svg>