<svg xmlns="http://www.w3.org/2000/svg" viewBox="0 0 1024 1024"><path fill="currentColor" d="M896 448H128v192a64 64 0 0 0 64 64h192v192h256V704h192a64 64 0 0 0 64-64zm-770.8-64q0-71.4 15.6-128 22.1-81 83.2-160h417.3l-15.4 70.3L736 96h211.2q-37.3 64.4-51.2 160a664 664 0 0 0-6.1 128H960v256a128 128 0 0 1-128 128H704v160a32 32 0 0 1-32 32H352a32 32 0 0 1-32-32V768H192A128 128 0 0 1 64 640V384zm64 0h636.6a730 730 0 0 1 6.8-137.2 619 619 0 0 1 18.7-86.8h-96.6L533.6 301.2 561.9 160H256.5a376 376 0 0 0-54 112.8Q189.5 321 189.3 384"/></svg>