<svg xmlns="http://www.w3.org/2000/svg" viewBox="0 0 1024 1024"><path fill="currentColor" d="M174.7 855.7 310 810.6l23.7 11.8A398 398 0 0 0 512 864c211.8 0 384-166.8 384-352S723.8 160 512 160 128 326.8 128 512c0 69.1 25 139.3 70.8 199.2L221 740zm-45.2 82.5A32 32 0 0 1 89.6 896L148 750C94.7 680.4 64 597 64 512 64 299.9 256 96 512 96s448 203.9 448 416-192 416-448 416a461 461 0 0 1-207-48.4z"/><path fill="currentColor" d="M512 563.2a51.2 51.2 0 1 1 0-102.4 51.2 51.2 0 0 1 0 102.4m192 0a51.2 51.2 0 1 1 0-102.4 51.2 51.2 0 0 1 0 102.4m-384 0a51.2 51.2 0 1 1 0-102.4 51.2 51.2 0 0 1 0 102.4"/></svg>