<svg xmlns="http://www.w3.org/2000/svg" viewBox="0 0 1024 1024"><path fill="currentColor" d="M273.536 736H800a64 64 0 0 0 64-64V256a64 64 0 0 0-64-64H224a64 64 0 0 0-64 64v570.88zM296 800 147.968 918.4A32 32 0 0 1 96 893.44V256a128 128 0 0 1 128-128h576a128 128 0 0 1 128 128v416a128 128 0 0 1-128 128z"/><path fill="currentColor" d="M512 499.2a51.2 51.2 0 1 1 0-102.4 51.2 51.2 0 0 1 0 102.4zm192 0a51.2 51.2 0 1 1 0-102.4 51.2 51.2 0 0 1 0 102.4zm-384 0a51.2 51.2 0 1 1 0-102.4 51.2 51.2 0 0 1 0 102.4z"/></svg>