<svg xmlns="http://www.w3.org/2000/svg" viewBox="0 0 1024 1024"><path fill="currentColor" d="M261.056 449.6c13.824-69.696 34.88-128.96 63.36-177.728 23.744-40.832 61.12-88.64 112.256-143.872H320a32 32 0 0 1 0-64h384a32 32 0 1 1 0 64H554.752c14.912 39.168 41.344 86.592 79.552 141.76 47.36 68.48 84.8 106.752 106.304 114.304a224 224 0 1 1-84.992 14.784c-22.656-22.912-47.04-53.76-73.92-92.608-38.848-56.128-67.008-105.792-84.352-149.312-55.296 58.24-94.528 107.52-117.76 147.2-23.168 39.744-41.088 88.768-53.568 147.072a224.064 224.064 0 1 1-64.96-1.6zM288 832a160 160 0 1 0 0-320 160 160 0 0 0 0 320m448-64a160 160 0 1 0 0-320 160 160 0 0 0 0 320"/></svg>