<svg xmlns="http://www.w3.org/2000/svg" viewBox="0 0 1024 1024"><path fill="currentColor" d="m350 717 128.7-128.8a107 107 0 0 1-26.2-19.1 107 107 0 0 1-19-26.2L304.7 671.7q1.2 4.7 2 9.3l2.1 31.9 31.9 2zm57.3 33.2A128 128 0 1 1 191 864.6l-2-32-32-2a128 128 0 1 1 114.5-216.3l145.1-145c-2.4-101.5 58.2-239.2 149.1-330.1C673 31.9 797 53.7 882.5 139.2s107.3 209.4 0 316.8c-91 90.9-228.7 151.4-330.1 149zm90.5-226.3c49.5 49.6 233.3-7 339.4-113 78.2-78.3 63.2-163.1 0-226.4-63.2-63.2-148-78.2-226.3 0-106 106.1-162.6 290-113.1 339.4M244.8 709a64 64 0 1 0-59.8 59.9l56.3-3.6zm8.1 127.7a64 64 0 1 0 59.9-59.8l-56.4 3.5z"/></svg>