<svg width="1024" height="1024" fill="none" xmlns="http://www.w3.org/2000/svg"><path d="M419.296 928.565C228.278 886.24 85.344 715.829 85.344 512.011c0-77.739 20.779-150.614 57.131-213.419l182.741 316.544a213.288 213.288 0 0 0 212.31 108.715L419.339 928.565h-.043Zm92.715 10.112 182.912-316.8a212.351 212.351 0 0 0 30.421-109.866 212.397 212.397 0 0 0-42.666-128h236.458c12.715 40.405 19.542 83.413 19.542 128 0 235.648-191.019 426.666-426.667 426.666ZM621.75 577.931a127.953 127.953 0 0 1-110.843 62.129 127.959 127.959 0 0 1-109.744-64.049l-1.237-2.134a127.993 127.993 0 0 1 2.154-127.439 127.996 127.996 0 0 1 111.139-62.398 127.996 127.996 0 0 1 126.775 128.28 128.003 128.003 0 0 1-17.135 63.691l-1.109 1.92Zm-424.107-354.39A425.56 425.56 0 0 1 512.011 85.344 426.499 426.499 0 0 1 881.59 298.677H512.011a213.378 213.378 0 0 0-196.224 129.494l-118.144-204.63Z" fill="#000"/></svg>