<svg xmlns="http://www.w3.org/2000/svg" xml:space="preserve" viewBox="0 0 1024 1024"><path fill="currentColor" d="M938.7 512c0-44.6-6.9-87.6-19.6-128H682.7a212 212 0 0 1 42.6 128c.1 38.7-10.4 76.7-30.4 109.9L512 938.7c235.7 0 426.7-191 426.7-426.7"/><path fill="currentColor" d="M576.8 401.6a128 128 0 0 0-63.6-17.6 128 128 0 0 0-111.1 62.4 128 128 0 0 0-2.2 127.5l1.3 2.1a128 128 0 0 0 46.3 46.6A128 128 0 0 0 511 640c22.3.2 44.3-5.4 63.7-16.3a128 128 0 0 0 47.2-45.8l1-1.9a128 128 0 0 0 .4-127.5 128 128 0 0 0-46.4-46.9"/><path fill="currentColor" d="M394.5 334A213 213 0 0 1 512 298.7h369.6A427 427 0 0 0 512 85.3a426 426 0 0 0-171.7 36 426 426 0 0 0-142.7 102.2l118.2 204.7a213 213 0 0 1 78.6-94.2m20.4 368a213 213 0 0 1-89.6-86.9L142.5 298.6a426.8 426.8 0 0 0 276.8 630l118.2-204.7a213 213 0 0 1-122.7-22"/></svg>