<svg xmlns="http://www.w3.org/2000/svg" viewBox="0 0 1024 1024"><path fill="currentColor" d="m162 580.7 29.8 59c-20.5 20-31.8 42-31.8 64.3 0 82.3 155.3 160 352 160s352-77.7 352-160c0-22.3-11.4-44.2-31.8-64.3l30.5-58.5C903.9 615.8 928 657.7 928 704c0 129.7-188.5 224-416 224S96 833.7 96 704c0-46.6 24.3-88.6 66-123.3"/><path fill="currentColor" d="m162 388.7 29.8 59c-20.5 20.1-31.8 42-31.8 64.3 0 82.3 155.3 160 352 160s352-77.7 352-160c0-22.3-11.4-44.2-31.8-64.3l30.5-58.5C903.9 423.8 928 465.7 928 512c0 129.7-188.5 224-416 224S96 641.7 96 512c0-46.6 24.3-88.6 66-123.3"/><path fill="currentColor" d="M512 544c-227.5 0-416-94.3-416-224S284.5 96 512 96s416 94.3 416 224-188.5 224-416 224m0-64c196.7 0 352-77.7 352-160S708.7 160 512 160s-352 77.7-352 160 155.3 160 352 160"/></svg>