<svg xmlns="http://www.w3.org/2000/svg" viewBox="0 0 1024 1024"><path fill="currentColor" d="M768 64a192 192 0 1 1-70 370.9L480 725.4V896h96a32 32 0 1 1 0 64H320a32 32 0 1 1 0-64h96V725.4L76.8 273.5A64 64 0 0 1 64 235.1v-10.7a32 32 0 0 1 32-32h71.8l-65.5-83.8a32 32 0 0 1 50.4-39.4L249 192.4h337.7A192 192 0 0 1 768 64M656.9 192.4H800a32 32 0 0 1 32 32v10.7a64 64 0 0 1-12.8 38.4l-80.4 107.2a128 128 0 1 0-82-188.2zm-357.9 64 129.5 165.8a32 32 0 0 1-50.5 39.4L217.8 256.4H144l304 405 304-405z"/></svg>