<svg class="icon" width="200" height="200" viewBox="0 0 1024 1024" xmlns="http://www.w3.org/2000/svg"><path fill="currentColor" d="M512 896a384 384 0 100-768 384 384 0 000 768zm0 64a448 448 0 110-896 448 448 0 010 896z"/><path fill="currentColor" d="M725.888 315.008C676.48 428.672 624 513.28 568.576 568.64c-55.424 55.424-139.968 107.904-253.568 157.312a12.8 12.8 0 01-16.896-16.832c49.536-113.728 102.016-198.272 157.312-253.632 55.36-55.296 139.904-107.776 253.632-157.312a12.8 12.8 0 0116.832 16.832z"/></svg>
