<svg xmlns="http://www.w3.org/2000/svg" viewBox="0 0 1024 1024"><path fill="currentColor" d="M640 384v64H448a128 128 0 0 0-128 128v128a128 128 0 0 0 128 128h320a128 128 0 0 0 128-128V576a128 128 0 0 0-64-110.8v-70.3a192 192 0 0 1 128 181v128a192 192 0 0 1-192 192H448a192 192 0 0 1-192-192V576a192 192 0 0 1 192-192z"/><path fill="currentColor" d="M384 640v-64h192a128 128 0 0 0 128-128V320a128 128 0 0 0-128-128H256a128 128 0 0 0-128 128v128a128 128 0 0 0 64 110.8v70.3A192 192 0 0 1 64 448V320a192 192 0 0 1 192-192h320a192 192 0 0 1 192 192v128a192 192 0 0 1-192 192z"/></svg>