<svg xmlns="http://www.w3.org/2000/svg" viewBox="0 0 1024 1024"><path fill="currentColor" d="M896 324.096c0-42.368-2.496-55.296-9.536-68.48a52.35 52.35 0 0 0-22.144-22.08c-13.12-7.04-26.048-9.536-68.416-9.536H228.096c-42.368 0-55.296 2.496-68.48 9.536a52.35 52.35 0 0 0-22.08 22.144c-7.04 13.12-9.536 26.048-9.536 68.416v375.808c0 42.368 2.496 55.296 9.536 68.48a52.35 52.35 0 0 0 22.144 22.08c13.12 7.04 26.048 9.536 68.416 9.536h567.808c42.368 0 55.296-2.496 68.48-9.536a52.35 52.35 0 0 0 22.08-22.144c7.04-13.12 9.536-26.048 9.536-68.416zm64 0v375.808c0 57.088-5.952 77.76-17.088 98.56-11.136 20.928-27.52 37.312-48.384 48.448S852.928 864 795.968 864H228.032c-57.088 0-77.76-5.952-98.56-17.088a116.3 116.3 0 0 1-48.448-48.384c-11.136-20.864-17.088-41.6-17.088-98.56V324.032c0-57.088 5.952-77.76 17.088-98.56 11.136-20.928 27.52-37.312 48.384-48.448s41.6-17.088 98.56-17.088H795.84c57.088 0 77.76 5.952 98.56 17.088 20.928 11.136 37.312 27.52 48.448 48.384s17.088 41.6 17.088 98.56z"/><path fill="currentColor" d="M64 320h896v64H64zm0 128h896v64H64zm128 192h256v64H192z"/></svg>