<svg xmlns="http://www.w3.org/2000/svg" viewBox="0 0 1024 1024"><path fill="currentColor" d="M896 324.1c0-42.4-2.5-55.3-9.5-68.5a52 52 0 0 0-22.2-22c-13.1-7.1-26-9.6-68.4-9.6H228.1c-42.4 0-55.3 2.5-68.5 9.5a52 52 0 0 0-22 22.2c-7.1 13.1-9.6 26-9.6 68.4v375.8c0 42.4 2.5 55.3 9.5 68.5a52 52 0 0 0 22.2 22c13.1 7.1 26 9.6 68.4 9.6h567.8c42.4 0 55.3-2.5 68.5-9.5a52 52 0 0 0 22-22.2c7.1-13.1 9.6-26 9.6-68.4zm64 0v375.8c0 57-6 77.8-17 98.6q-17 31.5-48.5 48.4C863 864 853 864 796 864H228c-57 0-77.7-6-98.5-17A116 116 0 0 1 81 798.4C70 777.7 64 757 64 700V324c0-57 5.9-77.7 17-98.5q17-31.6 48.4-48.5c31.4-16.9 41.6-17 98.6-17h567.8c57.1 0 77.8 5.9 98.6 17q31.6 17 48.4 48.4C959.6 256.8 960 267 960 324z"/><path fill="currentColor" d="M64 320h896v64H64zm0 128h896v64H64zm128 192h256v64H192z"/></svg>