<svg xmlns="http://www.w3.org/2000/svg" viewBox="0 0 1024 1024"><path fill="currentColor" d="M529.408 149.376a29.12 29.12 0 0 1 41.728 0 30.592 30.592 0 0 1 0 42.688L259.264 511.936l311.872 319.936a30.592 30.592 0 0 1-.512 43.264 29.12 29.12 0 0 1-41.216-.512L197.76 534.272a32 32 0 0 1 0-44.672l331.648-340.224zm256 0a29.12 29.12 0 0 1 41.728 0 30.592 30.592 0 0 1 0 42.688L515.264 511.936l311.872 319.936a30.592 30.592 0 0 1-.512 43.264 29.12 29.12 0 0 1-41.216-.512L453.76 534.272a32 32 0 0 1 0-44.672l331.648-340.224z"/></svg>