<svg xmlns="http://www.w3.org/2000/svg" viewBox="0 0 1024 1024"><path fill="currentColor" d="m665.216 768 110.848 192h-73.856L591.36 768H433.024L322.176 960H248.32l110.848-192H160a32 32 0 0 1-32-32V192H64a32 32 0 0 1 0-64h896a32 32 0 1 1 0 64h-64v544a32 32 0 0 1-32 32zM832 192H192v512h640zM352 448a32 32 0 0 1 32 32v64a32 32 0 0 1-64 0v-64a32 32 0 0 1 32-32m160-64a32 32 0 0 1 32 32v128a32 32 0 0 1-64 0V416a32 32 0 0 1 32-32m160-64a32 32 0 0 1 32 32v192a32 32 0 1 1-64 0V352a32 32 0 0 1 32-32"/></svg>