<svg xmlns="http://www.w3.org/2000/svg" viewBox="0 0 1024 1024"><path fill="currentColor" d="M128 416v-48a144 144 0 0 1 168.6-141.9 224.1 224.1 0 0 1 430.8 0A144 144 0 0 1 896 368v48a384 384 0 0 1-352 382.7V896h-64v-97.3A384 384 0 0 1 128 416m287.1-32h193.8a144 144 0 0 1 58.9-132.8 160 160 0 0 0-311.6 0A144 144 0 0 1 415.1 384zm-72.9 0a72 72 0 1 0-140.5 0zm339.6 0h140.4a72 72 0 1 0-140.5 0zM512 736a320 320 0 0 0 318.4-288H193.6A320 320 0 0 0 512 736M384 896h256a32 32 0 1 1 0 64H384a32 32 0 1 1 0-64"/></svg>