<svg xmlns="http://www.w3.org/2000/svg" viewBox="0 0 1024 1024"><path fill="currentColor" d="m739.328 291.328-35.2-6.592-12.8-33.408a192.064 192.064 0 0 0-365.952 23.232l-9.92 40.896-41.472 7.04a176.32 176.32 0 0 0-146.24 173.568c0 97.28 78.72 175.936 175.808 175.936h400a192 192 0 0 0 35.776-380.672M959.552 480a256 256 0 0 1-256 256h-400A239.81 239.81 0 0 1 63.744 496.192a240.32 240.32 0 0 1 199.488-236.8 256.128 256.128 0 0 1 487.872-30.976A256.064 256.064 0 0 1 959.552 480M288 800h64v64h-64zm192 0h64v64h-64zm-96 96h64v64h-64zm192 0h64v64h-64zm96-96h64v64h-64z"/></svg>