<svg xmlns="http://www.w3.org/2000/svg" viewBox="0 0 1024 1024"><path fill="currentColor" d="M176 64h672a112 112 0 0 1 112 112v672a112 112 0 0 1-112 112H176A112 112 0 0 1 64 848V176A112 112 0 0 1 176 64m150.5 173.6a331 331 0 0 0-97.4 457 330.7 330.7 0 0 0 457 96.6c9.2-6 17.6-11.8 25.1-18.6a18 18 0 0 0 4.3-24.3l-15.1-23.5a47.6 47.6 0 0 0-65.6-14.3 234.6 234.6 0 0 1-324.2-68.9 236 236 0 0 1 68.9-325.1 234 234 0 0 1 276.3 15.1c1.7.9 2.6 2.6 3.4 4.3 5.9 8.4 3.3 19.3-5.1 25.2L456.8 489.6a47.6 47.6 0 0 0-14.3 65.5l16 24.4a18 18 0 0 0 25.2 5l308.2-200a19.6 19.6 0 0 0 6.8-23.4v-1c-5-9.1-10-17.5-15.1-26.8a332 332 0 0 0-457-95.7zM787 504.7 724.7 545c-8.3 6-11 16.8-5 25.2l40.3 62.1c5.9 8.5 16.8 11 25.2 5.1l31-20.1a55.4 55.4 0 0 0 16-76.5l-20.2-31a19.5 19.5 0 0 0-25.1-5.2z"/></svg>