<svg xmlns="http://www.w3.org/2000/svg" viewBox="0 0 40 40" style="enable-background:new 0 0 40 40" xml:space="preserve"><path d="M32.8 28.7c0 1.3-.7 1.6-.7 1.6s-11.8 6.8-12.6 7.2c-.4.2-.8.2-1.2 0 0 0-12.3-7.2-12.7-7.5-.2-.2-.4-.5-.5-.8V14.4c0-.7.8-1.1.8-1.1l12.3-7.1c.5-.2 1-.2 1.5 0 0 0 10.9 6.3 12.1 7 .7.3 1.1 1 1 1.8v13.7zm-4.9-14.2c-2.5-1.4-8.5-4.9-8.5-4.9-.3-.2-.8-.2-1.2 0l-9.7 5.6s-.7.4-.7.9v11.6c0 .2.2.5.3.7.3.2 10 5.8 10 5.8.3.2.7.2 1 0 .6-.3 9.8-5.7 9.8-5.7s.5-.2.5-1.2v-2.9L18.6 31v-2.5c0-.7.3-1.2.8-1.8l9.7-5.8c.2-.3.4-.8.4-1.2v-2.6l-10.9 6.6V21c0-.6.2-1.2.7-1.5l8.6-5zm8-9.2c0-.2-.2-.3-.3-.3h-2.3V2.6c0-.2-.2-.2-.4-.2l-1.2.2c-.2 0-.2.1-.2.2V5h-2.2c-.2 0-.2.2-.3.2v1.5h2.7v2.5c0 .2.2.2.4.2l1.2-.2c.2 0 .2-.1.2-.2V6.8H36l-.1-1.5z" style="fill-rule:evenodd;clip-rule:evenodd;fill:currentColor"/></svg>