<svg xmlns="http://www.w3.org/2000/svg" viewBox="0 0 1024 1024"><path fill="currentColor" d="M839.7 734.7c0 33.3-17.9 41-17.9 41S519.7 949.8 499.2 960a33 33 0 0 1-30.7 0S153.6 775.7 143.4 768a56 56 0 0 1-12.8-20.5V368.6c0-17.9 20.5-28.2 20.5-28.2L466 158.6q19.2-7.6 38.4 0s279 161.3 309.8 179.2a43 43 0 0 1 25.6 46.1c-.1-5-.1 317.5-.1 350.8M714.2 371.2c-64-35.8-217.6-125.4-217.6-125.4-7.7-5.1-20.5-5.1-30.7 0L217.6 389.1s-17.9 10.2-17.9 23v297c0 5.1 5.1 12.8 7.7 17.9 7.7 5.1 256 148.5 256 148.5a23 23 0 0 0 25.6 0c15.4-7.7 250.9-145.9 250.9-145.9s12.8-5.1 12.8-30.7v-74.2l-276.5 169v-64c0-17.9 7.7-30.7 20.5-46.1L745 535a63 63 0 0 0 10.2-30.7v-66.6l-279 169v-69.1c0-15.4 5.1-30.7 17.9-38.4zM919 135.7c0-5.1-5.1-7.7-7.7-7.7h-58.9V66.6c0-5.1-5.1-5.1-10.2-5.1l-30.7 5.1c-5.1 0-5.1 2.6-5.1 5.1V128h-56.3c-5.1 0-5.1 5.1-7.7 5.1v38.4h69.1v64c0 5.1 5.1 5.1 10.2 5.1l30.7-5.1c5.1 0 5.1-2.6 5.1-5.1v-56.3h64z"/></svg>