<svg xmlns="http://www.w3.org/2000/svg" viewBox="0 0 1024 1024"><path fill="currentColor" d="M300 188.8a379.4 379.4 0 0 1 522.3 109.4c5.7 10.6 11.5 20.2 17.3 30.8v1a22.4 22.4 0 0 1-7.7 26.8L479.6 585.3c-9.6 6.7-22.1 3.8-28.8-5.8l-18.3-27.8a54.3 54.3 0 0 1 16.3-74.9l225.6-146.9c9.6-6.7 12.5-19.2 5.8-28.8-1-1.9-2-3.8-3.8-4.8A268 268 0 0 0 360.5 279a269.4 269.4 0 0 0-78.7 371.6 268 268 0 0 0 370.6 78.7 54.3 54.3 0 0 1 74.8 16.3l17.3 26.9a21 21 0 0 1-4.8 27.8 223 223 0 0 1-28.8 21.1A378 378 0 0 1 188.7 711 378 378 0 0 1 300 188.8m526.1 305.3a22.3 22.3 0 0 1 28.8 5.7l23 35.6a63 63 0 0 1-18.2 87.3l-35.5 23c-9.6 6.8-22 3.9-28.8-5.7l-46-71c-6.8-9.6-4-22.1 5.7-28.8z"/></svg>