<svg width="1024" height="1024" viewBox="0 0 1024 1024" fill="none" xmlns="http://www.w3.org/2000/svg">
<path d="M512 896C584.661 893.995 644.992 868.992 692.992 820.992C740.992 772.992 765.995 712.661 768 640C765.995 567.339 740.992 507.008 692.992 459.008C644.992 411.008 584.661 386.005 512 384C439.339 386.005 379.008 411.008 331.008 459.008C283.008 507.008 258.005 567.339 256 640C258.005 712.661 283.008 772.992 331.008 820.992C379.008 868.992 439.339 893.995 512 896ZM512 960C421.333 957.995 345.835 926.827 285.504 866.496C225.173 806.165 194.005 730.667 192 640C194.005 549.333 225.173 473.835 285.504 413.504C345.835 353.173 421.333 322.005 512 320C602.667 322.005 678.165 353.173 738.496 413.504C798.827 473.835 829.995 549.333 832 640C829.995 730.667 798.827 806.165 738.496 866.496C678.165 926.827 602.667 957.995 512 960ZM480 480H544V736H608V800H416V736H480V544H416V480H480ZM576 128H448V328C469.333 322.667 490.667 320 512 320C531.328 320 552.661 322.667 576 328V128ZM640 128V348C664.661 356.661 690.667 368 718.016 382.016L757.024 128H640.032H640ZM384 128H267.008L306.016 382.016C333.344 368.021 359.349 356.683 384.032 348V128H384ZM228.992 64H795.008C804.352 64 812.181 67.6693 818.496 75.008C824.811 82.3467 827.307 91.0187 825.984 101.024L767.968 480.032C653.963 416.032 568.629 384.032 511.968 384.032C455.307 384.032 369.973 416.032 255.968 480.032L197.952 101.024C196.608 91.0187 199.104 82.3467 205.44 75.008C211.776 67.6693 219.605 64 228.928 64H228.992Z" fill="#303133"/>
</svg>
