<svg xmlns="http://www.w3.org/2000/svg" viewBox="0 0 1024 1024"><path fill="currentColor" d="M192 256a64 64 0 0 0-64 64v448a64 64 0 0 0 64 64h640a64 64 0 0 0 64-64V320a64 64 0 0 0-64-64zm0-64h640a128 128 0 0 1 128 128v448a128 128 0 0 1-128 128H192A128 128 0 0 1 64 768V320a128 128 0 0 1 128-128"/><path fill="currentColor" d="M544 512h96a32 32 0 0 1 0 64h-96v96a32 32 0 0 1-64 0v-96h-96a32 32 0 0 1 0-64h96v-96a32 32 0 0 1 64 0zM352 128v64h320v-64zm-32-64h384a32 32 0 0 1 32 32v128a32 32 0 0 1-32 32H320a32 32 0 0 1-32-32V96a32 32 0 0 1 32-32"/></svg>