<svg xmlns="http://www.w3.org/2000/svg" viewBox="0 0 1024 1024"><path fill="currentColor" d="M128 352.6v-.6a288 288 0 0 1 491-204.2 192 192 0 0 1 274.3 204.5 64 64 0 0 1 57.2 74.2Q907.1 687.5 736 757v43a96 96 0 0 1-96 96H384a96 96 0 0 1-96-96v-43Q117 687.5 73.5 426.5a64 64 0 0 1 54.5-73.9zm64-.6h64a160 160 0 0 1 320 0h64a224 224 0 0 0-448 0m128 0h192a96 96 0 0 0-192 0m439.4 0H828a128.3 128.3 0 0 0-124-160 127 127 0 0 0-43.5 7.6 292 292 0 0 1 27.8 58.3 64.1 64.1 0 0 1 71.1 94.1M672 768H352v32a32 32 0 0 0 32 32h256a32 32 0 0 0 32-32zm-342.5-64h365c101.5-32.6 165.8-125 193-288h-751c27.2 163 91.5 255.4 193 288"/></svg>