<svg xmlns="http://www.w3.org/2000/svg" viewBox="0 0 1024 1024"><path fill="currentColor" d="M512 960a448 448 0 1 1 0-896 448 448 0 0 1 0 896m0-64a384 384 0 1 0 0-768 384 384 0 0 0 0 768"/><path fill="currentColor" d="M186.8 268.3q24-24.7 47-46a321 321 0 0 0 66 81.2l-32.5 56.4a386 386 0 0 1-80.5-91.6m653.7-5.3a386 386 0 0 1-83.8 97l-32.5-56.4a323 323 0 0 0 68.5-85.8q23.4 21 47.8 45.2M466 445.2l11.1-63a324 324 0 0 0 69.8 0l11.1 63a388 388 0 0 1-92 0m-62.7-12.8a382 382 0 0 1-83.3-35.9l32-55.4a320 320 0 0 0 62.5 27.7zM704 396.6a382 382 0 0 1-83.4 35.8L609.5 369a320 320 0 0 0 62.5-27.7l32 55.4zM183.3 761.4a386 386 0 0 1 84-97.3l32.5 56.3a324 324 0 0 0-67.5 84q-24-20-49-43m657.5.1a1443 1443 0 0 1-49 43.1 321 321 0 0 0-67.6-84.2l32.5-56.3a385 385 0 0 1 84.1 97.4M466 578.8a388 388 0 0 1 92 0l-11 63a324 324 0 0 0-69.8 0zm-62.7 12.8 11.2 63.5a320 320 0 0 0-62.5 27.7L320 627.4a382 382 0 0 1 83.3-35.8zM704 627.4l-32 55.4a318 318 0 0 0-62.5-27.7l11.2-63.5a379 379 0 0 1 83.2 35.8z"/></svg>