<svg xmlns="http://www.w3.org/2000/svg" viewBox="0 0 1024 1024"><path fill="currentColor" d="M256 410.3V96a32 32 0 0 1 64 0v314.3a96 96 0 0 0 64-90.6V96a32 32 0 0 1 64 0v223.7a160 160 0 0 1-128 156.8V928a32 32 0 1 1-64 0V476.5a160 160 0 0 1-128-156.8V96a32 32 0 0 1 64 0v223.7a96 96 0 0 0 64 90.6m416 162.2C581.2 552 512 446.8 512 320c0-141.4 86-256 192-256s192 114.6 192 256c0 126.8-69.2 232.1-160 252.5V928a32 32 0 1 1-64 0zm32-60.5c66 0 128-82.6 128-192s-62-192-128-192-128 82.6-128 192 62 192 128 192"/></svg>