<svg xmlns="http://www.w3.org/2000/svg" viewBox="0 0 1024 1024"><path fill="currentColor" d="M608 224v-64a32 32 0 0 0-64 0v336h26.9a64 64 0 0 0 37.1-11.9zm101.1 160a64 64 0 0 0-37.1 11.9V384h64V224a32 32 0 1 0-64 0v160zm74.9 0a93 93 0 0 1 91.3 110l-60.6 323.7a96 96 0 0 1-94.4 78.3H303.7a96 96 0 0 1-94.4-78.3L148.7 494A93 93 0 0 1 240 384h-16V224a96 96 0 0 1 188.6-25.3 96 96 0 0 1 67.4-1.3V160a96 96 0 0 1 188.6-25.3A96 96 0 0 1 800 224v160zM670.8 512a128 128 0 0 1-100 48H453.2a128 128 0 0 1-99.8-48H352v-1.5a128 128 0 0 1-10-15L315 448H240a29 29 0 0 0-28.5 34.3L241.1 640h541.8l29.6-157.7A29 29 0 0 0 784 448h-74.9L682 495.5a132 132 0 0 1-10 15v1.5zM480 288a32 32 0 0 0-64 0v196.1a64 64 0 0 0 37.1 11.9H480zm-128 96V224a32 32 0 0 0-64 0v160zh-37.1a64 64 0 0 1 37.1 11.9zm-98.9 320 19 101.9a32 32 0 0 0 31.6 26.1h416.6a32 32 0 0 0 31.5-26.1l19-101.9z"/></svg>