<svg xmlns="http://www.w3.org/2000/svg" viewBox="0 0 1024 1024"><path fill="currentColor" d="M256 271c10 6.6 22.5 14.8 29 18.5a220 220 0 0 0 114.7 30.8c30.6 0 49.5-9.5 91.1-41.2l.7-.4c52.9-40.4 82.3-55 132.2-54.7 55.6.4 99.6 20.8 142.8 57.4l1.5 1.3V128H256zm1 76.2c9.4 135 89.9 228.7 255 228.8 157.4 0 238-85 253.2-210a952 952 0 0 1-40.1-35.7c-32.7-27.8-63.4-42-102-42.2-31.5-.3-50.6 9.2-93 41.6l-.6.4c-52.1 39.6-81 54.2-129.8 54.2a283 283 0 0 1-142.8-37zm223 291.6c-229.4-15.4-288-196.3-288-319.1V96a32 32 0 0 1 32-32h576a32 32 0 0 1 32 32v224c0 122.8-58.6 303.7-288 319v257h96a32 32 0 1 1 0 64H384a32 32 0 1 1 0-64h96z"/></svg>