<svg width="1024" height="1024" fill="none" xmlns="http://www.w3.org/2000/svg"><path d="M512 896c72.661-2.005 132.992-27.008 180.992-75.008S765.995 712.661 768 640c-2.005-72.661-27.008-132.992-75.008-180.992S584.661 386.005 512 384c-72.661 2.005-132.992 27.008-180.992 75.008S258.005 567.339 256 640c2.005 72.661 27.008 132.992 75.008 180.992S439.339 893.995 512 896Zm0 64c-90.667-2.005-166.165-33.173-226.496-93.504C225.173 806.165 194.005 730.667 192 640c2.005-90.667 33.173-166.165 93.504-226.496C345.835 353.173 421.333 322.005 512 320c90.667 2.005 166.165 33.173 226.496 93.504C798.827 473.835 829.995 549.333 832 640c-2.005 90.667-33.173 166.165-93.504 226.496C678.165 926.827 602.667 957.995 512 960Zm-32-480h64v256h64v64H416v-64h64V544h-64v-64h64Zm96-352H448v200c21.333-5.333 42.667-8 64-8 19.328 0 40.661 2.667 64 8V128Zm64 0v220c24.661 8.661 50.667 20 78.016 34.016L757.024 128H640Zm-256 0H267.008l39.008 254.016c27.328-13.995 53.333-25.333 78.016-34.016V128H384ZM228.992 64h566.016c9.344 0 17.173 3.67 23.488 11.008 6.315 7.339 8.811 16.01 7.488 26.016l-58.016 379.008c-114.005-64-199.339-96-256-96s-141.995 32-256 96l-58.016-379.008c-1.344-10.005 1.152-18.677 7.488-26.016C211.776 67.669 219.605 64 228.928 64h.064Z" fill="#303133"/></svg>