<svg xmlns="http://www.w3.org/2000/svg" xml:space="preserve" style="enable-background:new 0 0 1024 1024" viewBox="0 0 1024 1024"><path fill="currentColor" d="m772.13 452.84 53.86-351.81c1.32-10.01-1.17-18.68-7.49-26.02S804.35 64 795.01 64H228.99v-.01h-.06c-9.33 0-17.15 3.67-23.49 11.01s-8.83 16.01-7.49 26.02l53.87 351.89C213.54 505.73 193.59 568.09 192 640c2 90.67 33.17 166.17 93.5 226.5S421.33 957.99 512 960c90.67-2 166.17-33.17 226.5-93.5 60.33-60.34 91.49-135.83 93.5-226.5-1.59-71.94-21.56-134.32-59.87-187.16zM640.01 128h117.02l-39.01 254.02c-20.75-10.64-40.74-19.73-59.94-27.28-5.92-3-11.95-5.8-18.08-8.41V128h.01zM576 128v198.76c-13.18-2.58-26.74-4.43-40.67-5.55-8.07-.8-15.85-1.2-23.33-1.2-10.54 0-21.09.66-31.64 1.96a359.844 359.844 0 0 0-32.36 4.79V128h128zm-192 0h.04v218.3c-6.22 2.66-12.34 5.5-18.36 8.56-19.13 7.54-39.02 16.6-59.66 27.16L267.01 128H384zm308.99 692.99c-48 48-108.33 73-180.99 75.01-72.66-2.01-132.99-27.01-180.99-75.01S258.01 712.66 256 640c2.01-72.66 27.01-132.99 75.01-180.99 19.67-19.67 41.41-35.47 65.22-47.41 38.33-15.04 71.15-23.92 98.44-26.65 5.07-.41 10.2-.7 15.39-.88.63-.01 1.28-.03 1.91-.03.66 0 1.35.03 2.02.04 5.11.17 10.15.46 15.13.86 27.4 2.71 60.37 11.65 98.91 26.79 23.71 11.93 45.36 27.69 64.96 47.29 48 48 73 108.33 75.01 180.99-2.01 72.65-27.01 132.98-75.01 180.98z"/><path fill="currentColor" d="M544 480H416v64h64v192h-64v64h192v-64h-64z"/></svg>