<svg xmlns="http://www.w3.org/2000/svg" xml:space="preserve" viewBox="0 0 1024 1024"><path fill="currentColor" d="M772.1 452.8 826 101q2-15-7.5-26C809 64 804.4 64 795 64H229q-14 0-23.6 11c-9.6 11-8.8 16-7.5 26l54 352q-57.6 79-59.9 187 3 136 93.5 226.5C376 957 421.3 958 512 960q136-3 226.5-93.5T832 640q-2.4-108-59.9-187.2M640.1 128h117l-39 254a666 666 0 0 0-60-27.3q-9-4.5-18.1-8.4V128zm-64.1 0v198.8a363 363 0 0 0-64-6.8q-15.7 0-31.6 2a360 360 0 0 0-32.4 4.8V128zm-192 0v218.3a306 306 0 0 0-18.3 8.6Q337 366.2 306 382l-39-254zm309 693q-72 72-181 75-109-3-181-75c-72-72-73-108.3-75-181q3-109 75-181a251 251 0 0 1 65.2-47.4q57.6-22.6 98.5-26.6 7.6-.6 15.4-1h3.9q7.6.3 15.1 1 41.1 4 99 26.7 35.5 18 64.9 47.3 72 72 75 181-3 109-75 181"/><path fill="currentColor" d="M544 480H416v64h64v192h-64v64h192v-64h-64z"/></svg>