<svg xmlns="http://www.w3.org/2000/svg" viewBox="0 0 1024 1024"><path fill="currentColor" d="M640 608h-64V416h64zm0 160v160a32 32 0 0 1-32 32H416a32 32 0 0 1-32-32V768h64v128h128V768zM384 608V416h64v192zm256-352h-64V128H448v128h-64V96a32 32 0 0 1 32-32h192a32 32 0 0 1 32 32z"/><path fill="currentColor" d="m220.8 256-71.2 80 71.1 80H768V256zm-14.4-64H800a32 32 0 0 1 32 32v224a32 32 0 0 1-32 32H206.4a32 32 0 0 1-24-10.8L83 357.2a32 32 0 0 1 0-42.4l99.6-112a32 32 0 0 1 23.9-10.8m678.8 496L814 768H266.8V608H814zm-56.8-144H235a32 32 0 0 0-32 32v224a32 32 0 0 0 32 32h593.6a32 32 0 0 0 24-10.8l99.5-112a32 32 0 0 0 0-42.4l-99.6-112a32 32 0 0 0-24-10.8z"/></svg>