<svg xmlns="http://www.w3.org/2000/svg" xml:space="preserve" style="enable-background:new 0 0 1024 1024" viewBox="0 0 1024 1024"><path fill="currentColor" d="M887.01 264.99c-6-5.99-13.67-8.99-23.01-8.99H704c-1.34-54.68-20.01-100.01-56-136s-81.32-54.66-136-56c-54.68 1.34-100.01 20.01-136 56s-54.66 81.32-56 136H160c-9.35 0-17.02 3-23.01 8.99-5.99 6-8.99 13.67-8.99 23.01v640c0 9.35 2.99 17.02 8.99 23.01S150.66 960 160 960h704c9.35 0 17.02-2.99 23.01-8.99S896 937.34 896 928V288c0-9.35-2.99-17.02-8.99-23.01zM421.5 165.5c24.32-24.34 54.49-36.84 90.5-37.5 35.99.68 66.16 13.18 90.5 37.5s36.84 54.49 37.5 90.5H384c.68-35.99 13.18-66.16 37.5-90.5zM832 896H192V320h128v128h64V320h256v128h64V320h128v576z"/></svg>