<svg width="1024" height="1024" fill="none" xmlns="http://www.w3.org/2000/svg"><path d="M192 320v576h640V320H192Zm-32-64h704c9.344 0 17.013 2.997 23.008 8.992C893.003 270.987 896 278.656 896 288v640c0 9.344-2.997 17.013-8.992 23.008C881.013 957.003 873.344 960 864 960H160c-9.344 0-17.013-2.997-23.008-8.992C130.997 945.013 128 937.344 128 928V288c0-9.344 2.997-17.013 8.992-23.008C142.987 258.997 150.656 256 160 256Zm480 192V256c-.661-36.011-13.163-66.176-37.504-90.496C578.155 141.184 547.989 128.683 512 128c-36.011.661-66.176 13.163-90.496 37.504C397.184 189.845 384.683 220.011 384 256v192h-64V256c1.344-54.677 20.011-100.011 56-136 35.989-35.99 81.323-54.656 136-56 54.677 1.344 100.011 20.01 136 56 35.989 35.989 54.656 81.323 56 136v192h-64Z" fill="#303133"/></svg>