<svg xmlns="http://www.w3.org/2000/svg" viewBox="0 0 1024 1024"><path fill="currentColor" d="m760 805.2-91-91A255 255 0 0 1 512 768a255 255 0 0 1-157-53.8l-91 91A383 383 0 0 0 512 896c94.5 0 181.1-34.2 248-90.8m45.2-45.3A383 383 0 0 0 896 512c0-94.5-34.2-181.1-90.8-248l-91 91C748 398.4 768 453 768 512s-20.1 113.6-53.8 157zM760 218.8A383 383 0 0 0 512 128a383 383 0 0 0-248 90.8l91 91A255 255 0 0 1 512 256c59.1 0 113.6 20.1 157 53.8zM218.8 264A383 383 0 0 0 128 512c0 94.5 34.2 181.1 90.8 248l91-91A255 255 0 0 1 256 512c0-59.1 20.1-113.6 53.8-157zM636 658.6a195 195 0 0 0 22.6-22.6A191 191 0 0 0 704 512a191 191 0 0 0-68-146.6A191 191 0 0 0 512 320a191 191 0 0 0-146.6 68A191 191 0 0 0 320 512a191 191 0 0 0 68 146.6A191 191 0 0 0 512 704c47.3 0 90.6-17 124-45.4M512 960a448 448 0 1 1 0-896 448 448 0 0 1 0 896"/></svg>