<svg xmlns="http://www.w3.org/2000/svg" viewBox="0 0 1024 1024"><path fill="currentColor" d="M876.8 156.8c0-9.6-3.2-16-9.6-22.4s-12.8-9.6-22.4-9.6-16 3.2-22.4 9.6L736 220.8c-64-32-137.6-51.2-224-60.8-160 16-288 73.6-377.6 176S0 496 0 512s48 73.6 134.4 176c22.4 25.6 44.8 48 73.6 67.2l-86.4 89.6c-6.4 6.4-9.6 12.8-9.6 22.4s3.2 16 9.6 22.4 12.8 9.6 22.4 9.6 16-3.2 22.4-9.6l704-710.4c3.2-6.4 6.4-12.8 6.4-22.4m-646.4 528Q115.2 579.2 76.8 512q43.2-72 153.6-172.8C304 272 400 230.4 512 224c64 3.2 124.8 19.2 176 44.8l-54.4 54.4A218 218 0 0 0 512 288c-64 0-115.2 22.4-160 64s-64 96-64 160c0 48 12.8 89.6 35.2 124.8L256 707.2c-9.6-6.4-19.2-16-25.6-22.4m140.8-96Q352 555.2 352 512c0-44.8 16-83.2 48-112s67.2-48 112-48c28.8 0 54.4 6.4 73.6 19.2zM889.6 336c-12.8-16-28.8-28.8-41.6-41.6l-48 48c73.6 67.2 124.8 124.8 150.4 169.6q-43.2 72-153.6 172.8C723.2 752 624 793.6 512 800a478 478 0 0 1-140.8-28.8l-48 48A680 680 0 0 0 512 864c160-16 288-73.6 377.6-176S1024 528 1024 512s-48-73.6-134.4-176"/><path fill="currentColor" d="M512 672c-12.8 0-25.6-3.2-38.4-6.4l-51.2 51.2A215 215 0 0 0 512 736c64 0 115.2-22.4 160-64 41.6-41.6 64-96 64-160 0-32-6.4-64-19.2-89.6l-51.2 51.2c3.2 12.8 6.4 25.6 6.4 38.4 0 44.8-16 83.2-48 112s-67.2 48-112 48"/></svg>