<svg xmlns="http://www.w3.org/2000/svg" viewBox="0 0 16 16"><path fill="currentColor" d="M13.7 2.4c0-.2-.1-.2-.1-.4-.1-.1-.2-.1-.4-.1-.1 0-.2 0-.3.1l-1.4 1.4c-1-.5-2.1-.8-3.5-1-2.5.3-4.5 1.2-5.9 2.8S0 7.7 0 8c0 .3.8 1.2 2.1 2.8.4.4.7.8 1.2 1.1l-1.4 1.4c-.1.1-.1.2-.1.4 0 .1 0 .2.1.3h.3c.1 0 .2-.1.3-.2l11-11.1c.1 0 .2-.1.2-.3zM3.6 10.7c-1.2-1.1-2-2-2.4-2.7.4-.8 1.2-1.7 2.4-2.7S6.2 3.6 8 3.5c1 0 1.9.3 2.8.7l-.9.8c-.5-.3-1.1-.5-1.9-.5-1 0-1.8.3-2.5 1S4.5 7 4.5 8c0 .8.2 1.4.6 2L4 11c-.2-.1-.3-.2-.4-.3zm2.2-1.5c-.2-.4-.3-.8-.3-1.2 0-.7.2-1.3.8-1.8s1-.7 1.7-.7c.4 0 .9.1 1.1.3L5.8 9.2zm8.1-4c-.2-.2-.4-.4-.6-.7l-.8.8c1.1 1.1 1.9 2 2.4 2.7-.5.8-1.2 1.7-2.4 2.7S9.7 12.4 8 12.5c-.8-.1-1.6-.2-2.2-.4l-.8.7c.9.3 1.8.6 2.9.7 2.5-.2 4.5-1.1 5.9-2.8S16 8.2 16 8c0-.3-.8-1.2-2.1-2.8z"/><path fill="currentColor" d="M8 10.5c-.2 0-.4-.1-.6-.1l-.8.8c.4.2.9.3 1.4.3 1 0 1.8-.4 2.5-1 .6-.6 1-1.5 1-2.5 0-.5-.1-1-.3-1.4l-.8.8c.1.2.1.4.1.6 0 .7-.2 1.3-.8 1.8-.5.4-1 .7-1.7.7z"/></svg>