<svg xmlns="http://www.w3.org/2000/svg" viewBox="0 0 1024 1024"><path fill="currentColor" d="M273.067 477.867h477.866V409.6H273.067zm0 68.266v51.2A187.733 187.733 0 0 0 460.8 785.067h102.4a187.733 187.733 0 0 0 187.733-187.734v-51.2zm-34.134-204.8h546.134a34.133 34.133 0 0 1 34.133 34.134v221.866a256 256 0 0 1-256 256H460.8a256 256 0 0 1-256-256V375.467a34.133 34.133 0 0 1 34.133-34.134M512 34.133a34.133 34.133 0 0 1 34.133 34.134v170.666a34.133 34.133 0 0 1-68.266 0V68.267A34.133 34.133 0 0 1 512 34.133M375.467 102.4a34.133 34.133 0 0 1 34.133 34.133v102.4a34.133 34.133 0 0 1-68.267 0v-102.4a34.133 34.133 0 0 1 34.134-34.133m273.066 0a34.133 34.133 0 0 1 34.134 34.133v102.4a34.133 34.133 0 1 1-68.267 0v-102.4a34.133 34.133 0 0 1 34.133-34.133M170.667 921.668h682.666a34.133 34.133 0 1 1 0 68.267H170.667a34.133 34.133 0 1 1 0-68.267"/></svg>