<svg xmlns="http://www.w3.org/2000/svg" viewBox="0 0 1024 1024"><path fill="currentColor" d="M273 477.9h478v-68.3H273zm0 68.2v51.2a187.7 187.7 0 0 0 187.8 187.8h102.4a187.7 187.7 0 0 0 187.7-187.8v-51.2zm-34-204.8h546a34 34 0 0 1 34.2 34.2v221.8a256 256 0 0 1-256 256H460.8a256 256 0 0 1-256-256V375.5a34 34 0 0 1 34.1-34.2M512 34.1a34 34 0 0 1 34.1 34.2v170.6a34.1 34.1 0 0 1-68.2 0V68.3A34 34 0 0 1 512 34m-136.5 68.3a34 34 0 0 1 34.1 34.1V239a34.1 34.1 0 0 1-68.3 0V136.5a34 34 0 0 1 34.2-34.1m273 0a34 34 0 0 1 34.2 34.1V239a34.1 34.1 0 1 1-68.3 0V136.5a34 34 0 0 1 34.1-34.1M170.7 921.7h682.6a34.1 34.1 0 1 1 0 68.2H170.7a34.1 34.1 0 1 1 0-68.2"/></svg>