<svg xmlns="http://www.w3.org/2000/svg" viewBox="0 0 1024 1024"><path fill="currentColor" d="M197.7 259.6a320.1 320.1 0 0 1 628.6 0A96 96 0 0 1 896 352v64a96 96 0 0 1-71.6 92.9l-49.4 395a64 64 0 0 1-63.5 56.1h-399a64 64 0 0 1-63.5-56l-49.4-395.1A96 96 0 0 1 128 416v-64a96 96 0 0 1 69.7-92.4m66.4-3.6h495.8a256.1 256.1 0 0 0-495.8 0m495.4 256h-495l48 384h399zM224 448h576a32 32 0 0 0 32-32v-64a32 32 0 0 0-32-32H224a32 32 0 0 0-32 32v64a32 32 0 0 0 32 32m160 192h64v64h-64zm192 64h64v64h-64zm-128 64h64v64h-64zm64-192h64v64h-64z"/></svg>