<svg xmlns="http://www.w3.org/2000/svg" viewBox="0 0 1024 1024"><path fill="currentColor" d="m308.4 489.3 226.3 226.3a32 32 0 0 0 45.2 0L783.6 512A192 192 0 1 0 512 240.4L308.4 444.2a32 32 0 0 0 0 45.2zM444 715.6 308.4 851.4a96 96 0 0 1-135.8-135.8L308.4 580 263 534.7a96 96 0 0 1 0-135.9l203.7-203.6a256 256 0 0 1 362 362L625.2 761a96 96 0 0 1-135.9 0l-45.2-45.3zm-45.3-45.2-45.2-45.2-135.7 135.7a32 32 0 0 0 45.2 45.2zm249-384.6a32 32 0 0 1 0 45.2L466.6 512a32 32 0 1 1-45.2-45.2l181-181.1a32 32 0 0 1 45.3 0zm90.5 90.5a32 32 0 0 1 0 45.2l-181 181a32 32 0 1 1-45.3-45.3l181-181a32 32 0 0 1 45.3 0"/></svg>