<svg xmlns="http://www.w3.org/2000/svg" viewBox="0 0 1024 1024"><path fill="currentColor" d="M512 64a448 448 0 1 1 0 896 448 448 0 0 1 0-896m67.2 275c33.3 0 60.3-23 60.3-57.3s-27-57.3-60.3-57.3-60.2 23-60.2 57.3 27 57.4 60.2 57.4m11.7 360.1c0-6.8 2.4-24.6 1-34.8L539.3 725c-10.9 11.4-24.5 19.4-30.9 17.3a13 13 0 0 1-8.2-14.7l87.6-277c7.2-35.2-12.5-67.2-54.3-71.3-44 0-109 44.7-148.5 101.5 0 6.8-1.3 23.6 0 33.8l52.6-60.6c11-11.4 23.6-19.4 30-17.2a13 13 0 0 1 7.8 16.1l-87 275.7c-10 32.2 9 63.8 55.1 71 67.9 0 108-43.6 147.5-100.4z"/></svg>