<svg xmlns="http://www.w3.org/2000/svg" viewBox="0 0 1024 1024"><path fill="currentColor" d="M288 671.4v64A240 240 0 0 1 63.7 496.3a240 240 0 0 1 199.5-236.8 256.1 256.1 0 0 1 487.9-31A256 256 0 0 1 736 734v-64.8a192 192 0 0 0 3.3-377.9l-35.2-6.6-12.8-33.4a192 192 0 0 0-366 23.3l-9.8 40.9-41.5 7a176 176 0 0 0-146.3 173.6c0 92 70.5 167.3 160.3 175.2z"/><path fill="currentColor" d="M416 736a32 32 0 0 1-27.8-47.9l128-224a32 32 0 1 1 55.6 31.8L471.2 672H608a32 32 0 0 1 27.8 47.9l-128 224A32 32 0 1 1 452 912L553 736z"/></svg>