<svg xmlns="http://www.w3.org/2000/svg" viewBox="0 0 1024 1024"><path fill="currentColor" d="M288 671.36v64.128A239.81 239.81 0 0 1 63.744 496.192a240.32 240.32 0 0 1 199.488-236.8 256.128 256.128 0 0 1 487.872-30.976A256.064 256.064 0 0 1 736 734.016v-64.768a192 192 0 0 0 3.328-377.92l-35.2-6.592-12.8-33.408a192.064 192.064 0 0 0-365.952 23.232l-9.92 40.896-41.472 7.04a176.32 176.32 0 0 0-146.24 173.568c0 91.968 70.464 167.36 160.256 175.232z"/><path fill="currentColor" d="M416 736a32 32 0 0 1-27.776-47.872l128-224a32 32 0 1 1 55.552 31.744L471.168 672H608a32 32 0 0 1 27.776 47.872l-128 224a32 32 0 1 1-55.68-31.744L552.96 736z"/></svg>