<svg class="icon" width="200" height="200" viewBox="0 0 1024 1024" xmlns="http://www.w3.org/2000/svg"><path fill="currentColor" d="M399.5 849.5a225 225 0 100-450 225 225 0 000 450zm0 56.25a281.25 281.25 0 110-562.5 281.25 281.25 0 010 562.5zM652.625 118.25h225q28.125 0 28.125 28.125T877.625 174.5h-225q-28.125 0-28.125-28.125t28.125-28.125z"/><path fill="currentColor" d="M877.625 118.25q28.125 0 28.125 28.125v225q0 28.125-28.125 28.125T849.5 371.375v-225q0-28.125 28.125-28.125z"/><path fill="currentColor" d="M604.813 458.9L565.1 419.131l292.613-292.668 39.825 39.824z"/></svg>
