<svg xmlns="http://www.w3.org/2000/svg" xml:space="preserve" viewBox="0 0 1024 1024"><path fill="currentColor" d="M480 320h192q32 0 32-32c0-32-10.7-32-32-32H480q-32 0-32 32c0 32 10.7 32 32 32"/><path fill="currentColor" d="M887 73q-9-9-23-9H160q-14 0-23 9t-9 23v832q0 14 9 23c9 9 13.7 9 23 9h704q14 0 23-9c9-9 9-13.7 9-23V96q0-14-9-23M192 896V128h96v768zm640 0H352V128h480z"/><path fill="currentColor" d="M480 512h192q32 0 32-32c0-32-10.7-32-32-32H480q-32 0-32 32c0 32 10.7 32 32 32m0 192h192q32 0 32-32c0-32-10.7-32-32-32H480q-32 0-32 32c0 32 10.7 32 32 32"/></svg>