<svg version="1.1" id="a" xmlns="http://www.w3.org/2000/svg" x="0" y="0" viewBox="0 0 1024 1024" style="enable-background:new 0 0 1024 1024" xml:space="preserve"><path d="M480 320h192c21.33 0 32-10.67 32-32s-10.67-32-32-32H480c-21.33 0-32 10.67-32 32s10.67 32 32 32z" fill="currentColor"/><path d="M887.01 72.99C881.01 67 873.34 64 864 64H160c-9.35 0-17.02 3-23.01 8.99C131 78.99 128 86.66 128 96v832c0 9.35 2.99 17.02 8.99 23.01S150.66 960 160 960h704c9.35 0 17.02-2.99 23.01-8.99S896 937.34 896 928V96c0-9.35-3-17.02-8.99-23.01zM192 896V128h96v768h-96zm640 0H352V128h480v768z" fill="currentColor"/><path d="M480 512h192c21.33 0 32-10.67 32-32s-10.67-32-32-32H480c-21.33 0-32 10.67-32 32s10.67 32 32 32zM480 704h192c21.33 0 32-10.67 32-32s-10.67-32-32-32H480c-21.33 0-32 10.67-32 32s10.67 32 32 32z" fill="currentColor"/></svg>