<svg width="1024" height="1024" fill="none" xmlns="http://www.w3.org/2000/svg"><path d="M352 128v768h-64V128h-96v768h640V128H352ZM160 64h704c9.344 0 17.013 2.997 23.008 8.992C893.003 78.987 896 86.656 896 96v832c0 9.344-2.997 17.013-8.992 23.008C881.013 957.003 873.344 960 864 960H160c-9.344 0-17.013-2.997-23.008-8.992C130.997 945.013 128 937.344 128 928V96c0-9.344 2.997-17.013 8.992-23.008C142.987 66.997 150.656 64 160 64Zm320 192h192c21.333 0 32 10.667 32 32s-10.667 32-32 32H480c-21.333 0-32-10.667-32-32s10.667-32 32-32Zm0 192h192c21.333 0 32 10.667 32 32s-10.667 32-32 32H480c-21.333 0-32-10.667-32-32s10.667-32 32-32Zm0 192h192c21.333 0 32 10.667 32 32s-10.667 32-32 32H480c-21.333 0-32-10.667-32-32s10.667-32 32-32Z" fill="#303133"/></svg>