<svg xmlns="http://www.w3.org/2000/svg" viewBox="0 0 1024 1024"><path fill="currentColor" d="M480 704h160a64 64 0 0 0 64-64v-32h-96a32 32 0 0 1 0-64h96v-96h-96a32 32 0 0 1 0-64h96v-96h-96a32 32 0 0 1 0-64h96v-32a64 64 0 0 0-64-64H384a64 64 0 0 0-64 64v32h96a32 32 0 0 1 0 64h-96v96h96a32 32 0 0 1 0 64h-96v96h96a32 32 0 0 1 0 64h-96v32a64 64 0 0 0 64 64h96zm64 64v128h192a32 32 0 1 1 0 64H288a32 32 0 1 1 0-64h192V768h-96a128 128 0 0 1-128-128V192A128 128 0 0 1 384 64h256a128 128 0 0 1 128 128v448a128 128 0 0 1-128 128h-96z"/></svg>