<svg xmlns="http://www.w3.org/2000/svg" viewBox="0 0 1024 1024"><path fill="currentColor" d="M438.1 256c-68.3 0-92.7 4.7-117.7 18.1q-30.2 16.1-46.3 46.3c-13.4 25-18.1 49.4-18.1 117.7V714c0 68.3 4.7 92.7 18.1 117.7q16.1 30.2 46.3 46.3c25 13.4 49.4 18.1 117.7 18.1H586c68.3 0 92.7-4.7 117.7-18.1q30.2-16.1 46.3-46.3c13.4-25 18.1-49.4 18.1-117.7V438c0-68.3-4.7-92.7-18.1-117.7a111 111 0 0 0-46.3-46.3c-25-13.4-49.4-18.1-117.7-18.1zm0-64H586c85.5 0 116.6 9 147.9 25.6a174 174 0 0 1 72.5 72.6c16.8 31.3 25.7 62.4 25.7 147.9v275.8c0 85.5-9 116.6-25.6 147.9a175 175 0 0 1-72.6 72.5c-31.3 16.8-62.4 25.7-147.9 25.7H438.1c-85.5 0-116.6-9-147.9-25.6a175 175 0 0 1-72.6-72.7c-16.8-31.3-25.7-62.3-25.7-147.8V438c0-85.5 9-116.5 25.6-147.8a175 175 0 0 1 72.8-72.6c31.2-16.7 62.3-25.6 147.8-25.6z"/><path fill="currentColor" d="M512 320q32 0 32 32v128q0 32-32 32t-32-32V352q0-32 32-32m32-96a32 32 0 0 1-64 0v-64a32 32 0 0 0-32-32h-96a32 32 0 0 1 0-64h96a96 96 0 0 1 96 96z"/></svg>