<svg xmlns="http://www.w3.org/2000/svg" viewBox="0 0 1024 1024"><path fill="currentColor" d="m412.2 592.1-45.5 45.5A191 191 0 0 1 320 512V256a192 192 0 1 1 384 0v44.4l-64 64V256a128 128 0 1 0-256 0v256c0 30.3 10.6 58.2 28.2 80.1m52 38.6A128 128 0 0 0 640 512v-57.2l64-64V512a192 192 0 0 1-287.7 166.5zM314.8 780l46.1-46.1A223 223 0 0 0 480 768h64a224 224 0 0 0 224-224v-32a32 32 0 1 1 64 0v32a288 288 0 0 1-288 288v64h64a32 32 0 1 1 0 64H416a32 32 0 1 1 0-64h64v-64a286 286 0 0 1-165.1-52m-48.1-42.4A287 287 0 0 1 192 544v-32a32 32 0 0 1 64 0v32c0 56.8 21.2 108.8 56 148.3z"/><path fill="currentColor" d="M150.7 859a32 32 0 0 1-45.4-45l704-708.5a32 32 0 0 1 45.4 45z"/></svg>