<svg class="icon" width="200" height="200" viewBox="0 0 1024 1024" xmlns="http://www.w3.org/2000/svg"><path fill="currentColor" d="M192 128v704h384V128H192zm-32-64h448a32 32 0 0132 32v768a32 32 0 01-32 32H160a32 32 0 01-32-32V96a32 32 0 0132-32z"/><path fill="currentColor" d="M256 256h256v64H256v-64zm0 192h256v64H256v-64zm0 192h256v64H256v-64zm384-128h128v64H640v-64zm0 128h128v64H640v-64zM64 832h896v64H64v-64z"/><path fill="currentColor" d="M640 384v448h192V384H640zm-32-64h256a32 32 0 0132 32v512a32 32 0 01-32 32H608a32 32 0 01-32-32V352a32 32 0 0132-32z"/></svg>
