<svg xmlns="http://www.w3.org/2000/svg" viewBox="0 0 1024 1024"><path fill="currentColor" d="M544 894.7a382 382 0 0 0 216-89.5l-183-183q-15.3 9.1-33 13.8zM805.2 760A382 382 0 0 0 894.7 544H636q-4.6 17.7-13.7 33zM894.7 480a382 382 0 0 0-89.5-216l-183 183q9.1 15.3 13.8 33zM759.9 218.8A382 382 0 0 0 544 129.3V388q17.7 4.6 33 13.7zM480 129.3a382 382 0 0 0-216 89.5l183 183q15.3-9.2 33-13.8zM218.8 264.1A382 382 0 0 0 129.3 480H388q4.6-17.7 13.7-33zM129.3 544a382 382 0 0 0 89.5 216l183-183a127 127 0 0 1-13.8-33zm134.8 261.2A382 382 0 0 0 480 894.7V636a127 127 0 0 1-33-13.7zM512 960a448 448 0 1 1 0-896 448 448 0 0 1 0 896m0-384a64 64 0 1 0 0-128 64 64 0 0 0 0 128"/></svg>