<svg xmlns="http://www.w3.org/2000/svg" viewBox="0 0 1024 1024"><path fill="currentColor" d="M542.3 258.8a443 443 0 0 0-9 25.1 32 32 0 1 1-60.8-20l1.1-3.4a163 163 0 0 0-122 131.4l-17.1 102.8-20.8 15.3C256.2 552.7 224 611 224 672c0 120.6 126.4 224 288 224s288-103.4 288-224c0-61.1-32.2-119.3-89.7-162l-20.8-15.3-17-102.8a163 163 0 0 0-130.2-133m-40-66.6Q514 169 528 148.5q34.9-51 78.6-77.1a32 32 0 1 1 32.7 55q-30.9 18.3-58.5 58.3a317 317 0 0 0-9.8 15.1 227 227 0 0 1 164.5 181.6l12.8 77.2C819.4 511.4 864 587.4 864 672c0 159-157.6 288-352 288S160 831 160 672c0-84.6 44.6-160.6 115.6-213.4l12.8-77.2A226.6 226.6 0 0 1 502 192.2z"/></svg>