<svg xmlns="http://www.w3.org/2000/svg" viewBox="0 0 1024 1024"><path fill="currentColor" d="m79.4 432.3 512.3 512.3a32 32 0 0 0 35.2 6.8L880.4 843a32 32 0 0 0 10-52l-153.9-154a32 32 0 0 0-37-6l-69.8 35-271.6-271.7 35-69.8a32 32 0 0 0-6-37l-154-153.8a32 32 0 0 0-52 10L72.5 397.1a32 32 0 0 0 6.8 35.2zm60.4-30 81.6-190 104.2 104.2-24.7 49.2-20.6 41.2 32.6 32.7L584.4 711l32.7 32.6 41.2-20.6 49.3-24.6 104.2 104.1-190.1 81.5zM512 320v-64a256 256 0 0 1 256 256h-64a192 192 0 0 0-192-192m0-192V64a448 448 0 0 1 448 448h-64a384 384 0 0 0-384-384"/></svg>