<svg xmlns="http://www.w3.org/2000/svg" viewBox="0 0 1024 1024"><path fill="currentColor" d="M512 128a384 384 0 1 0 0 768 384 384 0 0 0 0-768m0-64a448 448 0 1 1 0 896 448 448 0 0 1 0-896"/><path fill="currentColor" d="M640 288q64 0 64 64t-64 64-64-64 64-64M214.656 790.656l-45.312-45.312 185.664-185.6a96 96 0 0 1 123.712-10.24l138.24 98.688a32 32 0 0 0 39.872-2.176L906.688 422.4l42.624 47.744L699.52 693.696a96 96 0 0 1-119.808 6.592l-138.24-98.752a32 32 0 0 0-41.152 3.456l-185.664 185.6z"/></svg>