<svg xmlns="http://www.w3.org/2000/svg" viewBox="0 0 1024 1024"><path fill="currentColor" d="M511.6 128a64.4 64.4 0 0 0-64.4 64.4V709L274 571a94 94 0 0 0-112.8-3.5 44.4 44.4 0 0 0-9 62.2l180.6 240.8A64 64 0 0 0 384 896h512V575.2a64 64 0 0 0-45.6-61.3l-206-61.7a96 96 0 0 1-68.4-92V192.4a64.4 64.4 0 0 0-64.4-64.4M359 556.8l24.2 19.2V192.4a128.4 128.4 0 1 1 256.8 0v167.8a32 32 0 0 0 22.8 30.6l206 61.8A128 128 0 0 1 960 575.2V896a64 64 0 0 1-64 64H384a128 128 0 0 1-102.4-51.2L101.1 668A108.4 108.4 0 0 1 128 512.5a158 158 0 0 1 186 8.3z"/></svg>