<svg xmlns="http://www.w3.org/2000/svg" viewBox="0 0 1024 1024"><path fill="currentColor" d="m739.3 291.3-35.2-6.6-12.8-33.4a192 192 0 0 0-366 23.3l-9.8 40.9-41.5 7a176 176 0 0 0-146.3 173.6c0 97.2 78.8 175.9 175.9 175.9h400a192 192 0 0 0 35.7-380.7M959.6 480a256 256 0 0 1-256 256h-400A240 240 0 0 1 63.7 496.2a240 240 0 0 1 199.5-236.8 256.1 256.1 0 0 1 487.9-31A256 256 0 0 1 959.6 480M224 800a32 32 0 0 1 32 32v96a32 32 0 1 1-64 0v-96a32 32 0 0 1 32-32m192 0a32 32 0 0 1 32 32v96a32 32 0 1 1-64 0v-96a32 32 0 0 1 32-32m192 0a32 32 0 0 1 32 32v96a32 32 0 1 1-64 0v-96a32 32 0 0 1 32-32m192 0a32 32 0 0 1 32 32v96a32 32 0 1 1-64 0v-96a32 32 0 0 1 32-32"/></svg>