<svg xmlns="http://www.w3.org/2000/svg" viewBox="0 0 1024 1024"><path fill="currentColor" d="M256 768H105c-14.2 0-19.4-1.5-24.6-4.3a29 29 0 0 1-12.2-12c-2.7-5.3-4.2-10.5-4.2-24.7V379c0-42.7 4.5-58.2 12.8-74a88 88 0 0 1 36.3-36.2c15.7-8.3 31.2-12.8 74-12.8H256V64h512v192h69c42.7 0 58.2 4.5 74 12.8a88 88 0 0 1 36.2 36.3c8.3 15.7 12.8 31.2 12.8 74V727c0 14.2-1.5 19.4-4.3 24.6a29 29 0 0 1-12 12.2c-5.3 2.7-10.5 4.2-24.7 4.2H768v192H256zm64-192v320h384V576zm-64 128V512h512v192h128V379c0-29.3-1.4-36.4-5.2-43.7a23 23 0 0 0-10.1-10c-7.2-3.9-14.4-5.3-43.8-5.3H187.1c-29.4 0-36.5 1.4-43.8 5.2a23 23 0 0 0-10 10.1c-3.9 7.2-5.3 14.4-5.3 43.8V704zm64-448h384V128H320zm-64 128h64v64h-64zm128 0h64v64h-64z"/></svg>