<svg width="1024" height="1024" fill="none" xmlns="http://www.w3.org/2000/svg"><path d="M512 768c72.661-2.005 132.992-27.008 180.992-75.008S765.994 584.661 768 512c-2.006-72.661-27.008-132.992-75.008-180.992S584.661 258.005 512 256c-72.662 2.005-132.992 27.008-180.992 75.008S258.005 439.339 256 512c2.005 72.661 27.008 132.992 75.008 180.992S439.338 765.995 512 768Zm0 64c-90.667-2.005-166.166-33.173-226.496-93.504C225.173 678.165 194.005 602.667 192 512c2.005-90.667 33.173-166.165 93.504-226.496C345.834 225.173 421.333 194.005 512 192c90.666 2.005 166.165 33.173 226.496 93.504C798.826 345.835 829.994 421.333 832 512c-2.006 90.667-33.174 166.165-93.504 226.496C678.165 798.827 602.666 829.995 512 832Zm96-576V128H416v128h-64V64h320v192h-64ZM416 768v128h192V768h64v192H352V768h64Zm96-384c-9.344 0-17.014-2.997-23.008-8.992C482.997 369.013 480 361.344 480 352s2.997-17.013 8.992-23.008C494.986 322.997 502.656 320 512 320s17.013 2.997 23.008 8.992C541.002 334.987 544 342.656 544 352s-2.998 17.013-8.992 23.008C529.013 381.003 521.344 384 512 384Zm0 320c-9.344 0-17.014-2.997-23.008-8.992C482.997 689.013 480 681.344 480 672s2.997-17.013 8.992-23.008C494.986 642.997 502.656 640 512 640s17.013 2.997 23.008 8.992C541.002 654.987 544 662.656 544 672s-2.998 17.013-8.992 23.008C529.013 701.003 521.344 704 512 704ZM384 512c0 9.344-2.998 17.013-8.992 23.008C369.013 541.003 361.344 544 352 544s-17.014-2.997-23.008-8.992C322.997 529.013 320 521.344 320 512s2.997-17.013 8.992-23.008C334.986 482.997 342.656 480 352 480s17.013 2.997 23.008 8.992C381.002 494.987 384 502.656 384 512Zm320 0c0 9.344-2.998 17.013-8.992 23.008C689.013 541.003 681.344 544 672 544s-17.014-2.997-23.008-8.992C642.997 529.013 640 521.344 640 512s2.997-17.013 8.992-23.008C654.986 482.997 662.656 480 672 480s17.013 2.997 23.008 8.992C701.002 494.987 704 502.656 704 512Zm-281.984-89.984c-9.344 8-19.84 10.496-31.488 7.488s-19.147-10.507-22.496-22.496c-3.35-11.989-.683-22.325 8-31.008 6.677-5.995 14.176-8.992 22.496-8.992 8.32 0 15.658 3.168 22.016 9.504 6.357 6.336 9.696 13.835 10.016 22.496.32 8.661-2.518 16.331-8.512 23.008h-.032ZM648 648c-8.662 8.661-18.998 11.328-31.008 8-12.011-3.328-19.51-10.827-22.496-22.496-2.987-11.669-.491-22.165 7.488-31.488 6.677-5.995 14.346-8.832 23.008-8.512 8.661.32 16.16 3.659 22.496 10.016 6.336 6.357 9.504 13.696 9.504 22.016 0 8.32-2.998 15.819-8.992 22.496V648Zm-225.984-45.984c8 9.344 10.496 19.84 7.488 31.488S418.997 652.651 407.008 656c-11.99 3.349-22.326.683-31.008-8-5.995-6.677-8.992-14.176-8.992-22.496 0-8.32 3.168-15.659 9.504-22.016 6.336-6.357 13.834-9.696 22.496-10.016 8.661-.32 16.33 2.517 23.008 8.512v.032ZM648 376c8 9.344 10.496 19.84 7.488 31.488s-10.347 18.987-22.016 22.016c-11.67 3.029-22.166.533-31.488-7.488-5.995-6.677-8.832-14.347-8.512-23.008.32-8.661 3.658-16.16 10.016-22.496 6.357-6.336 13.696-9.504 22.016-9.504 8.32 0 15.818 2.997 22.496 8.992Z" fill="#303133"/></svg>