<svg xmlns="http://www.w3.org/2000/svg" xml:space="preserve" style="enable-background:new 0 0 1024 1024" viewBox="0 0 1024 1024"><path fill="currentColor" d="M422.02 602.01v-.03c-6.68-5.99-14.35-8.83-23.01-8.51-8.67.32-16.17 3.66-22.5 10.02-6.33 6.36-9.5 13.7-9.5 22.02s3 15.82 8.99 22.5c8.68 8.68 19.02 11.35 31.01 8s19.49-10.85 22.5-22.5c3.01-11.65.51-22.15-7.49-31.49zM384 512c0-9.35-3-17.02-8.99-23.01-6-5.99-13.66-8.99-23.01-8.99-9.35 0-17.02 3-23.01 8.99-5.99 6-8.99 13.66-8.99 23.01s3 17.02 8.99 23.01c6 5.99 13.66 8.99 23.01 8.99 9.35 0 17.02-3 23.01-8.99 5.99-6 8.99-13.67 8.99-23.01m6.53-82.49c11.65 3.01 22.15.51 31.49-7.49h.04c5.99-6.68 8.83-14.34 8.51-23.01-.32-8.67-3.66-16.16-10.02-22.5-6.36-6.33-13.7-9.5-22.02-9.5s-15.82 3-22.5 8.99c-8.68 8.69-11.35 19.02-8 31.01 3.35 11.99 10.85 19.49 22.5 22.5zm242.94 0c11.67-3.03 19.01-10.37 22.02-22.02 3.01-11.65.51-22.15-7.49-31.49h.01c-6.68-5.99-14.18-8.99-22.5-8.99s-15.66 3.16-22.02 9.5c-6.36 6.34-9.7 13.84-10.02 22.5-.32 8.66 2.52 16.33 8.51 23.01 9.32 8.02 19.82 10.52 31.49 7.49M512 640c-9.35 0-17.02 3-23.01 8.99-5.99 6-8.99 13.66-8.99 23.01s3 17.02 8.99 23.01c6 5.99 13.67 8.99 23.01 8.99 9.35 0 17.02-3 23.01-8.99 5.99-6 8.99-13.66 8.99-23.01s-3-17.02-8.99-23.01c-6-5.99-13.66-8.99-23.01-8.99m183.01-151.01c-6-5.99-13.66-8.99-23.01-8.99s-17.02 3-23.01 8.99c-5.99 6-8.99 13.66-8.99 23.01s3 17.02 8.99 23.01c6 5.99 13.66 8.99 23.01 8.99s17.02-3 23.01-8.99c5.99-6 8.99-13.67 8.99-23.01 0-9.35-3-17.02-8.99-23.01"/><path fill="currentColor" d="M832 512c-2-90.67-33.17-166.17-93.5-226.5-20.43-20.42-42.6-37.49-66.5-51.23V64H352v170.26c-23.9 13.74-46.07 30.81-66.5 51.24-60.33 60.33-91.49 135.83-93.5 226.5 2 90.67 33.17 166.17 93.5 226.5 20.43 20.43 42.6 37.5 66.5 51.24V960h320V789.74c23.9-13.74 46.07-30.81 66.5-51.24 60.33-60.34 91.49-135.83 93.5-226.5M416 128h192v78.69c-29.85-9.03-61.85-13.93-96-14.69-34.15.75-66.15 5.65-96 14.68zm192 768H416v-78.68c29.85 9.03 61.85 13.93 96 14.68 34.15-.75 66.15-5.65 96-14.68zm-96-128c-72.66-2.01-132.99-27.01-180.99-75.01S258.01 584.66 256 512c2.01-72.66 27.01-132.99 75.01-180.99S439.34 258.01 512 256c72.66 2.01 132.99 27.01 180.99 75.01S765.99 439.34 768 512c-2.01 72.66-27.01 132.99-75.01 180.99S584.66 765.99 512 768"/><path fill="currentColor" d="M512 320c-9.35 0-17.02 3-23.01 8.99-5.99 6-8.99 13.66-8.99 23.01 0 9.35 3 17.02 8.99 23.01 6 5.99 13.67 8.99 23.01 8.99 9.35 0 17.02-3 23.01-8.99 5.99-6 8.99-13.66 8.99-23.01 0-9.35-3-17.02-8.99-23.01-6-5.99-13.66-8.99-23.01-8.99m112.99 273.5c-8.66-.32-16.33 2.52-23.01 8.51-7.98 9.32-10.48 19.82-7.49 31.49s10.49 19.17 22.5 22.5 22.35.66 31.01-8v.04c5.99-6.68 8.99-14.18 8.99-22.5s-3.16-15.66-9.5-22.02-13.84-9.7-22.5-10.02"/></svg>