<svg xmlns="http://www.w3.org/2000/svg" viewBox="0 0 1024 1024"><path fill="currentColor" d="M512 64a448 448 0 1 1 0 896 448 448 0 0 1 0-896m23.7 191.5q-77.9 0-123.2 44.3c-31 29.6-45.7 70.4-45.7 122.5H447c0-29.5 5.7-52.8 17.6-69 13.4-19.7 35.2-28.8 66.2-28.8q36.2-.2 56.3 19.7a77 77 0 0 1 19.7 54.9 78 78 0 0 1-19 50l-8.4 9.8c-45.8 40.9-73.2 70.4-82.4 89.5-9.8 19-14 42.2-14 69v9.8h80.9v-9.9c0-16.9 3.5-31.6 10.6-45.7a109 109 0 0 1 28.1-35.2c33.8-29.6 54.2-48.6 60.6-55.6 16.9-22.6 26-51.4 26-86.6q0-64.4-42.2-101.4c-28.2-25.3-65.5-37.3-111.3-37.3m-12.6 406.2a54 54 0 0 0-38.7 14.8 49 49 0 0 0-15.5 38c0 15.5 4.9 28.2 15.5 38A55 55 0 0 0 523 768c15.5 0 28.1-5 38.7-14.8a52 52 0 0 0 16.2-38.7 52 52 0 0 0-15.5-38 56 56 0 0 0-39.4-14.8"/></svg>