<svg xmlns="http://www.w3.org/2000/svg" viewBox="0 0 1024 1024"><path fill="currentColor" d="m186.5 544 41.4 41.3a32 32 0 1 1-45.2 45.4l-96-96a32 32 0 0 1 0-45.4l96-96a32 32 0 1 1 45.2 45.4L186.5 480h290.8V186.4L435.8 228a32 32 0 1 1-45.2-45.2l96-96.1a32 32 0 0 1 45.3 0l96 96a32 32 0 0 1-45.2 45.2l-41.4-41.2V480H832l-41.3-41.3a32 32 0 0 1 45.2-45.4l96 96a32 32 0 0 1 0 45.4l-96 96a32 32 0 0 1-45.2-45.4L832 544H541.3v293.4l41.4-41.2a32 32 0 1 1 45.2 45.2l-96 96a32 32 0 0 1-45.3 0l-96-96a32 32 0 1 1 45.3-45.2l41.4 41.4V544z"/></svg>