<svg xmlns="http://www.w3.org/2000/svg" viewBox="0 0 1024 1024"><path fill="currentColor" d="m186.496 544 41.408 41.344a32 32 0 1 1-45.248 45.312l-96-96a32 32 0 0 1 0-45.312l96-96a32 32 0 1 1 45.248 45.312L186.496 480h290.816V186.432l-41.472 41.472a32 32 0 1 1-45.248-45.184l96-96.128a32 32 0 0 1 45.312 0l96 96.064a32 32 0 0 1-45.248 45.184l-41.344-41.28V480H832l-41.344-41.344a32 32 0 0 1 45.248-45.312l96 96a32 32 0 0 1 0 45.312l-96 96a32 32 0 0 1-45.248-45.312L832 544H541.312v293.44l41.344-41.28a32 32 0 1 1 45.248 45.248l-96 96a32 32 0 0 1-45.312 0l-96-96a32 32 0 1 1 45.312-45.248l41.408 41.408V544H186.496z"/></svg>