<svg xmlns="http://www.w3.org/2000/svg" viewBox="0 0 1024 1024"><path fill="currentColor" d="M813.176 180.706a60.235 60.235 0 0 1 60.236 60.235v481.883a60.235 60.235 0 0 1-60.236 60.235H210.824a60.235 60.235 0 0 1-60.236-60.235V240.94a60.235 60.235 0 0 1 60.236-60.235h602.352zm0-60.235H210.824A120.47 120.47 0 0 0 90.353 240.94v481.883a120.47 120.47 0 0 0 120.47 120.47h602.353a120.47 120.47 0 0 0 120.471-120.47V240.94a120.47 120.47 0 0 0-120.47-120.47zm-120.47 180.705a30.12 30.12 0 0 0-30.118 30.118v301.177a30.118 30.118 0 0 0 60.236 0V331.294a30.12 30.12 0 0 0-30.118-30.118m-361.412 0a30.12 30.12 0 0 0-30.118 30.118v301.177a30.118 30.118 0 1 0 60.236 0V331.294a30.12 30.12 0 0 0-30.118-30.118M512 361.412a30.12 30.12 0 0 0-30.118 30.117v30.118a30.118 30.118 0 0 0 60.236 0V391.53A30.12 30.12 0 0 0 512 361.412M512 512a30.12 30.12 0 0 0-30.118 30.118v30.117a30.118 30.118 0 0 0 60.236 0v-30.117A30.12 30.12 0 0 0 512 512"/></svg>