<svg xmlns="http://www.w3.org/2000/svg" viewBox="0 0 1024 1024"><path fill="currentColor" d="M813.2 180.7a60 60 0 0 1 60.2 60.2v482a60 60 0 0 1-60.2 60.2H210.8a60 60 0 0 1-60.2-60.3V241a60 60 0 0 1 60.2-60.2zm0-60.2H210.8A120.5 120.5 0 0 0 90.4 240.9v482a120.5 120.5 0 0 0 120.4 120.4h602.4a120.5 120.5 0 0 0 120.4-120.5V241a120.5 120.5 0 0 0-120.4-120.4M692.7 301.2a30 30 0 0 0-30.1 30v301.3a30.1 30.1 0 0 0 60.2 0V331.3a30 30 0 0 0-30-30.1m-361.5 0a30 30 0 0 0-30.1 30v301.3a30.1 30.1 0 1 0 60.2 0V331.3a30 30 0 0 0-30.1-30.1M512 361.4a30 30 0 0 0-30.1 30.1v30.1a30.1 30.1 0 0 0 60.2 0v-30a30 30 0 0 0-30.1-30.2m0 150.6a30 30 0 0 0-30.1 30.1v30.1a30.1 30.1 0 0 0 60.2 0v-30A30 30 0 0 0 512 512"/></svg>