<svg xmlns="http://www.w3.org/2000/svg" viewBox="0 0 1024 1024"><path fill="currentColor" d="M704 288h131a32 32 0 0 1 31.9 28.8L886.4 512H822l-16-160H704v96a32 32 0 1 1-64 0v-96H384v96a32 32 0 0 1-64 0v-96H218l-51.3 512H512v64H131.3a32 32 0 0 1-31.8-35.2l57.6-576A32 32 0 0 1 189 288H320v-22.3C320 154.7 405.5 64 512 64s192 90.7 192 201.7zm-64 0v-22.3c0-76.5-57.7-137.7-128-137.7s-128 61.2-128 137.7V288zm201.4 483.8L768 698.5V928a32 32 0 1 1-64 0V698.5l-73.3 73.3a32 32 0 1 1-45.3-45.2l128-128a32 32 0 0 1 45.3 0l128 128a32 32 0 1 1-45.3 45.2"/></svg>