<svg xmlns="http://www.w3.org/2000/svg" viewBox="0 0 1024 1024"><path fill="currentColor" d="M600.7 64a32 32 0 0 1 30.5 22.2l35.2 109.4a348 348 0 0 1 42.4 24.5l112.4-24.2a32 32 0 0 1 34.4 15.4l88.7 153.5a32 32 0 0 1-4 37.5l-77.1 85.1a357 357 0 0 1 0 49l77 85.3a32 32 0 0 1 4.1 37.5l-88.7 153.6a32 32 0 0 1-34.4 15.3l-112.4-24.2q-20.2 13.6-42.4 24.5l-35.2 109.4a32 32 0 0 1-30.5 22.2H423.3a32 32 0 0 1-30.5-22.2l-35.1-109.3a352 352 0 0 1-42.6-24.7l-112.3 24.3a32 32 0 0 1-34.4-15.4L79.7 659.2a32 32 0 0 1 4-37.5l77.1-85.3a357 357 0 0 1 0-48.8l-77-85.3a32 32 0 0 1-4.1-37.5l88.7-153.6a32 32 0 0 1 34.4-15.3l112.3 24.3a355 355 0 0 1 42.6-24.7l35.2-109.3A32 32 0 0 1 423.2 64zm-23.4 64H446.7l-36.3 113-24.5 12a294 294 0 0 0-34.9 20.2l-22.6 15.3-116.2-25-65.3 113 79.7 88.3-2 27.1a293 293 0 0 0 0 40.2l2 27.1-79.8 88.2L212 760.6l116.2-25 22.7 15.2a294 294 0 0 0 34.8 20.1l24.5 12L446.7 896h130.7L614 782.8l24.4-11.9a288 288 0 0 0 34.8-20l22.6-15.3 116.3 25 65.2-113.2-79.7-88.2 2-27.1a293 293 0 0 0 0-40.3l-2-27.1 79.8-88.1L812 263.4l-116.3 25-22.6-15.2a288 288 0 0 0-34.8-20.1L614 241zM512 320a192 192 0 1 1 0 384 192 192 0 0 1 0-384m0 64a128 128 0 1 0 0 256 128 128 0 0 0 0-256"/></svg>