<svg width="1024" height="1024" fill="none" xmlns="http://www.w3.org/2000/svg"><path d="M96 128h823.007c10.005 0 18.176 4.171 24.512 12.512 6.336 8.341 8.501 17.504 6.496 27.488l-112 448c-2.005 7.339-5.835 13.173-11.488 17.504-5.653 4.331-12.149 6.496-19.488 6.496H256.031v64h608c9.344 0 17.013 2.997 23.008 8.992 5.995 5.995 8.992 13.664 8.992 23.008s-2.997 17.013-8.992 23.008c-5.995 5.995-13.664 8.992-23.008 8.992h-672V192h-96c-9.344 0-17.013-2.997-23.008-8.992-5.995-5.995-8.992-13.664-8.992-23.008s2.997-17.013 8.992-23.008C79.018 130.997 86.687 128 96.031 128H96Zm159.999 64v384h526.016l96-384H255.999Zm112 736c-13.333-.661-24.501-5.493-33.504-14.496-9.003-9.003-13.504-20.171-13.504-33.504 0-13.333 4.501-24.501 13.504-33.504 9.003-9.003 20.171-13.504 33.504-13.504 13.333 0 24.501 4.501 33.504 13.504 9.003 9.003 13.504 20.171 13.504 33.504 0 13.333-4.501 24.501-13.504 33.504-9.003 9.003-20.171 13.835-33.504 14.496Zm320 0c-13.333-.661-24.501-5.493-33.504-14.496-9.003-9.003-13.504-20.171-13.504-33.504 0-13.333 4.501-24.501 13.504-33.504 9.003-9.003 20.171-13.504 33.504-13.504 13.333 0 24.502 4.501 33.504 13.504 9.003 9.003 13.504 20.171 13.504 33.504 0 13.333-4.501 24.501-13.504 33.504-9.002 9.003-20.171 13.835-33.504 14.496Z" fill="#303133"/></svg>