<svg xmlns="http://www.w3.org/2000/svg" xml:space="preserve" style="enable-background:new 0 0 1024 1024" viewBox="0 0 1024 1024"><path fill="currentColor" d="M368 833c-13.3 0-24.5 4.5-33.5 13.5S321 866.7 321 880s4.5 24.5 13.5 33.5 20.2 13.8 33.5 14.5c13.3-.7 24.5-5.5 33.5-14.5S415 893.3 415 880s-4.5-24.5-13.5-33.5S381.3 833 368 833zm439-193c7.4 0 13.8-2.2 19.5-6.5S836 623.3 838 616l112-448c2-10-.2-19.2-6.5-27.5S929 128 919 128H96c-9.3 0-17 3-23 9s-9 13.7-9 23 3 17 9 23 13.7 9 23 9h96v576h672c9.3 0 17-3 23-9s9-13.7 9-23-3-17-9-23-13.7-9-23-9H256v-64h551zM256 192h622l-96 384H256V192zm432 641c-13.3 0-24.5 4.5-33.5 13.5S641 866.7 641 880s4.5 24.5 13.5 33.5 20.2 13.8 33.5 14.5c13.3-.7 24.5-5.5 33.5-14.5S735 893.3 735 880s-4.5-24.5-13.5-33.5S701.3 833 688 833z"/></svg>