<svg xmlns="http://www.w3.org/2000/svg" xml:space="preserve" viewBox="0 0 1024 1024"><path fill="currentColor" d="M368 833q-20 0-33.5 13.5C321 860 321 866.7 321 880s4.5 24.5 13.5 33.5 20.2 13.8 33.5 14.5q20-1 33.5-14.5C415 900 415 893.3 415 880s-4.5-24.5-13.5-33.5S381.3 833 368 833m439-193a31.4 31.4 0 0 0 31-24l112-448q3-15-6.5-27.5C934 128 929 128 919 128H96q-14 0-23 9c-9 9-9 13.7-9 23s3 17 9 23 13.7 9 23 9h96v576h672q14 0 23-9c9-9 9-13.7 9-23s-3-17-9-23-13.7-9-23-9H256v-64zM256 192h622l-96 384H256zm432 641q-20 0-33.5 13.5C641 860 641 866.7 641 880s4.5 24.5 13.5 33.5 20.2 13.8 33.5 14.5q20-1 33.5-14.5C735 900 735 893.3 735 880s-4.5-24.5-13.5-33.5S701.3 833 688 833"/></svg>