<svg xmlns="http://www.w3.org/2000/svg" viewBox="0 0 1024 1024"><path fill="currentColor" d="M432 928a48 48 0 1 1 0-96 48 48 0 0 1 0 96zm320 0a48 48 0 1 1 0-96 48 48 0 0 1 0 96zM96 128a32 32 0 0 1 0-64h160a32 32 0 0 1 31.36 25.728L320.64 256H928a32 32 0 0 1 31.296 38.72l-96 448A32 32 0 0 1 832 768H384a32 32 0 0 1-31.36-25.728L229.76 128H96zm314.24 576h395.904l82.304-384H333.44l76.8 384z"/><path fill="currentColor" d="M699.648 256 608 145.984 516.352 256h183.296zm-140.8-151.04a64 64 0 0 1 98.304 0L836.352 320H379.648l179.2-215.04z"/></svg>