<svg xmlns="http://www.w3.org/2000/svg" viewBox="0 0 1024 1024"><path fill="currentColor" d="M418.5 871 152.3 604.8c-16.6 94-2.4 178.6 42.9 224 45 45 129.3 58.8 223.3 42.2m72.3-18.1a573 573 0 0 0 224.8-137.3A573 573 0 0 0 853 490.8l-319-319a579 579 0 0 0-227.5 138.5 568 568 0 0 0-136 222.2zM871 418.5c16.6-94 2.7-178.4-42.2-223.3-44.5-44.5-128.7-58-222.6-41.5zM150 874C37 761 61 465 261 265c200-199.8 499.9-228 613-115 113 113 86.7 411-113.2 610.9S262.9 987 149.9 874m452.6-497.7 22.7-22.7a32 32 0 0 1 45.2 45.2l-22.7 22.7 45.3 45.3a32 32 0 1 1-45.3 45.2l-45.2-45.2-45.3 45.2 45.3 45.2a32 32 0 1 1-45.3 45.3L512 557.2l-45.2 45.3 45.2 45.2a32 32 0 1 1-45.2 45.3l-45.3-45.3-22.7 22.7a32 32 0 1 1-45.2-45.2l22.7-22.7-45.3-45.3a32 32 0 1 1 45.3-45.2l45.2 45.2 45.3-45.2-45.3-45.2a32 32 0 1 1 45.3-45.3l45.2 45.3 45.2-45.3-45.2-45.2a32 32 0 0 1 45.2-45.3z"/></svg>