<svg class="icon" width="200" height="200" viewBox="0 0 1024 1024" xmlns="http://www.w3.org/2000/svg"><path fill="currentColor" d="M801.728 349.184l4.48 4.48a128 128 0 010 180.992L534.656 806.144a128 128 0 01-181.056 0l-4.48-4.48-19.392 109.696a64 64 0 01-108.288 34.176L78.464 802.56a64 64 0 0134.176-108.288l109.76-19.328-4.544-4.544a128 128 0 010-181.056l271.488-271.488a128 128 0 01181.056 0l4.48 4.48 19.392-109.504a64 64 0 01108.352-34.048l142.592 143.04a64 64 0 01-34.24 108.16l-109.248 19.2zm-548.8 198.72h447.168v2.24l60.8-60.8a63.808 63.808 0 0018.752-44.416h-426.88l-89.664 89.728a64.064 64.064 0 00-10.24 13.248zm0 64c2.752 4.736 6.144 9.152 10.176 13.248l135.744 135.744a64 64 0 0090.496 0L638.4 611.904H252.928zm490.048-230.976L625.152 263.104a64 64 0 00-90.496 0L416.768 380.928h326.208zM123.712 757.312l142.976 142.976 24.32-137.6a25.6 25.6 0 00-29.696-29.632l-137.6 24.256zm633.6-633.344l-24.32 137.472a25.6 25.6 0 0029.632 29.632l137.28-24.064-142.656-143.04z"/></svg>
