<svg xmlns="http://www.w3.org/2000/svg" viewBox="0 0 1024 1024"><path fill="currentColor" d="m801.7 349.2 4.5 4.5a128 128 0 0 1 0 181L534.7 806a128 128 0 0 1-181.1 0l-4.5-4.4-19.4 109.7a64 64 0 0 1-108.3 34.1l-143-143a64 64 0 0 1 34.2-108.2l109.8-19.4-4.5-4.5a128 128 0 0 1 0-181l271.4-271.5a128 128 0 0 1 181.1 0l4.5 4.4 19.4-109.5a64 64 0 0 1 108.3-34l142.6 143A64 64 0 0 1 911 330zM253 547.9h447.2v2.2l60.8-60.8a64 64 0 0 0 18.7-44.4H352.8L263 534.7a64 64 0 0 0-10.2 13.2zm0 64q4.2 7.1 10.2 13.3l135.7 135.7a64 64 0 0 0 90.5 0l149.1-149zm490-231L625.3 263.1a64 64 0 0 0-90.5 0l-118 117.8zM123.8 757.3l143 143L291 762.7a25.6 25.6 0 0 0-29.7-29.6zM757.3 124 733 261.4a25.6 25.6 0 0 0 29.6 29.7L900 267z"/></svg>