<svg xmlns="http://www.w3.org/2000/svg" xml:space="preserve" viewBox="0 0 1024 1024"><path fill="currentColor" d="M922.5 229.5A126 126 0 0 0 832 192H704v-64a65 65 0 0 0-64-64H384a65 65 0 0 0-64 64v64H192q-54 1-90.5 37.5C65 266 64.7 284 64 320v448q1 54 37.5 90.5C138 895 156 895.3 192 896h640q54-1 90.5-37.5C959 822 959.3 804 960 768V320q-1-54-37.5-90.5M384 128h256v64H384zM256 832h-64a65 65 0 0 1-64-64V448h128zm448 0H320V448h384zm192-64a65 65 0 0 1-64 64h-64V448h128zm0-384H128v-64a65 65 0 0 1 64-64h640a65 65 0 0 1 64 64z"/></svg>