<svg width="1024" height="1024" fill="none" xmlns="http://www.w3.org/2000/svg"><path d="M128 384h768v-64c-.661-18.005-6.997-33.003-19.008-44.992C864.981 263.019 849.984 256.683 832 256H192c-18.005.661-33.003 6.997-44.992 19.008C135.019 287.019 128.683 302.016 128 320v64Zm0 64v320c.661 18.005 6.997 33.003 19.008 44.992C159.019 824.981 174.016 831.317 192 832h64V448H128Zm192 384h384V448H320v384Zm448 0h64c18.005-.661 33.003-6.997 44.992-19.008C888.981 800.981 895.317 785.984 896 768V448H768v384ZM192 192h640c36.011.661 66.176 13.163 90.496 37.504C946.816 253.845 959.317 284.011 960 320v448c-.661 36.011-13.163 66.176-37.504 90.496C898.155 882.816 867.989 895.317 832 896H192c-36.011-.661-66.176-13.163-90.496-37.504C77.184 834.155 64.683 803.989 64 768V320c.661-36.011 13.163-66.176 37.504-90.496C125.845 205.184 156.011 192.683 192 192Zm192-64v64h256v-64H384Zm0-64h256c18.005.661 33.003 6.997 44.992 19.008C696.981 95.018 703.317 110.016 704 128v64c-.661 18.005-6.997 33.003-19.008 44.992C672.981 248.981 657.984 255.317 640 256H384c-18.005-.661-33.003-6.997-44.992-19.008C327.019 224.981 320.683 209.984 320 192v-64c.661-18.005 6.997-33.003 19.008-44.992C351.019 71.018 366.016 64.683 384 64Z" fill="#303133"/></svg>