<svg xmlns="http://www.w3.org/2000/svg" viewBox="0 0 1024 1024"><path fill="currentColor" d="M512 704a192 192 0 1 0 0-384 192 192 0 0 0 0 384m0 64a256 256 0 1 1 0-512 256 256 0 0 1 0 512m0-704a32 32 0 0 1 32 32v64a32 32 0 0 1-64 0V96a32 32 0 0 1 32-32m0 768a32 32 0 0 1 32 32v64a32 32 0 1 1-64 0v-64a32 32 0 0 1 32-32M195.2 195.2a32 32 0 0 1 45.2 0l45.3 45.2a32 32 0 1 1-45.3 45.3l-45.2-45.3a32 32 0 0 1 0-45.2m543.1 543.1a32 32 0 0 1 45.3 0l45.2 45.3a32 32 0 0 1-45.2 45.2l-45.3-45.2a32 32 0 0 1 0-45.3M64 512a32 32 0 0 1 32-32h64a32 32 0 0 1 0 64H96a32 32 0 0 1-32-32m768 0a32 32 0 0 1 32-32h64a32 32 0 1 1 0 64h-64a32 32 0 0 1-32-32M195.2 828.8a32 32 0 0 1 0-45.2l45.2-45.3a32 32 0 0 1 45.3 45.3l-45.3 45.2a32 32 0 0 1-45.2 0m543.1-543.1a32 32 0 0 1 0-45.3l45.3-45.2a32 32 0 0 1 45.2 45.2l-45.2 45.3a32 32 0 0 1-45.3 0"/></svg>