<svg xmlns="http://www.w3.org/2000/svg" xml:space="preserve" viewBox="0 0 1024 1024"><path fill="currentColor" d="M247.5 358.4a72.7 72.7 0 0 0 72.3 72.4c39.9 0 72.4-32.6 72.4-72.4S359.6 286 319.8 286s-72.3 32.6-72.3 72.4"/><path fill="currentColor" d="M492.4 128H324.7a197 197 0 0 0-139 57.6 197 197 0 0 0-57.7 139v374.1a197 197 0 0 0 121.4 181.8 197 197 0 0 0 75.3 15h167.7c3 0 5.4-2.5 5.4-5.5V133.4c.6-3-1.8-5.4-5.4-5.4m-56.1 705.9H324.7a132 132 0 0 1-95.4-39.9 134 134 0 0 1-39.8-95.3v-374c-.1-17.8 3.4-35.4 10.2-51.7a132 132 0 0 1 29.6-43.7 135 135 0 0 1 95.4-39.8h111.6zm402-647.7a197 197 0 0 0-139-57.6H580.5c-3 0-4.8 2.4-4.8 4.8v757.2c-.6 3 1.7 5.4 5.4 5.4h118.2a197 197 0 0 0 139-57.6 197 197 0 0 0 57.7-139V325.2a197 197 0 0 0-57.6-139M727 628c-42.8 0-77.8-35-77.8-77.8s35-77.8 77.8-77.8 77.8 35 77.8 77.8-35 77.8-77.8 77.8"/></svg>