<svg width="1024" height="1024" fill="none" xmlns="http://www.w3.org/2000/svg"><path d="M581.077 896c-3.626 0-6.016-2.432-5.418-5.419V133.419c0-2.39 1.792-4.822 4.821-4.822h118.827A196.694 196.694 0 0 1 896 325.291v374.016A196.694 196.694 0 0 1 699.307 896h-118.23Zm146.006-423.509c-42.838 0-77.824 34.986-77.824 77.824 0 42.837 34.986 77.824 77.824 77.824 42.837 0 77.824-34.987 77.824-77.824 0-42.838-34.987-77.824-77.824-77.824ZM247.467 358.4c0-39.808 32.554-72.363 72.362-72.363 39.851 0 72.406 32.555 72.406 72.363 0 39.851-32.555 72.405-72.406 72.405a72.615 72.615 0 0 1-72.362-72.362v-.043ZM492.373 128c3.627 0 6.059 2.432 5.462 5.419v756.608c0 2.986-2.432 5.418-5.462 5.418h-167.68a196.704 196.704 0 0 1-139.098-57.625A196.688 196.688 0 0 1 128 698.709V324.693A196.694 196.694 0 0 1 324.693 128h167.68Zm-56.106 705.877V189.525H324.693c-36.224 0-69.973 14.507-95.36 39.808a131.764 131.764 0 0 0-39.808 95.36v374.016c0 36.224 14.507 69.974 39.808 95.318a131.767 131.767 0 0 0 95.36 39.85h111.574Z" fill="#000"/></svg>