<svg xmlns="http://www.w3.org/2000/svg" viewBox="0 0 1024 1024"><path fill="currentColor" d="M128.896 736H96a32 32 0 0 1-32-32V224a32 32 0 0 1 32-32h576a32 32 0 0 1 32 32v96h164.544a32 32 0 0 1 31.616 27.136l54.144 352A32 32 0 0 1 922.688 736h-91.52a144 144 0 1 1-286.272 0H415.104a144 144 0 1 1-286.272 0zm23.36-64a143.872 143.872 0 0 1 239.488 0H568.32c17.088-25.6 42.24-45.376 71.744-55.808V256H128v416zm655.488 0h77.632l-19.648-128H704v64.896A144 144 0 0 1 807.744 672m48.128-192-14.72-96H704v96zM688 832a80 80 0 1 0 0-160 80 80 0 0 0 0 160m-416 0a80 80 0 1 0 0-160 80 80 0 0 0 0 160"/></svg>