<svg xmlns="http://www.w3.org/2000/svg" viewBox="0 0 1024 1024"><path fill="currentColor" d="M128.9 736H96a32 32 0 0 1-32-32V224a32 32 0 0 1 32-32h576a32 32 0 0 1 32 32v96h164.5a32 32 0 0 1 31.7 27.1l54.1 352a32 32 0 0 1-31.6 36.9h-91.5a144 144 0 1 1-286.3 0H415.1a144 144 0 1 1-286.3 0zm23.4-64a144 144 0 0 1 239.4 0h176.6c17.1-25.6 42.3-45.4 71.8-55.8V256H128v416zm655.4 0h77.7l-19.7-128H704v64.9A144 144 0 0 1 807.7 672M856 480l-14.7-96H704v96zM688 832a80 80 0 1 0 0-160 80 80 0 0 0 0 160m-416 0a80 80 0 1 0 0-160 80 80 0 0 0 0 160"/></svg>