<?xml version="1.0" standalone="no"?><!DOCTYPE svg PUBLIC "-//W3C//DTD SVG 1.1//EN" "http://www.w3.org/Graphics/SVG/1.1/DTD/svg11.dtd"><svg class="icon" width="200px" height="200.00px" viewBox="0 0 1024 1024" version="1.1" xmlns="http://www.w3.org/2000/svg"><path fill="#333333" d="M128 384v512h768V192h-128v64h-64V192H320v64H256V192H128v128h768v64H128z m192-256h384V64h64v64h192v832H64V128h192V64h64v64zM256 512h128v64H256V512z m0 192h128v64H256v-64z m192-192h128v64H448V512z m0 192h128v64H448v-64z m192-192h128v64h-128V512z m0 192h128v64h-128v-64z" /></svg>