<?xml version="1.0" standalone="no"?><!DOCTYPE svg PUBLIC "-//W3C//DTD SVG 1.1//EN" "http://www.w3.org/Graphics/SVG/1.1/DTD/svg11.dtd"><svg class="icon" width="200px" height="200.00px" viewBox="0 0 1024 1024" version="1.1" xmlns="http://www.w3.org/2000/svg"><path fill="#333333" d="M512 1024C229.216 1024 0 794.752 0 512 0 229.216 229.216 0 512 0s512 229.216 512 512c0 282.752-229.216 512-512 512z m209.856-720.896a48.448 48.448 0 0 0-68.416 0l-141.92 141.92-136.256-136.224a46.912 46.912 0 0 0-66.464 0 46.944 46.944 0 0 0 0 66.432l136.256 136.256-141.92 141.952a48.352 48.352 0 1 0 68.416 68.384l141.92-141.92 137.024 137.024a47.04 47.04 0 0 0 66.464-66.464l-137.024-137.024 141.92-141.92a48.448 48.448 0 0 0 0-68.416z" /></svg>