<?xml version="1.0" standalone="no"?><!DOCTYPE svg PUBLIC "-//W3C//DTD SVG 1.1//EN" "http://www.w3.org/Graphics/SVG/1.1/DTD/svg11.dtd"><svg class="icon" width="200px" height="200.00px" viewBox="0 0 1024 1024" version="1.1" xmlns="http://www.w3.org/2000/svg"><path fill="#333333" d="M512 2.27555555A509.72444445 509.72444445 0 1 1 512 1021.79726222 509.72444445 509.72444445 0 0 1 512 2.27555555z m76.45866667 312.9708089c37.86524445 0 68.59434667-26.28721778 68.59434666-65.2447289s-30.80192-65.24472889-68.59434666-65.24472888c-37.86524445 0-68.44871111 26.28721778-68.44871112 65.24472888s30.58346667 65.24472889 68.44871112 65.2447289z m13.32565333 409.74563555c0-7.79150222 2.69425778-28.03484445 1.16508445-39.54005333l-59.85621334 68.88561778c-12.37902222 13.03438222-27.88920889 22.06378667-35.17098666 19.6608a14.78200889 14.78200889 0 0 1-9.39349334-16.7480889l99.76035556-315.15534222c8.15559111-39.97696-14.27228445-76.45866667-61.82229334-81.11900444-50.17144889 0-124.00867555 50.89962667-168.93724444 115.48899556 0 7.71868445-1.45635555 26.94257778 0.07281778 38.44778666l59.78339555-68.95843556c12.37902222-12.88874667 26.79694222-21.99096889 34.07872-19.51516444a14.56355555 14.56355555 0 0 1 8.88376889 18.35008L371.46168889 758.41536c-11.43239111 36.70016 10.19448889 72.67214222 62.62328889 80.82773333 77.18684445 0 122.77077333-49.66172445 167.77216-114.25109333z" /></svg>