<?xml version="1.0" standalone="no"?><!DOCTYPE svg PUBLIC "-//W3C//DTD SVG 1.1//EN" "http://www.w3.org/Graphics/SVG/1.1/DTD/svg11.dtd"><svg class="icon" width="200px" height="200.00px" viewBox="0 0 1024 1024" version="1.1" xmlns="http://www.w3.org/2000/svg"><path fill="#333333" d="M480 64h64v256h-64V64z m0 640h64v256h-64v-256zM960 480v64h-256v-64h256z m-640 0v64H64v-64h256zM172.608 217.856l45.248-45.248 180.992 180.992-45.248 45.248-180.992-180.992z m452.48 452.48l45.312-45.184 180.992 180.992-45.248 45.248-180.992-180.992z m181.12-497.728l45.184 45.248-180.992 180.992-45.248-45.248 180.992-180.992z m-452.608 452.48l45.248 45.312-180.992 180.992-45.248-45.248 180.992-180.992z" /></svg>