<?xml version="1.0" standalone="no"?><!DOCTYPE svg PUBLIC "-//W3C//DTD SVG 1.1//EN" "http://www.w3.org/Graphics/SVG/1.1/DTD/svg11.dtd"><svg class="icon" width="200px" height="200.00px" viewBox="0 0 1024 1024" version="1.1" xmlns="http://www.w3.org/2000/svg"><path fill="#333333" d="M512 64a384 384 0 0 1 384 384c0 256-384 512-384 512s-384-256-384-512a384 384 0 0 1 384-384z m0 64C335.552 128 192 271.552 192 448c0 162.944 206.016 349.248 319.936 433.664C625.92 797.056 832 610.56 832 448c0-176.448-143.552-320-320-320z m0 128a192 192 0 1 1 0 384 192 192 0 0 1 0-384z m0 64c-70.592 0-128 57.408-128 128s57.408 128 128 128 128-57.408 128-128-57.408-128-128-128z" /></svg>