<?xml version="1.0" standalone="no"?><!DOCTYPE svg PUBLIC "-//W3C//DTD SVG 1.1//EN" "http://www.w3.org/Graphics/SVG/1.1/DTD/svg11.dtd"><svg class="icon" width="200px" height="200.00px" viewBox="0 0 1024 1024" version="1.1" xmlns="http://www.w3.org/2000/svg"><path fill="#333333" d="M64 416.96L607.04 960l316.736-135.744-203.584-203.648-90.496 45.248L358.08 394.24l45.376-90.496-203.712-203.648L64 416.96z m75.84-14.72l81.536-190.08 104.192 104.32-24.64 49.216-20.608 41.216 32.576 32.64 271.552 271.552 32.64 32.64 41.216-20.672 49.28-24.576 104.192 104.128-190.08 81.472-481.856-481.792zM512 320V256a256 256 0 0 1 256 256h-64a192 192 0 0 0-192-192z m0-192V64a448 448 0 0 1 448 448h-64a384 384 0 0 0-384-384z" /></svg>