<?xml version="1.0" standalone="no"?><!DOCTYPE svg PUBLIC "-//W3C//DTD SVG 1.1//EN" "http://www.w3.org/Graphics/SVG/1.1/DTD/svg11.dtd"><svg class="icon" width="200px" height="200.00px" viewBox="0 0 1024 1024" version="1.1" xmlns="http://www.w3.org/2000/svg"><path fill="#333333" d="M64 896V128h896v768H64z m64-128l192-192 116.352 116.352L640 448l256 307.2V192H128v576z m357.568-34.624l-44.864 53.76-49.536-49.536L320 666.56l-146.688 146.688-18.816 18.816h722.24l-19.2-23.04-217.6-260.992-154.368 185.344zM368 288a112 112 0 1 1-0.064 224.064A112 112 0 0 1 368 288z m0 64a48 48 0 1 0 0 96 48 48 0 0 0 0-96z" /></svg>