<?xml version="1.0" standalone="no"?><!DOCTYPE svg PUBLIC "-//W3C//DTD SVG 1.1//EN" "http://www.w3.org/Graphics/SVG/1.1/DTD/svg11.dtd"><svg class="icon" width="200px" height="200.00px" viewBox="0 0 1024 1024" version="1.1" xmlns="http://www.w3.org/2000/svg"><path fill="#333333" d="M186.496 544h290.816v293.568l-64.064-64-45.248 45.184L509.248 960l141.248-141.248-45.248-45.248-63.936 64V544H832l-64 64 45.248 45.248L954.496 512l-141.248-141.248L768 416l64 64H541.312V186.56l63.936 63.936 45.248-45.184L509.248 64 368 205.312l45.248 45.184 64.064-64V480H186.496l64-64-45.248-45.248L64 512l141.248 141.248 45.248-45.248-64-64z" /></svg>