<?xml version="1.0" standalone="no"?><!DOCTYPE svg PUBLIC "-//W3C//DTD SVG 1.1//EN" "http://www.w3.org/Graphics/SVG/1.1/DTD/svg11.dtd"><svg class="icon" width="200px" height="200.00px" viewBox="0 0 1024 1024" version="1.1" xmlns="http://www.w3.org/2000/svg"><path fill="#333333" d="M864 409.6a192 192 0 0 1-37.888 349.44A256.064 256.064 0 0 1 576 960H448v-64h128a192.064 192.064 0 0 0 181.12-128H704V384h64c10.368 0 20.544 0.832 30.528 2.432a288 288 0 0 0-573.056 0C235.52 384.832 245.632 384 256 384h64v384H256a192 192 0 0 1-96-358.4 352 352 0 0 1 704 0zM256 448a128 128 0 1 0 0 256V448z m640 128a128 128 0 0 0-128-128v256a128 128 0 0 0 128-128z" /></svg>