<?xml version="1.0" standalone="no"?><!DOCTYPE svg PUBLIC "-//W3C//DTD SVG 1.1//EN" "http://www.w3.org/Graphics/SVG/1.1/DTD/svg11.dtd"><svg class="icon" width="200px" height="200.00px" viewBox="0 0 1024 1024" version="1.1" xmlns="http://www.w3.org/2000/svg"><path fill="#333333" d="M625.152 64l221.696 128-43.136 74.688c14.976 17.6 28.8 36.608 40.768 57.28 11.968 20.736 21.504 42.24 29.248 64H960v256h-86.336a382.528 382.528 0 0 1-70.016 121.152l43.2 74.88-221.696 128-43.2-74.88a384.64 384.64 0 0 1-139.968 0.128l-43.136 74.688-221.696-128 43.136-74.688a385.408 385.408 0 0 1-40.768-57.28 389.952 389.952 0 0 1-29.248-64H64v-256h86.4A381.312 381.312 0 0 1 220.288 266.88L177.152 192l221.696-128 43.2 74.88a384.128 384.128 0 0 1 139.968-0.192L625.152 64z m23.424 87.424l-11.136 19.264-22.656 39.232-44.48-8.256a318.72 318.72 0 0 0-116.608 0.064l-44.48 8.32-22.592-39.232-11.2-19.392-110.848 64 11.2 19.392 22.592 39.168-29.376 34.368a320 320 0 0 0-58.368 100.928l-15.04 42.688H128v128H195.456l15.104 42.624c7.04 19.584 14.976 37.12 24.384 53.376s20.544 31.872 34.048 47.744l29.312 34.368-22.592 39.168-11.136 19.264 110.848 64 11.136-19.2 22.656-39.296 44.48 8.32a318.72 318.72 0 0 0 116.608-0.128l44.48-8.256 22.592 39.168 11.2 19.392 110.848-64-11.2-19.392-22.592-39.168 29.44-34.368a318.592 318.592 0 0 0 58.24-100.928l15.104-42.688h67.648v-128h-67.52l-15.168-42.624a316.864 316.864 0 0 0-24.32-53.376 322.624 322.624 0 0 0-34.048-47.744l-29.312-34.368 22.592-39.168 11.136-19.2-110.848-64zM512 291.968a224 224 0 1 1 0 448 224 224 0 0 1 0-448z m0 64c88.192 0 160 71.808 160 160s-71.808 160-160 160a160.192 160.192 0 0 1-160-160c0-88.192 71.808-160 160-160" /></svg>