<?xml version="1.0" standalone="no"?><!DOCTYPE svg PUBLIC "-//W3C//DTD SVG 1.1//EN" "http://www.w3.org/Graphics/SVG/1.1/DTD/svg11.dtd"><svg class="icon" width="200px" height="200.00px" viewBox="0 0 1024 1024" version="1.1" xmlns="http://www.w3.org/2000/svg"><path fill="#333333" d="M704 288h160l22.4 224h-64.384l-16-160H704v128h-64v-128H384v128H320v-128H217.92l-51.2 512H512v64H96l64-640H320v-22.336C320 154.688 405.504 64 512 64s192 90.688 192 201.664v22.4z m-64 0v-22.336C640 189.248 582.272 128 512 128c-70.272 0-128 61.248-128 137.664v22.4h256z m224 453.504l45.248 45.248L736 960l-173.248-173.248 45.248-45.248 96 96V576h64v261.504l96-96z" /></svg>