<?xml version="1.0" standalone="no"?><!DOCTYPE svg PUBLIC "-//W3C//DTD SVG 1.1//EN" "http://www.w3.org/Graphics/SVG/1.1/DTD/svg11.dtd"><svg class="icon" width="200px" height="200.00px" viewBox="0 0 1024 1024" version="1.1" xmlns="http://www.w3.org/2000/svg"><path fill="#333333" d="M565.504 896l213.984-0.128c135.744-4.064 244.544-115.936 244.544-253.312 0-139.968-112.896-253.44-252.192-253.44-2.592 0-5.184 0.032-7.744 0.128 0.064-2.592 0.128-5.184 0.128-7.808 0-139.968-112.896-253.44-252.192-253.44s-252.192 113.472-252.192 253.44c0 2.624 0.032 5.216 0.128 7.808-2.592-0.064-5.152-0.128-7.744-0.128-139.264 0-252.192 113.472-252.192 253.44 0 137.408 108.8 249.28 244.544 253.312l0 0.128 229.248 0 0-171.68-90.208 0c-25.504 0-34.816-17.28-20.832-38.592l140.064-213.44c8.992-13.696 24.352-14.144 33.632 0l140.064 213.44c13.952 21.248 4.672 38.592-20.832 38.592l-90.208 0 0 171.68z" /></svg>