<?xml version="1.0" standalone="no"?><!DOCTYPE svg PUBLIC "-//W3C//DTD SVG 1.1//EN" "http://www.w3.org/Graphics/SVG/1.1/DTD/svg11.dtd"><svg class="icon" width="200px" height="200.00px" viewBox="0 0 1024 1024" version="1.1" xmlns="http://www.w3.org/2000/svg"><path fill="#333333" d="M448 64a384 384 0 0 1 384 384 382.08 382.08 0 0 1-90.944 247.808l209.6 209.536a32.128 32.128 0 0 1-45.312 45.312l-209.536-209.6A382.08 382.08 0 0 1 448 832 384 384 0 0 1 448 64z m0 704a320 320 0 1 0-0.064-640.064A320 320 0 0 0 448 768z m224-352v64h-192v192h-64v-192h-192v-64h192v-192h64v192h192z" /></svg>