<?xml version="1.0" standalone="no"?><!DOCTYPE svg PUBLIC "-//W3C//DTD SVG 1.1//EN" "http://www.w3.org/Graphics/SVG/1.1/DTD/svg11.dtd"><svg class="icon" width="200px" height="200.00px" viewBox="0 0 1024 1024" version="1.1" xmlns="http://www.w3.org/2000/svg"><path fill="#333333" d="M512 896A384 384 0 1 0 512 128a384 384 0 0 0 0 768z m0 64A448 448 0 1 1 512 64a448 448 0 0 1 0 896z"  /><path fill="#333333" d="M512 96a32 32 0 0 1 32 32v192a32 32 0 0 1-64 0V128a32 32 0 0 1 32-32z m0 576a32 32 0 0 1 32 32v192a32 32 0 1 1-64 0v-192a32 32 0 0 1 32-32zM96 512a32 32 0 0 1 32-32h192a32 32 0 0 1 0 64H128a32 32 0 0 1-32-32z m576 0a32 32 0 0 1 32-32h192a32 32 0 1 1 0 64h-192a32 32 0 0 1-32-32z"  /></svg>