<?xml version="1.0" standalone="no"?><!DOCTYPE svg PUBLIC "-//W3C//DTD SVG 1.1//EN" "http://www.w3.org/Graphics/SVG/1.1/DTD/svg11.dtd"><svg class="icon" width="200px" height="200.00px" viewBox="0 0 1024 1024" version="1.1" xmlns="http://www.w3.org/2000/svg"><path fill="#333333" d="M512 896A384 384 0 1 0 512 128a384 384 0 0 0 0 768z m0 64A448 448 0 1 1 512 64a448 448 0 0 1 0 896zM512 704a192 192 0 1 0 0-384 192 192 0 0 0 0 384z m0 64a256 256 0 1 1 0-512 256 256 0 0 1 0 512zM623.232 355.456l160.32-160.256 45.248 45.248-160.256 160.32a193.28 193.28 0 0 0-45.312-45.312z m45.312 267.776l160.256 160.32-45.248 45.248-160.32-160.256a193.28 193.28 0 0 0 45.312-45.312z m-267.776 45.312L240.448 828.8l-45.248-45.248 160.256-160.32a193.28 193.28 0 0 0 45.312 45.312z m-45.312-267.776L195.2 240.448l45.248-45.248 160.32 160.256a193.28 193.28 0 0 0-45.312 45.312z" /></svg>