<?xml version="1.0" standalone="no"?><!DOCTYPE svg PUBLIC "-//W3C//DTD SVG 1.1//EN" "http://www.w3.org/Graphics/SVG/1.1/DTD/svg11.dtd"><svg class="icon" width="200px" height="200.00px" viewBox="0 0 1024 1024" version="1.1" xmlns="http://www.w3.org/2000/svg"><path fill="#333333" d="M896 324.096c0-42.368-2.496-55.296-9.536-68.48a52.352 52.352 0 0 0-22.144-22.08c-13.12-7.04-26.048-9.536-68.416-9.536H228.096c-42.368 0-55.296 2.496-68.48 9.536a52.352 52.352 0 0 0-22.08 22.144C130.496 268.8 128 281.728 128 324.096v375.808c0 42.368 2.496 55.296 9.536 68.48a52.352 52.352 0 0 0 22.144 22.08c13.12 7.04 26.048 9.536 68.416 9.536h567.808c42.368 0 55.296-2.496 68.48-9.536a52.352 52.352 0 0 0 22.08-22.144c7.04-13.12 9.536-26.048 9.536-68.416V324.096z m64 0v375.808c0 57.088-5.952 77.76-17.088 98.56-11.136 20.928-27.52 37.312-48.384 48.448-20.864 11.136-41.6 17.088-98.56 17.088H228.032c-57.088 0-77.76-5.952-98.56-17.088a116.288 116.288 0 0 1-48.448-48.384c-11.136-20.864-17.088-41.6-17.088-98.56V324.032c0-57.088 5.952-77.76 17.088-98.56 11.136-20.928 27.52-37.312 48.384-48.448 20.864-11.136 41.6-17.088 98.56-17.088h567.872c57.088 0 77.76 5.952 98.56 17.088 20.928 11.136 37.312 27.52 48.448 48.384 11.136 20.864 17.088 41.6 17.088 98.56z"  /><path fill="#333333" d="M64 320h896v64H64V320z m0 128h896v64H64V448zM192 640h256v64H192z"  /></svg>