<?xml version="1.0" standalone="no"?><!DOCTYPE svg PUBLIC "-//W3C//DTD SVG 1.1//EN" "http://www.w3.org/Graphics/SVG/1.1/DTD/svg11.dtd"><svg class="icon" width="200px" height="200.00px" viewBox="0 0 1024 1024" version="1.1" xmlns="http://www.w3.org/2000/svg"><path fill="#333333" d="M778.752 788.224a382.464 382.464 0 0 0 116.032-245.632 256.512 256.512 0 0 0-241.728-13.952 762.88 762.88 0 0 1 125.696 259.584z m-55.04 44.224a699.648 699.648 0 0 0-125.056-269.632 256.128 256.128 0 0 0-56.064 331.968 382.72 382.72 0 0 0 181.12-62.336z m-254.08 61.248a320.128 320.128 0 0 1 88.128-380.096 715.84 715.84 0 0 0-48.192-48.128 320.128 320.128 0 0 1-379.264 88.384 382.4 382.4 0 0 0 110.144 229.696 382.4 382.4 0 0 0 229.184 110.08zM129.28 481.088a256.128 256.128 0 0 0 331.072-56.448 699.648 699.648 0 0 0-268.8-124.352 382.656 382.656 0 0 0-62.272 180.8z m106.56-235.84a762.88 762.88 0 0 1 258.688 125.056 256.512 256.512 0 0 0-13.44-241.088 382.464 382.464 0 0 0-245.248 116.032z m318.08-114.944c40.576 89.536 37.76 193.92-8.448 281.344a779.84 779.84 0 0 1 66.176 66.112 320.832 320.832 0 0 1 282.112-8.128 382.4 382.4 0 0 0-110.144-229.12 382.4 382.4 0 0 0-229.632-110.208zM828.8 828.8a448 448 0 1 1-633.6-633.6 448 448 0 0 1 633.6 633.6z"  /></svg>