<?xml version="1.0" standalone="no"?><!DOCTYPE svg PUBLIC "-//W3C//DTD SVG 1.1//EN" "http://www.w3.org/Graphics/SVG/1.1/DTD/svg11.dtd"><svg class="icon" width="200px" height="200.00px" viewBox="0 0 1024 1024" version="1.1" xmlns="http://www.w3.org/2000/svg"><path fill="#333333" d="M256 832a128 128 0 1 0 0-256 128 128 0 0 0 0 256z m0 64a192 192 0 1 1 0-384 192 192 0 0 1 0 384z"  /><path fill="#333333" d="M256 672m32 0l320 0q32 0 32 32l0 0q0 32-32 32l-320 0q-32 0-32-32l0 0q0-32 32-32Z"  /><path fill="#333333" d="M768 832a128 128 0 1 0 0-256 128 128 0 0 0 0 256z m0 64a192 192 0 1 1 0-384 192 192 0 0 1 0 384z"  /><path fill="#333333" d="M480 192a32 32 0 0 1 0-64H640a32 32 0 0 1 31.04 24.256l96 384a32 32 0 0 1-62.08 15.488L615.04 192H480zM96 384a32 32 0 0 1 0-64h128a32 32 0 0 1 30.336 21.888l64 192a32 32 0 1 1-60.672 20.224L200.96 384H96z"  /><path fill="#333333" d="M373.376 599.808l-42.752-47.616 320-288 42.752 47.616z"  /></svg>