<?xml version="1.0" standalone="no"?><!DOCTYPE svg PUBLIC "-//W3C//DTD SVG 1.1//EN" "http://www.w3.org/Graphics/SVG/1.1/DTD/svg11.dtd"><svg class="icon" width="200px" height="200.00px" viewBox="0 0 1024 1024" version="1.1" xmlns="http://www.w3.org/2000/svg"><path fill="#333333" d="M896 448H128v192a64 64 0 0 0 64 64h192v192h256v-192h192a64 64 0 0 0 64-64V448zM125.248 384c0-47.552 5.248-90.24 15.552-128 14.72-54.016 42.496-107.392 83.2-160h417.28l-15.36 70.336L736 96h211.2c-24.832 42.88-41.92 96.256-51.2 160a663.872 663.872 0 0 0-6.144 128H960v256a128 128 0 0 1-128 128h-128v160a32 32 0 0 1-32 32h-320a32 32 0 0 1-32-32V768H192a128 128 0 0 1-128-128V384h61.248z m64 0h636.544c-2.048-45.824 0.256-91.584 6.848-137.216 4.48-30.848 10.688-59.776 18.688-86.784h-96.64L533.568 301.248 561.92 160H256.512c-25.856 37.888-43.776 75.456-53.952 112.832-8.768 32.064-13.248 69.12-13.312 111.168z" /></svg>