<?xml version="1.0" standalone="no"?><!DOCTYPE svg PUBLIC "-//W3C//DTD SVG 1.1//EN" "http://www.w3.org/Graphics/SVG/1.1/DTD/svg11.dtd"><svg class="icon" width="200px" height="200.00px" viewBox="0 0 1024 1024" version="1.1" xmlns="http://www.w3.org/2000/svg"><path fill="#333333" d="M160 512a32 32 0 0 0-32 32v64a32 32 0 0 0 30.08 32H864a32 32 0 0 0 32-32v-64a32 32 0 0 0-32-32h-704zM896 453.44A96 96 0 0 1 960 544v64a96 96 0 0 1-51.968 85.312l-52.672 140.288a96 96 0 0 1-89.856 62.272H258.496a96 96 0 0 1-89.856-62.272l-52.608-140.224A96 96 0 0 1 64 608v-64a96 96 0 0 1 64-90.56V448a384 384 0 1 1 768 5.44zM832 448A320 320 0 0 0 192 448h640z m-320 256H188.352l40.192 107.136a32 32 0 0 0 29.952 20.736h507.008a32 32 0 0 0 29.952-20.736L835.648 704 512 704z" /></svg>