<?xml version="1.0" standalone="no"?><!DOCTYPE svg PUBLIC "-//W3C//DTD SVG 1.1//EN" "http://www.w3.org/Graphics/SVG/1.1/DTD/svg11.dtd"><svg class="icon" width="200px" height="200.00px" viewBox="0 0 1024 1024" version="1.1" xmlns="http://www.w3.org/2000/svg"><path fill="#333333" d="M813.176471 180.705882a60.235294 60.235294 0 0 1 60.235294 60.235294v481.882353a60.235294 60.235294 0 0 1-60.235294 60.235295H210.823529a60.235294 60.235294 0 0 1-60.235294-60.235295V240.941176a60.235294 60.235294 0 0 1 60.235294-60.235294h602.352942z m0-60.235294H210.823529a120.470588 120.470588 0 0 0-120.470588 120.470588v481.882353a120.470588 120.470588 0 0 0 120.470588 120.470589h602.352942a120.470588 120.470588 0 0 0 120.470588-120.470589V240.941176a120.470588 120.470588 0 0 0-120.470588-120.470588zM692.705882 301.176471a30.117647 30.117647 0 0 0-30.117647 30.117647v301.17647a30.117647 30.117647 0 0 0 60.235294 0v-301.17647A30.117647 30.117647 0 0 0 692.705882 301.176471zM331.294118 301.176471a30.117647 30.117647 0 0 0-30.117647 30.117647v301.17647a30.117647 30.117647 0 1 0 60.235294 0v-301.17647A30.117647 30.117647 0 0 0 331.294118 301.176471z m180.705882 60.235294a30.117647 30.117647 0 0 0-30.117647 30.117647V421.647059a30.117647 30.117647 0 0 0 60.235294 0v-30.117647A30.117647 30.117647 0 0 0 512 361.411765z m0 150.588235a30.117647 30.117647 0 0 0-30.117647 30.117647v30.117647a30.117647 30.117647 0 0 0 60.235294 0V542.117647a30.117647 30.117647 0 0 0-30.117647-30.117647z" /></svg>