<?xml version="1.0" standalone="no"?><!DOCTYPE svg PUBLIC "-//W3C//DTD SVG 1.1//EN" "http://www.w3.org/Graphics/SVG/1.1/DTD/svg11.dtd"><svg class="icon" width="200px" height="200.00px" viewBox="0 0 1024 1024" version="1.1" xmlns="http://www.w3.org/2000/svg"><path fill="#333333" d="M896 256H128v576h768V256z m-199.424-64l-32.064-64H359.552l-32 64h369.024zM96 192H256l46.336-92.608A64 64 0 0 1 359.552 64h304.96a64 64 0 0 1 57.216 35.328L768.192 192H928a32 32 0 0 1 32 32v640a32 32 0 0 1-32 32h-832a32 32 0 0 1-32-32v-640a32 32 0 0 1 32-32zM512 704a160 160 0 1 0 0-320 160 160 0 0 0 0 320z m0 64a224 224 0 1 1 0-448 224 224 0 0 1 0 448z" /></svg>