<?xml version="1.0" standalone="no"?><!DOCTYPE svg PUBLIC "-//W3C//DTD SVG 1.1//EN" "http://www.w3.org/Graphics/SVG/1.1/DTD/svg11.dtd"><svg class="icon" width="200px" height="200.00px" viewBox="0 0 1024 1024" version="1.1" xmlns="http://www.w3.org/2000/svg"><path fill="#333333" d="M174.72 855.68l130.048-43.392 23.424 11.392c54.208 26.304 116.16 40.32 183.808 40.32 223.744 0 384-159.872 384-352 0-192.832-159.104-352-384-352S128 319.168 128 512a341.12 341.12 0 0 0 69.248 204.288l21.632 28.8-44.16 110.528z m-45.248 82.56A32 32 0 0 1 89.6 896l56.512-141.248A405.12 405.12 0 0 1 64 512c0-212.096 171.648-416 448-416s448 203.904 448 416-173.44 416-448 416c-79.68 0-150.848-17.152-211.712-46.72l-170.88 56.96z" /></svg>