<?xml version="1.0" standalone="no"?><!DOCTYPE svg PUBLIC "-//W3C//DTD SVG 1.1//EN" "http://www.w3.org/Graphics/SVG/1.1/DTD/svg11.dtd"><svg class="icon" width="200px" height="200.00px" viewBox="0 0 1024 1024" version="1.1" xmlns="http://www.w3.org/2000/svg"><path fill="#333333" d="M273.536 736H800a64 64 0 0 0 64-64V256a64 64 0 0 0-64-64h-576a64 64 0 0 0-64 64v570.88l113.536-90.88z m22.464 64l-148.032 118.4a32 32 0 0 1-51.968-24.96V256a128 128 0 0 1 128-128h576a128 128 0 0 1 128 128v416a128 128 0 0 1-128 128H296z"  /><path fill="#333333" d="M512 499.2a51.2 51.2 0 1 1 0-102.4 51.2 51.2 0 0 1 0 102.4z m192 0a51.2 51.2 0 1 1 0-102.4 51.2 51.2 0 0 1 0 102.4z m-384 0a51.2 51.2 0 1 1 0-102.4 51.2 51.2 0 0 1 0 102.4z"  /></svg>