<?xml version="1.0" standalone="no"?><!DOCTYPE svg PUBLIC "-//W3C//DTD SVG 1.1//EN" "http://www.w3.org/Graphics/SVG/1.1/DTD/svg11.dtd"><svg class="icon" width="200px" height="200.00px" viewBox="0 0 1024 1024" version="1.1" xmlns="http://www.w3.org/2000/svg"><path fill="#333333" d="M349.952 716.992L478.72 588.16a106.688 106.688 0 0 1-26.176-19.072 106.688 106.688 0 0 1-19.072-26.176l-128.768 128.832c0.768 3.072 1.472 6.144 2.048 9.216l2.048 31.936 31.872 1.984c3.136 0.64 6.208 1.28 9.28 2.112z m57.344 33.152a128 128 0 1 1-216.32 114.432l-1.92-32-32-1.92a128 128 0 1 1 114.432-216.32L416.64 469.248c-2.432-101.44 58.112-239.104 149.056-330.048 107.328-107.328 231.296-85.504 316.8 0 85.44 85.44 107.328 209.408 0 316.8-91.008 90.88-228.672 151.424-330.112 149.056L407.296 750.08z m90.496-226.304c49.536 49.536 233.344-7.04 339.392-113.088 78.208-78.208 63.232-163.072 0-226.304-63.168-63.232-148.032-78.208-226.24 0-106.048 106.048-162.624 289.92-113.152 339.392z m-252.928 185.088a64 64 0 1 0-59.84 59.84l56.32-3.52 3.52-56.32z m8.064 127.68a64 64 0 1 0 59.84-59.84l-56.32 3.52-3.52 56.32z" /></svg>