<?xml version="1.0" standalone="no"?><!DOCTYPE svg PUBLIC "-//W3C//DTD SVG 1.1//EN" "http://www.w3.org/Graphics/SVG/1.1/DTD/svg11.dtd"><svg class="icon" width="200px" height="200.00px" viewBox="0 0 1024 1024" version="1.1" xmlns="http://www.w3.org/2000/svg"><path fill="#333333" d="M512 64a448 448 0 1 1 0 896A448 448 0 0 1 512 64z m0 393.664L407.936 353.6a38.4 38.4 0 1 0-54.336 54.336L457.664 512 353.6 616.064a38.4 38.4 0 1 0 54.336 54.336L512 566.336l104.064 104.064a38.4 38.4 0 1 0 54.336-54.336L566.336 512l104.064-104.064a38.4 38.4 0 1 0-54.336-54.336L512 457.664z" /></svg>