<?xml version="1.0" standalone="no"?><!DOCTYPE svg PUBLIC "-//W3C//DTD SVG 1.1//EN" "http://www.w3.org/Graphics/SVG/1.1/DTD/svg11.dtd"><svg class="icon" width="200px" height="200.00px" viewBox="0 0 1024 1024" version="1.1" xmlns="http://www.w3.org/2000/svg"><path fill="#333333" d="M598.4 895.872H328.192a256 256 0 0 1-34.496-510.528 352 352 0 1 1 304.704 510.528z m-271.36-64h272.256a288 288 0 1 0-248.512-417.664l-15.744 31.232-34.816 3.584a192 192 0 0 0 26.88 382.848z"  /><path fill="#333333" d="M139.84 501.888a256 256 0 1 1 417.856-277.12c-17.728 2.176-38.208 8.448-61.504 18.816a192 192 0 1 0-307.072 216.896 6003.84 6003.84 0 0 0-49.28 41.408z"  /></svg>