<?xml version="1.0" standalone="no"?><!DOCTYPE svg PUBLIC "-//W3C//DTD SVG 1.1//EN" "http://www.w3.org/Graphics/SVG/1.1/DTD/svg11.dtd"><svg class="icon" width="200px" height="200.00px" viewBox="0 0 1024 1024" version="1.1" xmlns="http://www.w3.org/2000/svg"><path fill="#333333" d="M737.216 357.952L704 349.824l-11.776-32a192.064 192.064 0 0 0-367.424 23.04l-8.96 39.04-39.04 8.96A192.064 192.064 0 0 0 320 768h368a207.808 207.808 0 0 0 207.808-208 208.32 208.32 0 0 0-158.592-202.048z m15.168-62.208a272.32 272.32 0 0 1 207.36 264.256A271.808 271.808 0 0 1 688.192 832H320a256 256 0 0 1-57.536-505.536 256.128 256.128 0 0 1 489.92-30.72z" /></svg>