<?xml version="1.0" standalone="no"?><!DOCTYPE svg PUBLIC "-//W3C//DTD SVG 1.1//EN" "http://www.w3.org/Graphics/SVG/1.1/DTD/svg11.dtd"><svg class="icon" width="200px" height="200.00px" viewBox="0 0 1024 1024" version="1.1" xmlns="http://www.w3.org/2000/svg"><path fill="#333333" d="M768 192a192 192 0 1 1-8 383.808A256.128 256.128 0 0 1 512 768H320a256 256 0 0 1-256-256V160a32 32 0 0 1 32-32h640a32 32 0 0 1 32 32V192z m0 64v256a128 128 0 1 0 0-256zM96 832h640a32 32 0 1 1 0 64h-640a32 32 0 1 1 0-64zM128 192v320a192 192 0 0 0 192 192h192a192 192 0 0 0 192-192V192H128z" /></svg>