<?xml version="1.0" standalone="no"?><!DOCTYPE svg PUBLIC "-//W3C//DTD SVG 1.1//EN" "http://www.w3.org/Graphics/SVG/1.1/DTD/svg11.dtd"><svg class="icon" width="200px" height="200.00px" viewBox="0 0 1024 1024" version="1.1" xmlns="http://www.w3.org/2000/svg"><path fill="#333333" d="M822.592 192h14.272a32 32 0 0 1 31.616 26.752l21.312 128A32 32 0 0 1 858.24 384h-49.344l-39.04 546.304a32 32 0 0 1-31.936 29.696H285.824a32 32 0 0 1-32-29.696L214.912 384H165.76a32 32 0 0 1-31.552-37.248l21.312-128A32 32 0 0 1 187.136 192h14.016l-6.72-93.696A32 32 0 0 1 226.368 64h571.008a32 32 0 0 1 31.936 34.304L822.592 192z m-64.128 0l4.544-64H260.736l4.544 64h493.184zM210.304 320h610.176l-10.688-64H214.208L203.52 320h6.784zM279.04 384l36.544 512h392.576l36.544-512H279.04z" /></svg>