<?xml version="1.0" standalone="no"?><!DOCTYPE svg PUBLIC "-//W3C//DTD SVG 1.1//EN" "http://www.w3.org/Graphics/SVG/1.1/DTD/svg11.dtd"><svg class="icon" width="200px" height="200.00px" viewBox="0 0 1024 1024" version="1.1" xmlns="http://www.w3.org/2000/svg"><path fill="#333333" d="M161.92 580.736l29.888 58.88c-20.48 20.16-31.808 42.112-31.808 64.384 0 82.304 155.328 160 352 160s352-77.696 352-160c0-22.272-11.392-44.16-31.808-64.32l30.464-58.432c41.28 34.56 65.344 76.416 65.344 122.752 0 129.728-188.544 224-416 224S96 833.728 96 704c0-46.592 24.32-88.576 65.92-123.264z"  /><path fill="#333333" d="M161.92 388.736l29.888 58.88C171.328 467.84 160 489.792 160 512c0 82.304 155.328 160 352 160s352-77.696 352-160c0-22.272-11.392-44.16-31.808-64.32l30.464-58.432C903.936 423.808 928 465.664 928 512c0 129.728-188.544 224-416 224S96 641.728 96 512c0-46.592 24.32-88.576 65.92-123.264z"  /><path fill="#333333" d="M512 544C284.544 544 96 449.728 96 320S284.544 96 512 96s416 94.272 416 224S739.456 544 512 544z m0-64c196.672 0 352-77.696 352-160S708.672 160 512 160 160 237.696 160 320 315.328 480 512 480z"  /></svg>