<?xml version="1.0" standalone="no"?><!DOCTYPE svg PUBLIC "-//W3C//DTD SVG 1.1//EN" "http://www.w3.org/Graphics/SVG/1.1/DTD/svg11.dtd"><svg class="icon" width="200px" height="200.00px" viewBox="0 0 1024 1024" version="1.1" xmlns="http://www.w3.org/2000/svg"><path fill="#333333" d="M768 64a192 192 0 1 1-69.952 370.88L480 725.376V896H576a32 32 0 1 1 0 64H320a32 32 0 1 1 0-64h96v-170.624l-339.2-451.84a64 64 0 0 1-12.8-38.4v-10.688a32 32 0 0 1 32-32h71.808l-65.536-83.84a32 32 0 0 1 50.432-39.424L248.96 192.448h337.728A192.064 192.064 0 0 1 768 64z m-111.104 128.448H800a32 32 0 0 1 32 32v10.624a64 64 0 0 1-12.8 38.4l-80.448 107.2a128 128 0 1 0-81.92-188.16v-0.064z m-357.888 64l129.472 165.76a32 32 0 0 1-50.432 39.36L217.792 256.448H144L448 661.376l304-404.928H299.008z" /></svg>