<?xml version="1.0" standalone="no"?><!DOCTYPE svg PUBLIC "-//W3C//DTD SVG 1.1//EN" "http://www.w3.org/Graphics/SVG/1.1/DTD/svg11.dtd"><svg class="icon" width="200px" height="200.00px" viewBox="0 0 1024 1024" version="1.1" xmlns="http://www.w3.org/2000/svg"><path fill="#333333" d="M192 736h640V128H256a64 64 0 0 0-64 64v544zM256 64h608a32 32 0 0 1 32 32V768a32 32 0 0 1-32 32h-704l-32 57.536V192a128 128 0 0 1 128-128z"  /><path fill="#333333" d="M240 800a48 48 0 1 0 0 96H832v-96H240z m0-64H896V896a64 64 0 0 1-64 64H240a112 112 0 0 1 0-224zM384 128v250.88l96-76.8L576 378.88V128H384zM320 64h320v381.44a32 32 0 0 1-51.968 24.96L480 384 371.968 470.4A32 32 0 0 1 320 445.44V64z"  /></svg>