<?xml version="1.0" standalone="no"?><!DOCTYPE svg PUBLIC "-//W3C//DTD SVG 1.1//EN" "http://www.w3.org/Graphics/SVG/1.1/DTD/svg11.dtd"><svg class="icon" width="200px" height="200.00px" viewBox="0 0 1024 1024" version="1.1" xmlns="http://www.w3.org/2000/svg"><path fill="#333333" d="M256 128v698.88l196.032-156.864a96 96 0 0 1 119.936 0L768 826.816V128H256z m-32-64h576a32 32 0 0 1 32 32v797.44a32 32 0 0 1-51.968 24.96l-248.064-198.4a32 32 0 0 0-39.936 0l-248.064 198.4A32 32 0 0 1 192 893.44V96a32 32 0 0 1 32-32z" /></svg>