<?xml version="1.0" standalone="no"?><!DOCTYPE svg PUBLIC "-//W3C//DTD SVG 1.1//EN" "http://www.w3.org/Graphics/SVG/1.1/DTD/svg11.dtd"><svg class="icon" width="200px" height="200.00px" viewBox="0 0 1024 1024" version="1.1" xmlns="http://www.w3.org/2000/svg"><path fill="#333333" d="M640 384v64H448a128 128 0 0 0-128 128v128a128 128 0 0 0 128 128h320a128 128 0 0 0 128-128V576a128 128 0 0 0-64-110.848V394.88c74.56 26.368 128 97.472 128 181.056v128a192 192 0 0 1-192 192H448a192 192 0 0 1-192-192V576a192 192 0 0 1 192-192h192z"  /><path fill="#333333" d="M384 640V576h192a128 128 0 0 0 128-128V320a128 128 0 0 0-128-128H256a128 128 0 0 0-128 128v128a128 128 0 0 0 64 110.848V629.12A192.064 192.064 0 0 1 64 448V320a192 192 0 0 1 192-192h320a192 192 0 0 1 192 192v128a192 192 0 0 1-192 192H384z"  /></svg>