<?xml version="1.0" standalone="no"?><!DOCTYPE svg PUBLIC "-//W3C//DTD SVG 1.1//EN" "http://www.w3.org/Graphics/SVG/1.1/DTD/svg11.dtd"><svg class="icon" width="200px" height="200.00px" viewBox="0 0 1024 1024" version="1.1" xmlns="http://www.w3.org/2000/svg"><path fill="#333333" d="M320 256a64 64 0 0 0-64 64v384a64 64 0 0 0 64 64h384a64 64 0 0 0 64-64V320a64 64 0 0 0-64-64H320z m0-64h384a128 128 0 0 1 128 128v384a128 128 0 0 1-128 128H320a128 128 0 0 1-128-128V320a128 128 0 0 1 128-128z"  /><path fill="#333333" d="M512 64a32 32 0 0 1 32 32v128h-64v-128A32 32 0 0 1 512 64z m160 0a32 32 0 0 1 32 32v128h-64v-128a32 32 0 0 1 32-32z m-320 0a32 32 0 0 1 32 32v128H320v-128a32 32 0 0 1 32-32zM512 960a32 32 0 0 1-32-32v-128h64v128a32 32 0 0 1-32 32z m160 0a32 32 0 0 1-32-32v-128h64v128a32 32 0 0 1-32 32z m-320 0a32 32 0 0 1-32-32v-128h64v128a32 32 0 0 1-32 32zM64 512a32 32 0 0 1 32-32h128v64h-128A32 32 0 0 1 64 512z m0-160a32 32 0 0 1 32-32h128v64h-128a32 32 0 0 1-32-32z m0 320a32 32 0 0 1 32-32h128v64h-128a32 32 0 0 1-32-32zM960 512a32 32 0 0 1-32 32h-128v-64h128a32 32 0 0 1 32 32z m0-160a32 32 0 0 1-32 32h-128V320h128a32 32 0 0 1 32 32z m0 320a32 32 0 0 1-32 32h-128v-64h128a32 32 0 0 1 32 32z"  /></svg>