<?xml version="1.0" standalone="no"?><!DOCTYPE svg PUBLIC "-//W3C//DTD SVG 1.1//EN" "http://www.w3.org/Graphics/SVG/1.1/DTD/svg11.dtd"><svg class="icon" width="200px" height="200.00px" viewBox="0 0 1024 1024" version="1.1" xmlns="http://www.w3.org/2000/svg"><path fill="#333333" d="M452.864 149.312a29.12 29.12 0 0 1 41.728 0.064l331.648 340.288a32 32 0 0 1 0 44.672l-331.648 340.288a29.12 29.12 0 0 1-41.728 0 30.592 30.592 0 0 1 0-42.752L764.736 512 452.864 192a30.592 30.592 0 0 1 0-42.688z m-256 0a29.12 29.12 0 0 1 41.728 0.064L570.24 489.664a32 32 0 0 1 0 44.672l-331.648 340.288a29.12 29.12 0 0 1-41.728 0 30.592 30.592 0 0 1 0-42.752L508.736 512 196.864 192a30.592 30.592 0 0 1 0-42.688z" /></svg>