<?xml version="1.0" standalone="no"?><!DOCTYPE svg PUBLIC "-//W3C//DTD SVG 1.1//EN" "http://www.w3.org/Graphics/SVG/1.1/DTD/svg11.dtd"><svg class="icon" width="200px" height="200.00px" viewBox="0 0 1024 1024" version="1.1" xmlns="http://www.w3.org/2000/svg"><path fill="#333333" d="M359.168 768H160a32 32 0 0 1-32-32V192H64a32 32 0 0 1 0-64h896a32 32 0 1 1 0 64h-64v544a32 32 0 0 1-32 32h-198.784l110.848 192h-73.856L591.36 768H433.024l-110.848 192H248.32l110.848-192zM832 192H192v512h640V192zM342.656 534.656a32 32 0 1 1-45.312-45.312L444.992 341.76l125.44 94.08 108.608-135.808a32 32 0 1 1 49.92 39.936L581.632 524.224 451.008 426.24 342.656 534.592z" /></svg>