<?xml version="1.0" standalone="no"?><!DOCTYPE svg PUBLIC "-//W3C//DTD SVG 1.1//EN" "http://www.w3.org/Graphics/SVG/1.1/DTD/svg11.dtd"><svg class="icon" width="200px" height="200.00px" viewBox="0 0 1024 1024" version="1.1" xmlns="http://www.w3.org/2000/svg"><path fill="#333333" d="M665.216 768l110.848 192h-73.856L591.36 768H433.024l-110.848 192H248.32l110.848-192H160a32 32 0 0 1-32-32V192H64a32 32 0 0 1 0-64h896a32 32 0 1 1 0 64h-64v544a32 32 0 0 1-32 32h-198.784zM832 192H192v512h640V192zM352 448a32 32 0 0 1 32 32v64a32 32 0 0 1-64 0v-64a32 32 0 0 1 32-32zM512 384a32 32 0 0 1 32 32v128a32 32 0 0 1-64 0v-128A32 32 0 0 1 512 384z m160-64a32 32 0 0 1 32 32v192a32 32 0 1 1-64 0v-192a32 32 0 0 1 32-32z" /></svg>