<?xml version="1.0" standalone="no"?><!DOCTYPE svg PUBLIC "-//W3C//DTD SVG 1.1//EN" "http://www.w3.org/Graphics/SVG/1.1/DTD/svg11.dtd"><svg class="icon" width="200px" height="200.00px" viewBox="0 0 1024 1024" version="1.1" xmlns="http://www.w3.org/2000/svg"><path fill="#333333" d="M128 384v512h768V192h-128v32a32 32 0 1 1-64 0V192H320v32a32 32 0 0 1-64 0V192H128v128h768v64H128z m192-256h384v-32a32 32 0 1 1 64 0V128h160a32 32 0 0 1 32 32v768a32 32 0 0 1-32 32h-832a32 32 0 0 1-32-32v-768a32 32 0 0 1 32-32H256v-32a32 32 0 0 1 64 0V128z m-32 384h64a32 32 0 0 1 0 64h-64a32 32 0 0 1 0-64z m0 192h64a32 32 0 1 1 0 64h-64a32 32 0 1 1 0-64z m192-192h64a32 32 0 0 1 0 64h-64a32 32 0 0 1 0-64z m0 192h64a32 32 0 1 1 0 64h-64a32 32 0 1 1 0-64z m192-192h64a32 32 0 1 1 0 64h-64a32 32 0 1 1 0-64z m0 192h64a32 32 0 1 1 0 64h-64a32 32 0 1 1 0-64z" /></svg>