<?xml version="1.0" standalone="no"?><!DOCTYPE svg PUBLIC "-//W3C//DTD SVG 1.1//EN" "http://www.w3.org/Graphics/SVG/1.1/DTD/svg11.dtd"><svg class="icon" width="200px" height="200.00px" viewBox="0 0 1024 1024" version="1.1" xmlns="http://www.w3.org/2000/svg"><path fill="#333333" d="M352 192V95.936a32 32 0 0 1 32-32h256a32 32 0 0 1 32 32V192h256a32 32 0 1 1 0 64h-832a32 32 0 0 1 0-64h256z m64 0h192V128h-192v64zM192 960a32 32 0 0 1-32-32V256h704v672a32 32 0 0 1-32 32H192z m224-192a32 32 0 0 0 32-32v-320a32 32 0 0 0-64 0v320a32 32 0 0 0 32 32z m192 0a32 32 0 0 0 32-32v-320a32 32 0 0 0-64 0v320a32 32 0 0 0 32 32z" /></svg>