<?xml version="1.0" standalone="no"?><!DOCTYPE svg PUBLIC "-//W3C//DTD SVG 1.1//EN" "http://www.w3.org/Graphics/SVG/1.1/DTD/svg11.dtd"><svg class="icon" width="200px" height="200.00px" viewBox="0 0 1024 1024" version="1.1" xmlns="http://www.w3.org/2000/svg"><path fill="#333333" d="M128 416v-32.064-15.936a144 144 0 0 1 168.64-141.888 224.128 224.128 0 0 1 430.72 0A144 144 0 0 1 896 368v48a384 384 0 0 1-352 382.72V896h-64v-97.28A384 384 0 0 1 128 416z m287.104-32.064h193.792a143.808 143.808 0 0 1 58.88-132.736 160.064 160.064 0 0 0-311.552 0A143.808 143.808 0 0 1 415.104 384z m-72.896 0a72 72 0 1 0-140.48 0h140.48z m339.584 0h140.416a72 72 0 1 0-140.48 0zM512 736a320 320 0 0 0 318.4-288.064h-636.8A320 320 0 0 0 512 736z m-128 160.064h256a32 32 0 1 1 0 64H384a32 32 0 1 1 0-64z" /></svg>