<?xml version="1.0" standalone="no"?><!DOCTYPE svg PUBLIC "-//W3C//DTD SVG 1.1//EN" "http://www.w3.org/Graphics/SVG/1.1/DTD/svg11.dtd"><svg class="icon" width="200px" height="200.00px" viewBox="0 0 1024 1024" version="1.1" xmlns="http://www.w3.org/2000/svg"><path fill="#333333" d="M224 704h576V318.336L552.512 115.84a64 64 0 0 0-81.024 0L224 318.336V704z m0 64v128h576v-128h-576zM593.024 66.304l259.2 212.096a32 32 0 0 1 11.776 24.768V928a32 32 0 0 1-32 32H192a32 32 0 0 1-32-32V303.168a32 32 0 0 1 11.712-24.768l259.2-212.096a128 128 0 0 1 162.112 0z"  /><path fill="#333333" d="M512 448a64 64 0 1 0 0-128 64 64 0 0 0 0 128z m0 64a128 128 0 1 1 0-256 128 128 0 0 1 0 256z"  /></svg>