<?xml version="1.0" standalone="no"?><!DOCTYPE svg PUBLIC "-//W3C//DTD SVG 1.1//EN" "http://www.w3.org/Graphics/SVG/1.1/DTD/svg11.dtd"><svg class="icon" width="200px" height="200.00px" viewBox="0 0 1024 1024" version="1.1" xmlns="http://www.w3.org/2000/svg"><path fill="#333333" d="M384.064 274.56l0.064-50.688a128 128 0 0 1 128-127.872c70.528 0 127.68 57.152 127.68 127.68v50.752A448.192 448.192 0 0 1 955.392 768H68.544A448.192 448.192 0 0 1 384 274.56zM96 832h832a32 32 0 1 1 0 64h-832a32 32 0 1 1 0-64z m32-128h768a384 384 0 1 0-768 0z m447.808-448v-32.32a63.68 63.68 0 0 0-63.68-63.68 64 64 0 0 0-64 63.936V256h127.68z" /></svg>