<?xml version="1.0" standalone="no"?><!DOCTYPE svg PUBLIC "-//W3C//DTD SVG 1.1//EN" "http://www.w3.org/Graphics/SVG/1.1/DTD/svg11.dtd"><svg class="icon" width="200px" height="200.00px" viewBox="0 0 1024 1024" version="1.1" xmlns="http://www.w3.org/2000/svg"><path fill="#333333" d="M480 257.152V192H384a32 32 0 0 1 0-64h256a32 32 0 1 1 0 64H544v65.152A448 448 0 0 1 955.52 768H68.48A448 448 0 0 1 480 257.152zM128 704h768a384 384 0 1 0-768 0z m-32 128h832a32 32 0 1 1 0 64h-832a32 32 0 1 1 0-64z" /></svg>