<?xml version="1.0" standalone="no"?><!DOCTYPE svg PUBLIC "-//W3C//DTD SVG 1.1//EN" "http://www.w3.org/Graphics/SVG/1.1/DTD/svg11.dtd"><svg class="icon" width="200px" height="200.00px" viewBox="0 0 1024 1024" version="1.1" xmlns="http://www.w3.org/2000/svg"><path fill="#333333" d="M805.504 320L640 154.496V320h165.504zM832 384H576V128H192v768h640V384zM160 64H640l256 256v608a32 32 0 0 1-32 32h-704a32 32 0 0 1-32-32v-832a32 32 0 0 1 32-32z m308.992 546.304L378.496 519.68l45.248-45.248 90.56 90.496L604.8 474.496l45.248 45.248-90.496 90.56 90.496 90.496-45.248 45.248-90.496-90.496-90.56 90.496-45.248-45.248 90.496-90.496z" /></svg>