<?xml version="1.0" standalone="no"?><!DOCTYPE svg PUBLIC "-//W3C//DTD SVG 1.1//EN" "http://www.w3.org/Graphics/SVG/1.1/DTD/svg11.dtd"><svg class="icon" width="200px" height="200.00px" viewBox="0 0 1024 1024" version="1.1" xmlns="http://www.w3.org/2000/svg"><path fill="#333333" d="M128 320v576h576V320H128z m-32-64h640a32 32 0 0 1 32 32v640a32 32 0 0 1-32 32h-640a32 32 0 0 1-32-32v-640a32 32 0 0 1 32-32zM960 96v704a32 32 0 0 1-32 32H832v-64h64V128H384v64H320V96a32 32 0 0 1 32-32h576a32 32 0 0 1 32 32z m-704 576h320v64H256v-64z m0-192h320v64H256v-64z" /></svg>