<?xml version="1.0" standalone="no"?><!DOCTYPE svg PUBLIC "-//W3C//DTD SVG 1.1//EN" "http://www.w3.org/Graphics/SVG/1.1/DTD/svg11.dtd"><svg class="icon" width="200px" height="200.00px" viewBox="0 0 1024 1024" version="1.1" xmlns="http://www.w3.org/2000/svg"><path fill="#333333" d="M832 384H576V128H192v768h640V384z m-26.496-64L640 154.496V320h165.504zM160 64H640l256 256v608a32 32 0 0 1-32 32h-704a32 32 0 0 1-32-32v-832a32 32 0 0 1 32-32zM320 512h384v64H320V512z m0-192h160v64H320V320z m0 384h384v64H320v-64z" /></svg>