<?xml version="1.0" standalone="no"?><!DOCTYPE svg PUBLIC "-//W3C//DTD SVG 1.1//EN" "http://www.w3.org/Graphics/SVG/1.1/DTD/svg11.dtd"><svg class="icon" width="200px" height="200.00px" viewBox="0 0 1024 1024" version="1.1" xmlns="http://www.w3.org/2000/svg"><path fill="#333333" d="M832 512a32 32 0 1 1 64 0v352a32 32 0 0 1-32 32h-704a32 32 0 0 1-32-32v-704a32 32 0 0 1 32-32H512a32 32 0 0 1 0 64H192v640h640V512z"  /><path fill="#333333" d="M469.952 554.24l52.8-7.552 324.352-324.288a32 32 0 1 0-45.248-45.248L477.44 501.44l-7.552 52.8z m422.4-422.4a96 96 0 0 1 0 135.808L560.512 599.488a32 32 0 0 1-18.112 9.088l-105.6 15.104a32 32 0 0 1-36.224-36.224l15.104-105.6a32 32 0 0 1 9.024-18.112l331.904-331.84a96 96 0 0 1 135.744 0z"  /></svg>