<?xml version="1.0" standalone="no"?><!DOCTYPE svg PUBLIC "-//W3C//DTD SVG 1.1//EN" "http://www.w3.org/Graphics/SVG/1.1/DTD/svg11.dtd"><svg class="icon" width="200px" height="200.00px" viewBox="0 0 1024 1024" version="1.1" xmlns="http://www.w3.org/2000/svg"><path fill="#333333" d="M800 832a32 32 0 1 1 0 64h-448a32 32 0 1 1 0-64h448zM624.64 129.408l180.992 180.992a32 32 0 0 1 0 45.248l-90.496 90.496-353.92 353.92a32 32 0 0 1-19.712 9.216l-199.04 18.048a32 32 0 0 1-34.816-28.928v-5.76l18.112-199.168a32 32 0 0 1 9.216-19.712l444.352-444.352a32 32 0 0 1 45.248 0z m-438.912 511.424l-10.88 119.296 119.296-10.88-108.416-108.416zM488.832 310.4L217.28 581.952l135.808 135.744 271.488-271.552-135.68-135.68z m113.152-113.152l-67.84 67.904 135.68 135.744 67.904-67.84-135.744-135.808z"  /></svg>