<?xml version="1.0" standalone="no"?><!DOCTYPE svg PUBLIC "-//W3C//DTD SVG 1.1//EN" "http://www.w3.org/Graphics/SVG/1.1/DTD/svg11.dtd"><svg class="icon" width="200px" height="200.00px" viewBox="0 0 1024 1024" version="1.1" xmlns="http://www.w3.org/2000/svg"><path fill="#333333" d="M160 160v704h704v-704h-704z m-32-64h768a32 32 0 0 1 32 32v768a32 32 0 0 1-32 32H128a32 32 0 0 1-32-32V128a32 32 0 0 1 32-32z"  /><path fill="#333333" d="M320 288V128h64v352h256V128h64v160h160v64H704v128h160v64H704v128h160v64H704V896h-64V544H384V896H320v-160H128v-64h192v-128H128v-64h192v-128H128v-64h192z"  /></svg>