<?xml version="1.0" standalone="no"?><!DOCTYPE svg PUBLIC "-//W3C//DTD SVG 1.1//EN" "http://www.w3.org/Graphics/SVG/1.1/DTD/svg11.dtd"><svg class="icon" width="200px" height="200.00px" viewBox="0 0 1024 1024" version="1.1" xmlns="http://www.w3.org/2000/svg"><path fill="#333333" d="M384 523.392V928a32 32 0 0 0 46.336 28.608l192-96A32 32 0 0 0 640 832V523.392l280.768-343.104a32 32 0 1 0-49.536-40.576l-288 352A32 32 0 0 0 576 512v300.224l-128 64V512a32 32 0 0 0-7.232-20.288L195.52 192H704a32 32 0 1 0 0-64H128a32 32 0 0 0-24.768 52.288L384 523.392z" /></svg>