<?xml version="1.0" standalone="no"?><!DOCTYPE svg PUBLIC "-//W3C//DTD SVG 1.1//EN" "http://www.w3.org/Graphics/SVG/1.1/DTD/svg11.dtd"><svg class="icon" width="200px" height="200.00px" viewBox="0 0 1024 1024" version="1.1" xmlns="http://www.w3.org/2000/svg"><path fill="#333333" d="M280.768 753.728l410.688-586.688a32 32 0 1 1 52.416 36.672l-429.632 613.76a32 32 0 0 1-45.44 7.296l-230.4-172.8a32 32 0 0 1 38.4-51.2l203.968 152.96zM736 448a32 32 0 1 1 0-64h192a32 32 0 1 1 0 64h-192z m-128 192a32 32 0 0 1 0-64h319.936a32 32 0 1 1 0 64H608z m-128 192a32 32 0 1 1 0-64h447.936a32 32 0 1 1 0 64H480z" /></svg>