<?xml version="1.0" standalone="no"?><!DOCTYPE svg PUBLIC "-//W3C//DTD SVG 1.1//EN" "http://www.w3.org/Graphics/SVG/1.1/DTD/svg11.dtd"><svg class="icon" width="200px" height="200.00px" viewBox="0 0 1024 1024" version="1.1" xmlns="http://www.w3.org/2000/svg"><path fill="#333333" d="M192 256a64 64 0 0 0-64 64v448a64 64 0 0 0 64 64h640a64 64 0 0 0 64-64V320a64 64 0 0 0-64-64H192z m0-64h640a128 128 0 0 1 128 128v448a128 128 0 0 1-128 128H192a128 128 0 0 1-128-128V320a128 128 0 0 1 128-128z"  /><path fill="#333333" d="M544 512H640a32 32 0 0 1 0 64H544v96a32 32 0 0 1-64 0V576H384a32 32 0 0 1 0-64h96V416a32 32 0 0 1 64 0V512z"  /><path fill="#333333" d="M352 128v64h320V128h-320zM320 64h384a32 32 0 0 1 32 32v128a32 32 0 0 1-32 32H320a32 32 0 0 1-32-32v-128A32 32 0 0 1 320 64z"  /></svg>