<?xml version="1.0" standalone="no"?><!DOCTYPE svg PUBLIC "-//W3C//DTD SVG 1.1//EN" "http://www.w3.org/Graphics/SVG/1.1/DTD/svg11.dtd"><svg class="icon" width="200px" height="200.00px" viewBox="0 0 1024 1024" version="1.1" xmlns="http://www.w3.org/2000/svg"><path fill="#333333" d="M878.08 448H241.92l-96 384h636.16l96-384zM832 384V320H485.76L357.504 192H128v448l57.92-231.744A32 32 0 0 1 216.96 384H832z m-24.96 512H96a32 32 0 0 1-32-32v-704a32 32 0 0 1 32-32h287.872l128.384 128H864a32 32 0 0 1 32 32V384h23.04a32 32 0 0 1 31.04 39.744l-112 448a32 32 0 0 1-31.04 24.256z" /></svg>