<?xml version="1.0" standalone="no"?><!DOCTYPE svg PUBLIC "-//W3C//DTD SVG 1.1//EN" "http://www.w3.org/Graphics/SVG/1.1/DTD/svg11.dtd"><svg class="icon" width="200px" height="200.00px" viewBox="0 0 1024 1024" version="1.1" xmlns="http://www.w3.org/2000/svg"><path fill="#333333" d="M128 192v640h768V320H485.76L357.504 192H128z m-32-64h287.872l128.384 128H928a32 32 0 0 1 32 32v576a32 32 0 0 1-32 32h-832a32 32 0 0 1-32-32v-704a32 32 0 0 1 32-32z m414.08 502.144l180.992-180.992 45.248 45.248L510.08 720.64 351.68 562.304l45.248-45.312L510.08 630.144z" /></svg>