<?xml version="1.0" standalone="no"?><!DOCTYPE svg PUBLIC "-//W3C//DTD SVG 1.1//EN" "http://www.w3.org/Graphics/SVG/1.1/DTD/svg11.dtd"><svg class="icon" width="200px" height="200.00px" viewBox="0 0 1024 1024" version="1.1" xmlns="http://www.w3.org/2000/svg"><path fill="#333333" d="M128 352.576V352a288 288 0 0 1 491.072-204.224 192 192 0 0 1 274.24 204.48 64 64 0 0 1 57.216 74.24c-28.928 174.016-100.48 284.16-214.528 330.496v43.008A96 96 0 0 1 640 896H384a96 96 0 0 1-96-96v-43.008c-114.048-46.336-185.6-156.48-214.528-330.496A64 64 0 0 1 128 352.64zM192 352h64a160 160 0 0 1 320 0h64a224 224 0 0 0-448 0z m128 0h192a96 96 0 0 0-192 0z m439.424 0h68.544A128.256 128.256 0 0 0 704 192c-15.36 0-29.952 2.688-43.52 7.616 11.328 18.176 20.672 37.76 27.84 58.304a64.128 64.128 0 0 1 71.104 94.08zM672 768h-320v32a32 32 0 0 0 32 32h256a32 32 0 0 0 32-32V768z m-342.528-64h365.056c101.504-32.64 165.76-124.928 192.896-288H136.576c27.136 163.072 91.392 255.36 192.896 288z" /></svg>