<?xml version="1.0" standalone="no"?><!DOCTYPE svg PUBLIC "-//W3C//DTD SVG 1.1//EN" "http://www.w3.org/Graphics/SVG/1.1/DTD/svg11.dtd"><svg class="icon" width="200px" height="200.00px" viewBox="0 0 1024 1024" version="1.1" xmlns="http://www.w3.org/2000/svg"><path fill="#333333" d="M512 960A448 448 0 1 1 512 64a448 448 0 0 1 0 896z m0-64A384 384 0 1 0 512 128a384 384 0 0 0 0 768z"  /><path fill="#333333" d="M186.816 268.288c16-16.384 31.616-31.744 46.976-46.08 17.472 30.656 39.808 58.112 65.984 81.28l-32.512 56.448a385.984 385.984 0 0 1-80.448-91.648z m653.696-5.312a385.92 385.92 0 0 1-83.776 96.96l-32.512-56.384c27.392-24.32 50.624-53.312 68.48-85.76 15.552 14.08 31.488 29.12 47.808 45.184zM465.984 445.248l11.136-63.104a323.584 323.584 0 0 0 69.76 0l11.136 63.104a387.968 387.968 0 0 1-92.032 0z m-62.72-12.8A381.824 381.824 0 0 1 320 396.544l32-55.424c19.584 11.328 40.512 20.672 62.464 27.712l-11.2 63.488z m300.8-35.84a381.824 381.824 0 0 1-83.328 35.84l-11.2-63.552c21.952-7.04 42.88-16.384 62.464-27.712l32 55.424zM183.296 761.408a385.92 385.92 0 0 1 83.968-97.28l32.512 56.32c-26.88 23.936-49.856 52.352-67.52 84.032-16-13.44-32.32-27.712-48.96-43.072z m657.536 0.128c-16.704 15.36-33.088 29.696-49.024 43.072a321.408 321.408 0 0 0-67.584-84.16l32.512-56.32c33.216 27.456 61.696 60.352 84.096 97.408zM465.92 578.752a387.968 387.968 0 0 1 92.032 0l-11.136 63.104a323.584 323.584 0 0 0-69.76 0l-11.136-63.104z m-62.72 12.8l11.2 63.552c-21.952 7.04-42.88 16.384-62.464 27.712L320 627.392a381.824 381.824 0 0 1 83.264-35.84z m300.8 35.84l-32 55.424a318.272 318.272 0 0 0-62.528-27.712l11.2-63.488c29.44 8.64 57.28 20.736 83.264 35.776z"  /></svg>