<?xml version="1.0" standalone="no"?><!DOCTYPE svg PUBLIC "-//W3C//DTD SVG 1.1//EN" "http://www.w3.org/Graphics/SVG/1.1/DTD/svg11.dtd"><svg class="icon" width="200px" height="200.00px" viewBox="0 0 1024 1024" version="1.1" xmlns="http://www.w3.org/2000/svg"><path fill="#333333" d="M160 96.064l192 0.192a32 32 0 0 1 0 64l-192-0.192V352a32 32 0 0 1-64 0v-256h64v0.064z m0 831.872v0.064h-64v-256a32 32 0 1 1 64 0v191.936l192-0.192a32 32 0 1 1 0 64l-192 0.192z m704-831.872V96h64v256a32 32 0 1 1-64 0V160.064l-192 0.192a32 32 0 1 1 0-64l192-0.192z m0 831.872l-192-0.192a32 32 0 0 1 0-64l192 0.192V672a32 32 0 1 1 64 0v256h-64v-0.064z" /></svg>