<?xml version="1.0" standalone="no"?><!DOCTYPE svg PUBLIC "-//W3C//DTD SVG 1.1//EN" "http://www.w3.org/Graphics/SVG/1.1/DTD/svg11.dtd"><svg class="icon" width="200px" height="200.00px" viewBox="0 0 1024 1024" version="1.1" xmlns="http://www.w3.org/2000/svg"><path fill="#333333" d="M544 638.912V896H640a32 32 0 1 1 0 64H384a32 32 0 1 1 0-64h96V638.848C250.624 623.424 192 442.496 192 319.68V96a32 32 0 0 1 32-32h576a32 32 0 0 1 32 32V320c0 122.816-58.624 303.68-288 318.912zM256 319.68c0 149.568 80 256.192 256 256.256C688.128 576 768 469.568 768 320V128H256v191.68z" /></svg>