<?xml version="1.0" standalone="no"?><!DOCTYPE svg PUBLIC "-//W3C//DTD SVG 1.1//EN" "http://www.w3.org/Graphics/SVG/1.1/DTD/svg11.dtd"><svg class="icon" width="200px" height="200.00px" viewBox="0 0 1024 1024" version="1.1" xmlns="http://www.w3.org/2000/svg"><path fill="#333333" d="M320 288v-22.336C320 154.688 405.504 64 512 64s192 90.688 192 201.664v22.4h131.072a32 32 0 0 1 31.808 28.8l57.6 576a32 32 0 0 1-31.808 35.2H131.328a32 32 0 0 1-31.808-35.2l57.6-576a32 32 0 0 1 31.808-28.8H320z m64 0h256v-22.336C640 189.248 582.272 128 512 128c-70.272 0-128 61.248-128 137.664v22.4z m-64 64H217.92l-51.2 512h690.56l-51.264-512H704V448a32 32 0 1 1-64 0V352H384V448a32 32 0 0 1-64 0V352z" /></svg>