<?xml version="1.0" standalone="no"?><!DOCTYPE svg PUBLIC "-//W3C//DTD SVG 1.1//EN" "http://www.w3.org/Graphics/SVG/1.1/DTD/svg11.dtd"><svg class="icon" width="200px" height="200.00px" viewBox="0 0 1024 1024" version="1.1" xmlns="http://www.w3.org/2000/svg"><path fill="#333333" d="M544 195.2A160 160 0 0 1 640 256a160 160 0 1 1 146.24 254.976 160 160 0 0 1-128 224 160 160 0 1 1-292.48 0 160 160 0 0 1-128-224A160 160 0 1 1 384 256a160 160 0 0 1 96-60.8V128h-64a32 32 0 0 1 0-64h192a32 32 0 0 1 0 64h-64v67.2zM512 448a96 96 0 1 0 0-192 96 96 0 0 0 0 192zM256 448a96 96 0 1 0 0-192 96 96 0 0 0 0 192z m128 224a96 96 0 1 0 0-192 96 96 0 0 0 0 192zM512 896a96 96 0 1 0 0-192 96 96 0 0 0 0 192z m128-224a96 96 0 1 0 0-192 96 96 0 0 0 0 192zM768 448a96 96 0 1 0 0-192 96 96 0 0 0 0 192z" /></svg>