<?xml version="1.0" standalone="no"?><!DOCTYPE svg PUBLIC "-//W3C//DTD SVG 1.1//EN" "http://www.w3.org/Graphics/SVG/1.1/DTD/svg11.dtd"><svg class="icon" width="200px" height="200.00px" viewBox="0 0 1024 1024" version="1.1" xmlns="http://www.w3.org/2000/svg"><path fill="#333333" d="M640 608H576v-192h64v192z m0 160v160a32 32 0 0 1-32 32h-192a32 32 0 0 1-32-32V768h64v128h128v-128h64zM384 608v-192h64v192H384zM640 256H576V128H448v128H384V96a32 32 0 0 1 32-32h192a32 32 0 0 1 32 32V256z"  /><path fill="#333333" d="M220.8 256L149.568 336 220.736 416H768V256H220.8z m-14.4-64H800a32 32 0 0 1 32 32V448a32 32 0 0 1-32 32H206.4a32 32 0 0 1-23.936-10.752l-99.584-112a32 32 0 0 1 0-42.496l99.584-112A32 32 0 0 1 206.4 192zM885.184 688L814.08 768H266.816V608h547.2l71.168 80z m-56.768-144H234.88a32 32 0 0 0-32 32v224a32 32 0 0 0 32 32h593.6a32 32 0 0 0 23.936-10.752l99.584-112a32 32 0 0 0 0-42.496l-99.584-112a32 32 0 0 0-23.936-10.752z"  /></svg>