<?xml version="1.0" standalone="no"?><!DOCTYPE svg PUBLIC "-//W3C//DTD SVG 1.1//EN" "http://www.w3.org/Graphics/SVG/1.1/DTD/svg11.dtd"><svg class="icon" width="200px" height="200.00px" viewBox="0 0 1024 1024" version="1.1" xmlns="http://www.w3.org/2000/svg"><path fill="#333333" d="M896 529.152V512A384 384 0 1 0 128 512v17.152A128 128 0 0 1 320 640v128a128 128 0 1 1-256 0V512a448 448 0 1 1 896 0v256a128 128 0 1 1-256 0v-128a128 128 0 0 1 192-110.848zM896 640a64 64 0 0 0-128 0v128a64 64 0 0 0 128 0v-128zM128 640v128a64 64 0 0 0 128 0v-128a64 64 0 1 0-128 0z" /></svg>