<?xml version="1.0" standalone="no"?><!DOCTYPE svg PUBLIC "-//W3C//DTD SVG 1.1//EN" "http://www.w3.org/Graphics/SVG/1.1/DTD/svg11.dtd"><svg class="icon" width="200px" height="200.00px" viewBox="0 0 1024 1024" version="1.1" xmlns="http://www.w3.org/2000/svg"><path fill="#333333" d="M759.936 805.248l-90.944-91.008A254.912 254.912 0 0 1 512 768a254.912 254.912 0 0 1-156.992-53.76l-90.944 91.008A382.464 382.464 0 0 0 512 896c94.528 0 181.12-34.176 247.936-90.752z m45.312-45.312A382.464 382.464 0 0 0 896 512c0-94.528-34.176-181.12-90.752-247.936L714.24 355.008c33.664 43.392 53.76 97.856 53.76 156.992 0 59.136-20.096 113.6-53.76 156.992l91.008 90.944z m-45.312-541.184A382.464 382.464 0 0 0 512 128c-94.528 0-181.12 34.176-247.936 90.752L355.008 309.76A254.912 254.912 0 0 1 512 256c59.136 0 113.6 20.096 156.992 53.76l90.944-91.008z m-541.184 45.312A382.464 382.464 0 0 0 128 512c0 94.528 34.176 181.12 90.752 247.936l91.008-90.944A254.912 254.912 0 0 1 256 512c0-59.136 20.096-113.6 53.76-156.992L218.752 264.064z m417.28 394.496a194.56 194.56 0 0 0 22.528-22.528c28.352-33.472 45.44-76.8 45.44-124.032a191.232 191.232 0 0 0-67.968-146.56A191.296 191.296 0 0 0 512 320a191.232 191.232 0 0 0-146.56 67.968C337.088 421.44 320 464.768 320 512a191.232 191.232 0 0 0 67.968 146.56c33.472 28.352 76.8 45.44 124.032 45.44 47.296 0 90.56-17.088 124.032-45.44zM512 960A448 448 0 1 1 512 64a448 448 0 0 1 0 896z"  /></svg>