<?xml version="1.0" standalone="no"?><!DOCTYPE svg PUBLIC "-//W3C//DTD SVG 1.1//EN" "http://www.w3.org/Graphics/SVG/1.1/DTD/svg11.dtd"><svg class="icon" width="200px" height="200.00px" viewBox="0 0 1024 1024" version="1.1" xmlns="http://www.w3.org/2000/svg"><path fill="#333333" d="M273.06666667 477.86666667h477.86666666v-68.26666667h-477.86666666v68.26666667z m0 68.26666666v51.2A187.73333333 187.73333333 0 0 0 460.8 785.06666667h102.4a187.73333333 187.73333333 0 0 0 187.73333333-187.73333334V546.13333333h-477.86666666z m-34.13333334-204.8h546.13333334a34.13333333 34.13333333 0 0 1 34.13333333 34.13333334v221.86666666A256 256 0 0 1 563.2 853.33333333h-102.4A256 256 0 0 1 204.8 597.33333333V375.46666667a34.13333333 34.13333333 0 0 1 34.13333333-34.13333334zM512 34.13333333a34.13333333 34.13333333 0 0 1 34.13333333 34.13333334V238.93333333a34.13333333 34.13333333 0 0 1-68.26666666 0V68.26666667A34.13333333 34.13333333 0 0 1 512 34.13333333zM375.46666667 102.4a34.13333333 34.13333333 0 0 1 34.13333333 34.13333333V238.93333333a34.13333333 34.13333333 0 0 1-68.26666667 0V136.53333333A34.13333333 34.13333333 0 0 1 375.46666667 102.4z m273.06666666 0a34.13333333 34.13333333 0 0 1 34.13333334 34.13333333V238.93333333a34.13333333 34.13333333 0 1 1-68.26666667 0V136.53333333A34.13333333 34.13333333 0 0 1 648.53333333 102.4zM170.66666667 921.66826667h682.66666666a34.13333333 34.13333333 0 1 1 0 68.26666666H170.66666667a34.13333333 34.13333333 0 1 1 0-68.26666666z" /></svg>