<?xml version="1.0" standalone="no"?><!DOCTYPE svg PUBLIC "-//W3C//DTD SVG 1.1//EN" "http://www.w3.org/Graphics/SVG/1.1/DTD/svg11.dtd"><svg class="icon" width="200px" height="200.00px" viewBox="0 0 1024 1024" version="1.1" xmlns="http://www.w3.org/2000/svg"><path fill="#333333" d="M416 640h256a32 32 0 0 0 32-32v-448a32 32 0 0 0-32-32h-320a32 32 0 0 0-32 32v448a32 32 0 0 0 32 32h64z m192 64v160a96 96 0 0 1-192 0V704h-64A96 96 0 0 1 256 608v-448A96 96 0 0 1 352 64h320A96 96 0 0 1 768 160v448a96 96 0 0 1-96 96h-64z m-64 0h-64v160a32 32 0 1 0 64 0V704z" /></svg>