<?xml version="1.0" standalone="no"?><!DOCTYPE svg PUBLIC "-//W3C//DTD SVG 1.1//EN" "http://www.w3.org/Graphics/SVG/1.1/DTD/svg11.dtd"><svg class="icon" width="200px" height="200.00px" viewBox="0 0 1024 1024" version="1.1" xmlns="http://www.w3.org/2000/svg"><path fill="#333333" d="M308.352 489.344l226.304 226.304a32 32 0 0 0 45.248 0L783.552 512A192 192 0 1 0 512 240.448L308.352 444.16a32 32 0 0 0 0 45.248z m135.744 226.304l-135.744 135.744a96 96 0 0 1-135.744-135.744l135.744-135.744-45.248-45.248a96 96 0 0 1 0-135.808L466.752 195.2a256 256 0 0 1 362.048 362.048L625.152 760.96a96 96 0 0 1-135.808 0l-45.248-45.248z m-45.248-45.248l-45.248-45.248-135.744 135.744a32 32 0 0 0 45.248 45.248l135.744-135.744z m248.96-384.64a32 32 0 0 1 0 45.248L466.624 512a32 32 0 1 1-45.184-45.248l180.992-181.056a32 32 0 0 1 45.248 0z m90.496 90.496a32 32 0 0 1 0 45.248L557.248 602.496A32 32 0 1 1 512 557.248l180.992-180.992a32 32 0 0 1 45.312 0z" /></svg>