<?xml version="1.0" standalone="no"?><!DOCTYPE svg PUBLIC "-//W3C//DTD SVG 1.1//EN" "http://www.w3.org/Graphics/SVG/1.1/DTD/svg11.dtd"><svg class="icon" width="200px" height="200.00px" viewBox="0 0 1024 1024" version="1.1" xmlns="http://www.w3.org/2000/svg"><path fill="#333333" d="M512 448v128h239.68l16.064-128H512zM448 448H256.256l16.064 128H448V448z m64-255.36V384h247.744A256.128 256.128 0 0 0 512 192.64z m-64 8.064A256.448 256.448 0 0 0 264.256 384H448V200.704zM512 128.64A320.128 320.128 0 0 1 825.472 384H896a32 32 0 1 1 0 64h-64v1.92l-56.96 454.016a64 64 0 0 1-63.488 56.064H312.448a64 64 0 0 1-63.488-56.064L192 449.92V448H128a32 32 0 0 1 0-64h70.528A320.384 320.384 0 0 1 448 135.04V96A96 96 0 0 1 544 0h128a32 32 0 1 1 0 64h-128a32 32 0 0 0-32 32v32.64zM743.68 640H280.32l32.128 256h399.104l32.128-256z" /></svg>