<?xml version="1.0" standalone="no"?><!DOCTYPE svg PUBLIC "-//W3C//DTD SVG 1.1//EN" "http://www.w3.org/Graphics/SVG/1.1/DTD/svg11.dtd"><svg class="icon" width="200px" height="200.00px" viewBox="0 0 1024 1024" version="1.1" xmlns="http://www.w3.org/2000/svg"><path fill="#333333" d="M128.64 448a208 208 0 0 1 193.536-191.552 224 224 0 0 1 445.248 15.488A208.128 208.128 0 0 1 894.784 448H896l-347.2 535.68a32 32 0 0 1-53.248 0.704L128 448h0.64z m64.256 0h286.208a144 144 0 0 0-286.208 0z m351.36 0h286.272a144 144 0 0 0-286.272 0zM249.408 512l271.808 396.608L778.24 512H249.408z m262.272-159.36a207.872 207.872 0 0 1 189.184-96.192 160 160 0 0 0-314.752 5.632c52.608 12.992 97.28 46.08 125.568 90.56z" /></svg>