<?xml version="1.0" standalone="no"?><!DOCTYPE svg PUBLIC "-//W3C//DTD SVG 1.1//EN" "http://www.w3.org/Graphics/SVG/1.1/DTD/svg11.dtd"><svg class="icon" width="200px" height="200.00px" viewBox="0 0 1024 1024" version="1.1" xmlns="http://www.w3.org/2000/svg"><path fill="#333333" d="M197.696 259.648a320.128 320.128 0 0 1 628.608 0A96 96 0 0 1 896 352v64a96 96 0 0 1-71.616 92.864l-49.408 395.072a64 64 0 0 1-63.488 56.064H312.512a64 64 0 0 1-63.488-56.064l-49.408-395.072A96 96 0 0 1 128 416v-64a96 96 0 0 1 69.696-92.352zM264.064 256h495.872a256.128 256.128 0 0 0-495.872 0z m495.424 256H264.512l48 384h398.976l48-384zM224 448h576a32 32 0 0 0 32-32v-64a32 32 0 0 0-32-32h-576a32 32 0 0 0-32 32v64a32 32 0 0 0 32 32zM384 640h64v64H384v-64z m192 64h64v64H576v-64z m-128 64h64v64H448v-64z m64-192h64v64H512V576z" /></svg>