<?xml version="1.0" standalone="no"?><!DOCTYPE svg PUBLIC "-//W3C//DTD SVG 1.1//EN" "http://www.w3.org/Graphics/SVG/1.1/DTD/svg11.dtd"><svg class="icon" width="200px" height="200.00px" viewBox="0 0 1024 1024" version="1.1" xmlns="http://www.w3.org/2000/svg"><path fill="#333333" d="M256 410.56V96a32 32 0 0 1 64 0v314.56A96 96 0 0 0 384 320V96a32 32 0 0 1 64 0V320a160 160 0 0 1-128 156.8v451.2a32 32 0 1 1-64 0V476.8A160 160 0 0 1 128 320V96a32 32 0 0 1 64 0V320a96 96 0 0 0 64 90.56z m384-250.24V544h126.72c-3.328-78.72-12.928-147.968-28.608-207.744-14.336-54.528-46.848-113.344-98.112-175.872zM640 608v320a32 32 0 1 1-64 0V64h64c85.312 89.472 138.688 174.848 160 256 21.312 81.152 32 177.152 32 288h-192z" /></svg>