<?xml version="1.0" standalone="no"?><!DOCTYPE svg PUBLIC "-//W3C//DTD SVG 1.1//EN" "http://www.w3.org/Graphics/SVG/1.1/DTD/svg11.dtd"><svg class="icon" width="200px" height="200.00px" viewBox="0 0 1024 1024" version="1.1" xmlns="http://www.w3.org/2000/svg"><path fill="#333333" d="M715.648 625.152l-45.248-45.248 90.496-90.56c75.008-74.944 85.12-186.368 22.656-248.896-62.528-62.464-173.952-52.352-248.96 22.656L444.16 353.6l-45.248-45.248 90.496-90.496c100.032-99.968 251.968-110.08 339.456-22.656 87.488 87.488 77.312 239.424-22.656 339.456l-90.496 90.496z m-90.496 90.496l-90.496 90.496c-100.032 99.968-251.968 110.08-339.456 22.656-87.488-87.488-77.312-239.424 22.656-339.456l90.496-90.496 45.248 45.248-90.496 90.56c-75.008 74.944-85.12 186.368-22.656 248.896 62.528 62.464 173.952 52.352 248.96-22.656l90.496-90.496 45.248 45.248z m0-362.048l45.248 45.248-271.552 271.552-45.248-45.248 271.552-271.552z" /></svg>