<?xml version="1.0" standalone="no"?><!DOCTYPE svg PUBLIC "-//W3C//DTD SVG 1.1//EN" "http://www.w3.org/Graphics/SVG/1.1/DTD/svg11.dtd"><svg class="icon" width="200px" height="200.00px" viewBox="0 0 1024 1024" version="1.1" xmlns="http://www.w3.org/2000/svg"><path fill="#333333" d="M512 64a32 32 0 0 1 32 32v192a32 32 0 0 1-64 0v-192A32 32 0 0 1 512 64z m0 640a32 32 0 0 1 32 32v192a32 32 0 1 1-64 0v-192A32 32 0 0 1 512 704z m448-192a32 32 0 0 1-32 32h-192a32 32 0 1 1 0-64h192a32 32 0 0 1 32 32zM320 512a32 32 0 0 1-32 32h-192a32 32 0 0 1 0-64h192A32 32 0 0 1 320 512zM195.2 195.2a32 32 0 0 1 45.248 0L376.32 331.008a32 32 0 0 1-45.248 45.248L195.2 240.448a32 32 0 0 1 0-45.248z m452.544 452.544a32 32 0 0 1 45.248 0l135.808 135.808a32 32 0 0 1-45.248 45.248l-135.808-135.808a32 32 0 0 1 0-45.248z m181.056-452.48a32 32 0 0 1 0 45.184L692.992 376.32a32 32 0 0 1-45.248-45.248l135.808-135.808a32 32 0 0 1 45.248 0z m-452.544 452.48a32 32 0 0 1 0 45.248L240.448 828.8a32 32 0 0 1-45.248-45.248l135.808-135.808a32 32 0 0 1 45.248 0z" /></svg>