<?xml version="1.0" standalone="no"?><!DOCTYPE svg PUBLIC "-//W3C//DTD SVG 1.1//EN" "http://www.w3.org/Graphics/SVG/1.1/DTD/svg11.dtd"><svg class="icon" width="200px" height="200.00px" viewBox="0 0 1024 1024" version="1.1" xmlns="http://www.w3.org/2000/svg"><path fill="#333333" d="M800 416a288 288 0 1 0-576 0c0 118.144 94.528 272.128 288 456.576 193.472-184.448 288-338.432 288-456.576zM512 960c-234.688-213.312-352-394.688-352-544a352 352 0 0 1 704 0c0 149.312-117.312 330.688-352 544z"  /><path fill="#333333" d="M512 512a96 96 0 1 0 0-192 96 96 0 0 0 0 192z m0 64a160 160 0 1 1 0-320 160 160 0 0 1 0 320z"  /></svg>