<?xml version="1.0" standalone="no"?><!DOCTYPE svg PUBLIC "-//W3C//DTD SVG 1.1//EN" "http://www.w3.org/Graphics/SVG/1.1/DTD/svg11.dtd"><svg class="icon" width="200px" height="200.00px" viewBox="0 0 1024 1024" version="1.1" xmlns="http://www.w3.org/2000/svg"><path fill="#333333" d="M513.28 448a64 64 0 1 1 76.544 49.728A96 96 0 0 0 768 448h64a160 160 0 0 1-320 0h1.28z m-126.976-29.696a256 256 0 1 0 43.52-180.48A256 256 0 0 1 832 448h-64a192 192 0 0 0-381.696-29.696z m105.664 249.472l-206.272 206.272a96 96 0 0 1-135.68-135.744l206.208-206.272a320 320 0 1 1 135.744 135.744z m-54.464-36.032a321.92 321.92 0 0 1-45.248-45.248L195.2 783.552a32 32 0 1 0 45.248 45.248L437.504 631.68z" /></svg>