<?xml version="1.0" standalone="no"?><!DOCTYPE svg PUBLIC "-//W3C//DTD SVG 1.1//EN" "http://www.w3.org/Graphics/SVG/1.1/DTD/svg11.dtd"><svg class="icon" width="200px" height="200.00px" viewBox="0 0 1024 1024" version="1.1" xmlns="http://www.w3.org/2000/svg"><path fill="#333333" d="M399.5 849.5a225 225 0 1 0 0-450 225 225 0 0 0 0 450z m0 56.25A281.25 281.25 0 1 1 399.5 343.25a281.25 281.25 0 0 1 0 562.5z"  /><path fill="#333333" d="M624.5 118.25m28.125 0l225 0q28.125 0 28.125 28.125l0 0q0 28.125-28.125 28.125l-225 0q-28.125 0-28.125-28.125l0 0q0-28.125 28.125-28.125Z"  /><path fill="#333333" d="M849.5 118.25m28.125 0l0 0q28.125 0 28.125 28.125l0 225q0 28.125-28.125 28.125l0 0q-28.125 0-28.125-28.125l0-225q0-28.125 28.125-28.125Z"  /><path fill="#333333" d="M604.8125 458.9l-39.7125-39.76875 292.6125-292.66875 39.825 39.825z"  /></svg>