<?xml version="1.0" standalone="no"?><!DOCTYPE svg PUBLIC "-//W3C//DTD SVG 1.1//EN" "http://www.w3.org/Graphics/SVG/1.1/DTD/svg11.dtd"><svg class="icon" width="200px" height="200.00px" viewBox="0 0 1024 1024" version="1.1" xmlns="http://www.w3.org/2000/svg"><path fill="#333333" d="M512 896a256 256 0 1 0 0-512 256 256 0 0 0 0 512z m0 64A320 320 0 1 1 512 320a320 320 0 0 1 0 640z"  /><path fill="#333333" d="M480 480h64v256h64v64h-192v-64h64v-192h-64v-64h64z"  /><path fill="#333333" d="M576 128H448v200A286.72 286.72 0 0 1 512 320c19.52 0 40.832 2.688 64 8V128z m64 0v219.648c24.448 9.088 50.56 20.416 78.4 33.92L757.44 128H640zM384 128H266.624l39.04 253.568c27.84-13.504 53.888-24.832 78.336-33.92V128zM229.312 64h565.376a32 32 0 0 1 31.616 36.864L768 480C654.208 416 568.896 384 512 384c-56.896 0-142.208 32-256 96l-58.304-379.136A32 32 0 0 1 229.312 64z"  /></svg>