<?xml version="1.0" standalone="no"?><!DOCTYPE svg PUBLIC "-//W3C//DTD SVG 1.1//EN" "http://www.w3.org/Graphics/SVG/1.1/DTD/svg11.dtd"><svg class="icon" width="200px" height="200.00px" viewBox="0 0 1024 1024" version="1.1" xmlns="http://www.w3.org/2000/svg"><path fill="#333333" d="M160 448a32 32 0 0 1-32-32V160.064a32 32 0 0 1 32-32h256a32 32 0 0 1 32 32V416a32 32 0 0 1-32 32h-256z m448 0a32 32 0 0 1-32-32V160.064a32 32 0 0 1 32-32h255.936a32 32 0 0 1 32 32V416a32 32 0 0 1-32 32H608z m-448 448a32 32 0 0 1-32-32v-256a32 32 0 0 1 32-32h256a32 32 0 0 1 32 32v256a32 32 0 0 1-32 32h-256z m448 0a32 32 0 0 1-32-32v-256a32 32 0 0 1 32-32h255.936a32 32 0 0 1 32 32v256a32 32 0 0 1-32 32H608z" /></svg>