<?xml version="1.0" standalone="no"?><!DOCTYPE svg PUBLIC "-//W3C//DTD SVG 1.1//EN" "http://www.w3.org/Graphics/SVG/1.1/DTD/svg11.dtd"><svg class="icon" width="200px" height="200.00px" viewBox="0 0 1024 1024" version="1.1" xmlns="http://www.w3.org/2000/svg"><path fill="#333333" d="M128 224v512a64 64 0 0 0 64 64h640a64 64 0 0 0 64-64v-512H128z m0-64h768a64 64 0 0 1 64 64v512a128 128 0 0 1-128 128H192a128 128 0 0 1-128-128v-512a64 64 0 0 1 64-64z"  /><path fill="#333333" d="M904 224l-247.488 282.88a192 192 0 0 1-289.024 0L120 224h784z m-698.944 0l210.56 240.704a128 128 0 0 0 192.704 0L818.944 224H205.056z"  /></svg>