<?xml version="1.0" standalone="no"?><!DOCTYPE svg PUBLIC "-//W3C//DTD SVG 1.1//EN" "http://www.w3.org/Graphics/SVG/1.1/DTD/svg11.dtd"><svg class="icon" width="200px" height="200.00px" viewBox="0 0 1024 1024" version="1.1" xmlns="http://www.w3.org/2000/svg"><path fill="#333333" d="M480 704H640a64 64 0 0 0 64-64v-32H608a32 32 0 0 1 0-64H704V448H608a32 32 0 0 1 0-64H704V288H608a32 32 0 0 1 0-64H704V192a64 64 0 0 0-64-64H384a64 64 0 0 0-64 64v32h96a32 32 0 0 1 0 64H320V384h96a32 32 0 0 1 0 64H320v96h96a32 32 0 0 1 0 64H320v32a64 64 0 0 0 64 64h96z m64 64v128h192a32 32 0 1 1 0 64h-448a32 32 0 1 1 0-64h192v-128H384a128 128 0 0 1-128-128V192a128 128 0 0 1 128-128h256a128 128 0 0 1 128 128v448a128 128 0 0 1-128 128H544z"  /></svg>