<?xml version="1.0" standalone="no"?><!DOCTYPE svg PUBLIC "-//W3C//DTD SVG 1.1//EN" "http://www.w3.org/Graphics/SVG/1.1/DTD/svg11.dtd"><svg class="icon" width="200px" height="200.00px" viewBox="0 0 1024 1024" version="1.1" xmlns="http://www.w3.org/2000/svg"><path fill="#333333" d="M416 128v-32A96 96 0 0 1 512 0h128a32 32 0 1 1 0 64H512a32 32 0 0 0-32 32V128h320a96 96 0 0 1 11.712 191.296l-39.68 581.056a64 64 0 0 1-63.808 59.648H315.776a64 64 0 0 1-63.872-59.648l-39.616-581.056A96 96 0 0 1 224 128h192zM276.48 320l39.296 576h392.448l4.8-70.784a224.064 224.064 0 0 1 30.016-439.808L747.52 320H276.48zM224 256h576a32 32 0 1 0 0-64h-576a32 32 0 0 0 0 64z m493.44 503.872l21.12-309.12a160 160 0 0 0-21.12 309.12z" /></svg>