<?xml version="1.0" standalone="no"?><!DOCTYPE svg PUBLIC "-//W3C//DTD SVG 1.1//EN" "http://www.w3.org/Graphics/SVG/1.1/DTD/svg11.dtd"><svg class="icon" width="200px" height="200.00px" viewBox="0 0 1024 1024" version="1.1" xmlns="http://www.w3.org/2000/svg"><path fill="#333333" d="M224 768v96.064a64 64 0 0 0 64 64h448a64 64 0 0 0 64-64V768h-576z m0-64h576V160a64 64 0 0 0-64-64h-448a64 64 0 0 0-64 64V704z m32 288A96 96 0 0 1 160 896V128A96 96 0 0 1 256 32h512A96 96 0 0 1 864 128v768a96 96 0 0 1-96 96H256z m304-144a48 48 0 1 1-96 0 48 48 0 0 1 96 0z" /></svg>