<?xml version="1.0" standalone="no"?><!DOCTYPE svg PUBLIC "-//W3C//DTD SVG 1.1//EN" "http://www.w3.org/Graphics/SVG/1.1/DTD/svg11.dtd"><svg class="icon" width="200px" height="200.00px" viewBox="0 0 1024 1024" version="1.1" xmlns="http://www.w3.org/2000/svg"><path fill="#333333" d="M256 128a64 64 0 0 0-64 64v640a64 64 0 0 0 64 64h512a64 64 0 0 0 64-64V192a64 64 0 0 0-64-64H256z m0-64h512a128 128 0 0 1 128 128v640a128 128 0 0 1-128 128H256a128 128 0 0 1-128-128V192a128 128 0 0 1 128-128z m128 128h256a32 32 0 1 1 0 64H384a32 32 0 0 1 0-64z m128 640a64 64 0 1 1 0-128 64 64 0 0 1 0 128z" /></svg>