<?xml version="1.0" standalone="no"?><!DOCTYPE svg PUBLIC "-//W3C//DTD SVG 1.1//EN" "http://www.w3.org/Graphics/SVG/1.1/DTD/svg11.dtd"><svg class="icon" width="200px" height="200.00px" viewBox="0 0 1024 1024" version="1.1" xmlns="http://www.w3.org/2000/svg"><path fill="#333333" d="M256 640v192h640V384h-128V320h150.976c14.272 0 19.456 1.472 24.64 4.288a29.056 29.056 0 0 1 12.16 12.096c2.752 5.184 4.224 10.368 4.224 24.64v493.952c0 14.272-1.472 19.456-4.288 24.64a29.056 29.056 0 0 1-12.096 12.16c-5.184 2.752-10.368 4.224-24.64 4.224H233.024c-14.272 0-19.456-1.472-24.64-4.288a29.056 29.056 0 0 1-12.16-12.096C193.536 874.432 192 869.248 192 855.04V640h64z"  /><path fill="#333333" d="M768 192H128v448h640V192z m64-22.976v493.952c0 14.272-1.472 19.456-4.288 24.64a29.056 29.056 0 0 1-12.096 12.16c-5.184 2.752-10.368 4.224-24.64 4.224H105.024c-14.272 0-19.456-1.472-24.64-4.288a29.056 29.056 0 0 1-12.16-12.096C65.536 682.432 64 677.248 64 663.04V169.024c0-14.272 1.472-19.456 4.288-24.64a29.056 29.056 0 0 1 12.096-12.16C85.568 129.536 90.752 128 104.96 128h685.952c14.272 0 19.456 1.472 24.64 4.288a29.056 29.056 0 0 1 12.16 12.096c2.752 5.184 4.224 10.368 4.224 24.64z"  /><path fill="#333333" d="M448 576a160 160 0 1 1 0-320 160 160 0 0 1 0 320z m0-64a96 96 0 1 0 0-192 96 96 0 0 0 0 192z"  /></svg>