<?xml version="1.0" standalone="no"?><!DOCTYPE svg PUBLIC "-//W3C//DTD SVG 1.1//EN" "http://www.w3.org/Graphics/SVG/1.1/DTD/svg11.dtd"><svg class="icon" width="200px" height="200.00px" viewBox="0 0 1024 1024" version="1.1" xmlns="http://www.w3.org/2000/svg"><path fill="#333333" d="M384 512a448 448 0 0 1 215.872-383.296A384 384 0 0 0 213.76 640h188.8A448.256 448.256 0 0 1 384 512z m-212.864 192a448 448 0 0 1 636.992-575.296A384 384 0 0 0 499.328 704h-328.32z"  /><path fill="#333333" d="M0 640m32 0l960 0q32 0 32 32l0 0q0 32-32 32l-960 0q-32 0-32-32l0 0q0-32 32-32Z"  /><path fill="#333333" d="M160 768h384a32 32 0 1 1 0 64h-384a32 32 0 1 1 0-64zM320 895.68l224 0.256a32 32 0 0 1 32 32v0.064a32 32 0 0 1-32 32L320 959.616a32 32 0 0 1-32-32v-0.064a32 32 0 0 1 32-32z"  /></svg>