<?xml version="1.0" standalone="no"?><!DOCTYPE svg PUBLIC "-//W3C//DTD SVG 1.1//EN" "http://www.w3.org/Graphics/SVG/1.1/DTD/svg11.dtd"><svg class="icon" width="200px" height="200.00px" viewBox="0 0 1024 1024" version="1.1" xmlns="http://www.w3.org/2000/svg"><path fill="#333333" d="M438.144 256c-68.352 0-92.736 4.672-117.76 18.112-20.096 10.752-35.52 26.176-46.272 46.272-13.44 25.024-18.112 49.408-18.112 117.76v275.712c0 68.352 4.672 92.736 18.112 117.76 10.752 20.096 26.176 35.52 46.272 46.272 25.024 13.44 49.408 18.112 117.76 18.112h147.712c68.352 0 92.736-4.672 117.76-18.112 20.096-10.752 35.52-26.176 46.272-46.272 13.44-25.024 18.112-49.408 18.112-117.76V438.144c0-68.352-4.672-92.736-18.112-117.76a110.464 110.464 0 0 0-46.272-46.272c-25.024-13.44-49.408-18.112-117.76-18.112H438.144z m0-64h147.712c85.568 0 116.608 8.96 147.904 25.6 31.36 16.768 55.872 41.344 72.576 72.64 16.768 31.296 25.664 62.336 25.664 147.84v275.84c0 85.504-8.96 116.544-25.6 147.84a174.464 174.464 0 0 1-72.64 72.576c-31.296 16.768-62.336 25.664-147.84 25.664h-147.84c-85.504 0-116.544-8.96-147.84-25.6A174.464 174.464 0 0 1 217.6 861.696c-16.768-31.296-25.664-62.336-25.664-147.84v-275.84c0-85.504 8.96-116.544 25.6-147.84A174.464 174.464 0 0 1 290.304 217.6C321.536 200.896 352.576 192 438.08 192z"  /><path fill="#333333" d="M480 320m32 0l0 0q32 0 32 32l0 128q0 32-32 32l0 0q-32 0-32-32l0-128q0-32 32-32Z"  /><path fill="#333333" d="M544 224a32 32 0 0 1-64 0v-64A32 32 0 0 0 448 128H352a32 32 0 0 1 0-64H448a96 96 0 0 1 96 96v64z"  /></svg>