<?xml version="1.0" standalone="no"?><!DOCTYPE svg PUBLIC "-//W3C//DTD SVG 1.1//EN" "http://www.w3.org/Graphics/SVG/1.1/DTD/svg11.dtd"><svg class="icon" width="200px" height="200.00px" viewBox="0 0 1024 1024" version="1.1" xmlns="http://www.w3.org/2000/svg"><path fill="#333333" d="M512 128v64H256a64 64 0 0 0-64 64v512a64 64 0 0 0 64 64h512a64 64 0 0 0 64-64V512h64v256a128 128 0 0 1-128 128H256a128 128 0 0 1-128-128V256a128 128 0 0 1 128-128h256z"  /><path fill="#333333" d="M768 384a128 128 0 1 0 0-256 128 128 0 0 0 0 256z m0 64a192 192 0 1 1 0-384 192 192 0 0 1 0 384z"  /></svg>