<?xml version="1.0" standalone="no"?><!DOCTYPE svg PUBLIC "-//W3C//DTD SVG 1.1//EN" "http://www.w3.org/Graphics/SVG/1.1/DTD/svg11.dtd"><svg class="icon" width="200px" height="200.00px" viewBox="0 0 1024 1024" version="1.1" xmlns="http://www.w3.org/2000/svg"><path fill="#333333" d="M440.256 576H256v128h56.256l-64 64H224a32 32 0 0 1-32-32v-192a32 32 0 0 1 32-32h280.256l-64 64z m143.488 128H704V583.744L775.744 512H928a32 32 0 0 1 32 32v192a32 32 0 0 1-32 32H519.744l64-64zM768 576v128h128V576h-128z"  /><path fill="#333333" d="M738.304 368.448l45.248 45.248-497.856 497.856-45.248-45.248zM256 64h64v320H256zM128 192h64v192H128zM64 512h64v256H64z"  /></svg>