<?xml version="1.0" standalone="no"?><!DOCTYPE svg PUBLIC "-//W3C//DTD SVG 1.1//EN" "http://www.w3.org/Graphics/SVG/1.1/DTD/svg11.dtd"><svg class="icon" width="200px" height="200.00px" viewBox="0 0 1024 1024" version="1.1" xmlns="http://www.w3.org/2000/svg"><path fill="#333333" d="M192 128v768h640V128H192z m-32-64h704a32 32 0 0 1 32 32v832a32 32 0 0 1-32 32h-704a32 32 0 0 1-32-32v-832a32 32 0 0 1 32-32z"  /><path fill="#333333" d="M672 128h64v768h-64z"  /><path fill="#333333" d="M64 192m32 0l128 0q32 0 32 32l0 0q0 32-32 32l-128 0q-32 0-32-32l0 0q0-32 32-32Z"  /><path fill="#333333" d="M64 384m32 0l128 0q32 0 32 32l0 0q0 32-32 32l-128 0q-32 0-32-32l0 0q0-32 32-32Z"  /><path fill="#333333" d="M64 576m32 0l128 0q32 0 32 32l0 0q0 32-32 32l-128 0q-32 0-32-32l0 0q0-32 32-32Z"  /><path fill="#333333" d="M64 768m32 0l128 0q32 0 32 32l0 0q0 32-32 32l-128 0q-32 0-32-32l0 0q0-32 32-32Z"  /></svg>