<?xml version="1.0" standalone="no"?><!DOCTYPE svg PUBLIC "-//W3C//DTD SVG 1.1//EN" "http://www.w3.org/Graphics/SVG/1.1/DTD/svg11.dtd"><svg class="icon" width="200px" height="200.00px" viewBox="0 0 1024 1024" version="1.1" xmlns="http://www.w3.org/2000/svg"><path fill="#333333" d="M192 128v704h384V128H192z m-32-64h448a32 32 0 0 1 32 32v768a32 32 0 0 1-32 32h-448a32 32 0 0 1-32-32v-768a32 32 0 0 1 32-32z"  /><path fill="#333333" d="M256 256h256v64H256V256z m0 192h256v64H256V448z m0 192h256v64H256v-64z m384-128h128v64h-128V512z m0 128h128v64h-128v-64z m-576 192h896v64H64v-64z"  /><path fill="#333333" d="M640 384v448h192V384h-192z m-32-64h256a32 32 0 0 1 32 32v512a32 32 0 0 1-32 32h-256a32 32 0 0 1-32-32v-512a32 32 0 0 1 32-32z"  /></svg>