<?xml version="1.0" standalone="no"?><!DOCTYPE svg PUBLIC "-//W3C//DTD SVG 1.1//EN" "http://www.w3.org/Graphics/SVG/1.1/DTD/svg11.dtd"><svg class="icon" width="200px" height="200.00px" viewBox="0 0 1024 1024" version="1.1" xmlns="http://www.w3.org/2000/svg"><path fill="#333333" d="M329.95555555 257.13777778a254.86222222 254.86222222 0 0 0 0 509.72444444h364.0888889a254.86222222 254.86222222 0 0 0 0-509.72444444h-364.0888889z m0-72.81777778h364.0888889a327.68 327.68 0 1 1 0 655.36h-364.0888889a327.68 327.68 0 1 1 0-655.36z"  /><path fill="#333333" d="M694.04444445 621.22666667a109.22666667 109.22666667 0 1 0 0-218.45333334 109.22666667 109.22666667 0 0 0 0 218.45333334z m0 72.81777778a182.04444445 182.04444445 0 1 1 0-364.0888889 182.04444445 182.04444445 0 0 1 0 364.0888889z"  /></svg>