<?xml version="1.0" standalone="no"?><!DOCTYPE svg PUBLIC "-//W3C//DTD SVG 1.1//EN" "http://www.w3.org/Graphics/SVG/1.1/DTD/svg11.dtd"><svg class="icon" width="200px" height="200.00px" viewBox="0 0 1024 1024" version="1.1" xmlns="http://www.w3.org/2000/svg"><path fill="#333333" d="M544 894.72a382.336 382.336 0 0 0 215.936-89.472L577.024 622.272c-10.24 6.016-21.248 10.688-33.024 13.696v258.688z m261.248-134.784A382.336 382.336 0 0 0 894.656 544H635.968c-3.008 11.776-7.68 22.848-13.696 33.024l182.976 182.912zM894.656 480a382.336 382.336 0 0 0-89.408-215.936L622.272 446.976c6.016 10.24 10.688 21.248 13.696 33.024h258.688z m-134.72-261.248A382.336 382.336 0 0 0 544 129.344v258.688c11.776 3.008 22.848 7.68 33.024 13.696l182.912-182.976zM480 129.344a382.336 382.336 0 0 0-215.936 89.408l182.912 182.976c10.24-6.016 21.248-10.688 33.024-13.696V129.344zM218.752 264.064A382.336 382.336 0 0 0 129.344 480h258.688c3.008-11.776 7.68-22.848 13.696-33.024L218.752 264.064zM129.344 544a382.336 382.336 0 0 0 89.408 215.936l182.976-182.912a127.232 127.232 0 0 1-13.696-33.024H129.344z m134.72 261.248A382.336 382.336 0 0 0 480 894.656V635.968a127.232 127.232 0 0 1-33.024-13.696l-182.912 182.976zM512 960A448 448 0 1 1 512 64a448 448 0 0 1 0 896z m0-384a64 64 0 1 0 0-128 64 64 0 0 0 0 128z" /></svg>