<?xml version="1.0" standalone="no"?><!DOCTYPE svg PUBLIC "-//W3C//DTD SVG 1.1//EN" "http://www.w3.org/Graphics/SVG/1.1/DTD/svg11.dtd"><svg class="icon" width="200px" height="200.00px" viewBox="0 0 1024 1024" version="1.1" xmlns="http://www.w3.org/2000/svg"><path fill="#333333" d="M79.36 432.256l512.384 512.384a32 32 0 0 0 35.2 6.784l253.44-108.544a32 32 0 0 0 9.984-52.032l-153.856-153.92a32 32 0 0 0-36.928-6.016l-69.888 34.944L358.08 394.24l35.008-69.888a32 32 0 0 0-5.952-36.928L233.152 133.568a32 32 0 0 0-52.032 10.048l-108.608 253.44a32 32 0 0 0 6.784 35.2z m60.48-29.952l81.536-190.08 104.192 104.256-24.64 49.216-20.608 41.216 32.576 32.64 271.552 271.552 32.64 32.64 41.216-20.672 49.28-24.576 104.192 104.128-190.08 81.472-481.856-481.792zM512 320V256a256 256 0 0 1 256 256h-64a192 192 0 0 0-192-192z m0-192V64a448 448 0 0 1 448 448h-64a384 384 0 0 0-384-384z" /></svg>