<?xml version="1.0" standalone="no"?><!DOCTYPE svg PUBLIC "-//W3C//DTD SVG 1.1//EN" "http://www.w3.org/Graphics/SVG/1.1/DTD/svg11.dtd"><svg class="icon" width="200px" height="200.00px" viewBox="0 0 1024 1024" version="1.1" xmlns="http://www.w3.org/2000/svg"><path fill="#333333" d="M160 160v704h704v-704h-704z m-32-64h768a32 32 0 0 1 32 32v768a32 32 0 0 1-32 32H128a32 32 0 0 1-32-32V128a32 32 0 0 1 32-32z"  /><path fill="#333333" d="M320 288m64 0l0 0q64 0 64 64l0 0q0 64-64 64l0 0q-64 0-64-64l0 0q0-64 64-64Z"  /><path fill="#333333" d="M185.408 876.992l-50.816-38.912L350.72 556.032a96 96 0 0 1 134.592-17.856l1.856 1.472 122.88 99.136a32 32 0 0 0 44.992-4.864l216-269.888 49.92 39.936-215.808 269.824-0.256 0.32a96 96 0 0 1-135.04 14.464l-122.88-99.072-0.64-0.512a32 32 0 0 0-44.8 5.952l-216.128 282.048z"  /></svg>