<?xml version="1.0" standalone="no"?><!DOCTYPE svg PUBLIC "-//W3C//DTD SVG 1.1//EN" "http://www.w3.org/Graphics/SVG/1.1/DTD/svg11.dtd"><svg class="icon" width="200px" height="200.00px" viewBox="0 0 1024 1024" version="1.1" xmlns="http://www.w3.org/2000/svg"><path fill="#333333" d="M96 896a32 32 0 0 1-32-32v-704a32 32 0 0 1 32-32h832a32 32 0 0 1 32 32v704a32 32 0 0 1-32 32h-832z m315.52-228.48L342.592 598.592a32 32 0 0 0-45.248 0L128 768.064h778.688l-242.112-290.56a32 32 0 0 0-49.216 0l-156.608 187.904a32 32 0 0 1-47.232 2.112zM256 384a96 96 0 1 0 192.064-0.064A96 96 0 0 0 256 384z" /></svg>