<?xml version="1.0" standalone="no"?><!DOCTYPE svg PUBLIC "-//W3C//DTD SVG 1.1//EN" "http://www.w3.org/Graphics/SVG/1.1/DTD/svg11.dtd"><svg class="icon" width="200px" height="200.00px" viewBox="0 0 1024 1024" version="1.1" xmlns="http://www.w3.org/2000/svg"><path fill="#333333" d="M512 128a384 384 0 1 0 0 768A384 384 0 0 0 512 128z m0-64a448 448 0 1 1 0 896A448 448 0 0 1 512 64z"  /><path fill="#333333" d="M576 288m64 0l0 0q64 0 64 64l0 0q0 64-64 64l0 0q-64 0-64-64l0 0q0-64 64-64Z"  /><path fill="#333333" d="M214.656 790.656l-45.312-45.312 185.664-185.6a96 96 0 0 1 123.712-10.24l138.24 98.688a32 32 0 0 0 39.872-2.176L906.688 422.4l42.624 47.744-249.792 223.552a96 96 0 0 1-119.808 6.592l-138.24-98.752a32 32 0 0 0-41.152 3.456l-185.664 185.6z"  /></svg>