<?xml version="1.0" standalone="no"?><!DOCTYPE svg PUBLIC "-//W3C//DTD SVG 1.1//EN" "http://www.w3.org/Graphics/SVG/1.1/DTD/svg11.dtd"><svg class="icon" width="200px" height="200.00px" viewBox="0 0 1024 1024" version="1.1" xmlns="http://www.w3.org/2000/svg"><path fill="#333333" d="M176 64h672c61.824 0 112 50.176 112 112v672A112 112 0 0 1 848 960H176A112 112 0 0 1 64 848V176C64 114.176 114.176 64 176 64z m150.528 173.568c-152.896 99.968-196.544 304.064-97.408 456.96a330.688 330.688 0 0 0 456.96 96.64c9.216-5.888 17.6-11.776 25.152-18.56a18.24 18.24 0 0 0 4.224-24.32l-15.104-23.488a47.552 47.552 0 0 0-65.536-14.272 234.56 234.56 0 0 1-324.224-68.928c-70.592-108.352-39.488-253.632 68.864-325.12a234.304 234.304 0 0 1 276.352 15.168c1.664 0.832 2.56 2.56 3.392 4.224 5.888 8.384 3.328 19.328-5.12 25.216L456.832 489.6a47.552 47.552 0 0 0-14.336 65.472l16 24.384c5.888 8.384 16.768 10.88 25.216 5.056l308.224-199.936a19.584 19.584 0 0 0 6.72-23.488v-0.896c-4.992-9.216-10.048-17.6-15.104-26.88-99.968-151.168-304.064-194.88-456.96-95.744z m460.352 267.136l-62.208 40.32c-8.32 5.888-10.88 16.768-4.992 25.216l40.32 62.08c5.888 8.448 16.768 11.008 25.152 5.12l31.104-20.16a55.36 55.36 0 0 0 16-76.48l-20.224-31.04a19.52 19.52 0 0 0-25.152-5.12z" /></svg>