<?xml version="1.0" standalone="no"?><!DOCTYPE svg PUBLIC "-//W3C//DTD SVG 1.1//EN" "http://www.w3.org/Graphics/SVG/1.1/DTD/svg11.dtd"><svg class="icon" width="200px" height="200.00px" viewBox="0 0 1024 1024" version="1.1" xmlns="http://www.w3.org/2000/svg"><path fill="#333333" d="M160 224A32 32 0 0 0 128 256v512a32 32 0 0 0 32 32h704a32 32 0 0 0 32-32V256a32 32 0 0 0-32-32h-704z m0-64h704A96 96 0 0 1 960 256v512a96 96 0 0 1-96 96h-704A96 96 0 0 1 64 768V256a96 96 0 0 1 96-96z"  /><path fill="#333333" d="M704 320a64 64 0 1 1 0 128 64 64 0 0 1 0-128z"  /><path fill="#333333" d="M256 448m32 0l256 0q32 0 32 32l0 0q0 32-32 32l-256 0q-32 0-32-32l0 0q0-32 32-32Z"  /><path fill="#333333" d="M256 576m32 0l256 0q32 0 32 32l0 0q0 32-32 32l-256 0q-32 0-32-32l0 0q0-32 32-32Z"  /></svg>