<?xml version="1.0" standalone="no"?><!DOCTYPE svg PUBLIC "-//W3C//DTD SVG 1.1//EN" "http://www.w3.org/Graphics/SVG/1.1/DTD/svg11.dtd"><svg class="icon" width="200px" height="200.00px" viewBox="0 0 1024 1024" version="1.1" xmlns="http://www.w3.org/2000/svg"><path fill="#333333" d="M608 224v-64a32 32 0 0 0-64 0v336h26.88a64 64 0 0 0 37.12-11.904V224zM709.12 384a64 64 0 0 0-37.12 11.904V384h64V224a32 32 0 1 0-64 0V384h37.12z m74.88 0a92.928 92.928 0 0 1 91.328 110.08l-60.672 323.584A96 96 0 0 1 720.32 896h-416.64a96 96 0 0 1-94.336-78.336L148.672 494.08A92.928 92.928 0 0 1 240 384H224V224a96 96 0 0 1 188.608-25.28 95.744 95.744 0 0 1 67.392-1.28V160a96 96 0 0 1 188.608-25.28A96 96 0 0 1 800 224V384h-16z m-113.216 128a128 128 0 0 1-99.904 48H453.12A128 128 0 0 1 353.28 512H352v-1.536a128.128 128.128 0 0 1-9.984-14.976L314.88 448H240a28.928 28.928 0 0 0-28.48 34.304L241.088 640h541.824l29.568-157.696A28.928 28.928 0 0 0 784 448h-74.88l-27.136 47.488c-3.008 5.248-6.336 10.24-9.984 14.976V512h-1.216zM480 288a32 32 0 0 0-64 0v196.096a64 64 0 0 0 37.12 11.904h26.88V288zM352 384V224a32 32 0 0 0-64 0V384h64-37.12a64 64 0 0 1 37.12 11.904z m-98.88 320l19.072 101.888a32 32 0 0 0 31.488 26.112h416.64a32 32 0 0 0 31.488-26.112L770.88 704h-517.76z" /></svg>