<?xml version="1.0" standalone="no"?><!DOCTYPE svg PUBLIC "-//W3C//DTD SVG 1.1//EN" "http://www.w3.org/Graphics/SVG/1.1/DTD/svg11.dtd"><svg class="icon" width="200px" height="200.00px" viewBox="0 0 1024 1024" version="1.1" xmlns="http://www.w3.org/2000/svg"><path fill="#333333" d="M512 863.36l384-54.848v-638.72l-370.432 52.928a96 96 0 0 1-27.136 0L128 169.792v638.72l384 54.848zM137.024 106.432l370.432 52.928a32 32 0 0 0 9.088 0l370.432-52.928a64 64 0 0 1 73.024 63.36v638.72a64 64 0 0 1-54.976 63.36l-388.48 55.488a32 32 0 0 1-9.088 0l-388.48-55.488a64 64 0 0 1-54.976-63.36v-638.72a64 64 0 0 1 73.024-63.36z"  /><path fill="#333333" d="M480 192h64v704h-64z"  /></svg>