<?xml version="1.0" standalone="no"?><!DOCTYPE svg PUBLIC "-//W3C//DTD SVG 1.1//EN" "http://www.w3.org/Graphics/SVG/1.1/DTD/svg11.dtd"><svg class="icon" width="200px" height="200.00px" viewBox="0 0 1024 1024" version="1.1" xmlns="http://www.w3.org/2000/svg"><path fill="#333333" d="M288 384h448v64h-448V384zM384 256h256v64H384V256zM131.456 512H384v128h256V512h252.544l-170.688-320H302.144L131.456 512zM896 576h-192v128H320V576H128v256h768V576zM275.776 128h472.448a32 32 0 0 1 28.608 17.664l179.84 359.552a32 32 0 0 1 3.328 14.336V864a32 32 0 0 1-32 32h-832a32 32 0 0 1-32-32V519.552a32 32 0 0 1 3.392-14.336l179.776-359.552A32 32 0 0 1 275.776 128z" /></svg>