<?xml version="1.0" standalone="no"?><!DOCTYPE svg PUBLIC "-//W3C//DTD SVG 1.1//EN" "http://www.w3.org/Graphics/SVG/1.1/DTD/svg11.dtd"><svg class="icon" width="200px" height="200.00px" viewBox="0 0 1024 1024" version="1.1" xmlns="http://www.w3.org/2000/svg"><path fill="#333333" d="M256 448h512V160a32 32 0 0 0-32-32h-448a32 32 0 0 0-32 32V448z m0 64v352a32 32 0 0 0 32 32h448a32 32 0 0 0 32-32V512H256z m32-448h448A96 96 0 0 1 832 160v704a96 96 0 0 1-96 96h-448A96 96 0 0 1 192 864v-704A96 96 0 0 1 288 64zM320 288h64V384H320V288zM320 576h64v96H320V576z" /></svg>