<?xml version="1.0" standalone="no"?><!DOCTYPE svg PUBLIC "-//W3C//DTD SVG 1.1//EN" "http://www.w3.org/Graphics/SVG/1.1/DTD/svg11.dtd"><svg class="icon" width="200px" height="200.00px" viewBox="0 0 1024 1024" version="1.1" xmlns="http://www.w3.org/2000/svg"><path fill="#333333" d="M771.776 794.88A384 384 0 0 1 128 512h64a320 320 0 0 0 555.712 216.448H654.72a32 32 0 1 1 0-64h149.056a32 32 0 0 1 32 32v148.928a32 32 0 1 1-64 0v-50.56zM276.288 295.616H369.28a32 32 0 0 1 0 64H220.16a32 32 0 0 1-32-32V178.56a32 32 0 0 1 64 0v50.56A384 384 0 0 1 896.128 512h-64a320 320 0 0 0-555.776-216.384z" /></svg>