<?xml version="1.0" standalone="no"?><!DOCTYPE svg PUBLIC "-//W3C//DTD SVG 1.1//EN" "http://www.w3.org/Graphics/SVG/1.1/DTD/svg11.dtd"><svg class="icon" width="200px" height="200.00px" viewBox="0 0 1024 1024" version="1.1" xmlns="http://www.w3.org/2000/svg"><path fill="#333333" d="M289.088 296.704H382.08a32 32 0 0 1 0 64H232.96a32 32 0 0 1-32-32V179.712a32 32 0 0 1 64 0v50.56A384 384 0 0 1 908.8 513.152a384 384 0 0 1-383.936 384 384 384 0 0 1-384-384h64a320 320 0 1 0 640 0 320 320 0 0 0-555.712-216.448z" /></svg>