<?xml version="1.0" standalone="no"?><!DOCTYPE svg PUBLIC "-//W3C//DTD SVG 1.1//EN" "http://www.w3.org/Graphics/SVG/1.1/DTD/svg11.dtd"><svg class="icon" width="200px" height="200.00px" viewBox="0 0 1024 1024" version="1.1" xmlns="http://www.w3.org/2000/svg"><path fill="#333333" d="M384 960v-64h192.064v64H384z m448-544a350.656 350.656 0 0 1-128.32 271.424c-38.336 31.616-63.68 76.352-63.68 126.08V832H320v-14.336c0-48-19.392-95.36-57.216-124.992a351.552 351.552 0 0 1-128.448-344.256c25.344-136.448 133.888-248.128 269.76-276.48A352.384 352.384 0 0 1 832 416zM288 448c0-132.288 75.904-224 192-224v-64c-154.432 0-256 122.752-256 288h64z" /></svg>