<?xml version="1.0" standalone="no"?><!DOCTYPE svg PUBLIC "-//W3C//DTD SVG 1.1//EN" "http://www.w3.org/Graphics/SVG/1.1/DTD/svg11.dtd"><svg class="icon" width="200px" height="200.00px" viewBox="0 0 1024 1024" version="1.1" xmlns="http://www.w3.org/2000/svg"><path fill="#333333" d="M389.44 768a96.064 96.064 0 0 1 181.12 0H896v64H570.56a96.064 96.064 0 0 1-181.12 0H128v-64h261.44z m192-288a96.064 96.064 0 0 1 181.12 0H896v64h-133.44a96.064 96.064 0 0 1-181.12 0H128v-64h453.44z m-320-288a96.064 96.064 0 0 1 181.12 0H896v64H442.56a96.064 96.064 0 0 1-181.12 0H128V192h133.44z" /></svg>