<?xml version="1.0" standalone="no"?><!DOCTYPE svg PUBLIC "-//W3C//DTD SVG 1.1//EN" "http://www.w3.org/Graphics/SVG/1.1/DTD/svg11.dtd"><svg class="icon" width="200px" height="200.00px" viewBox="0 0 1024 1024" version="1.1" xmlns="http://www.w3.org/2000/svg"><path fill="#333333" d="M224 128v704h576V128h-576zM192 64h640a32 32 0 0 1 32 32v768a32 32 0 0 1-32 32H192a32 32 0 0 1-32-32v-768A32 32 0 0 1 192 64z"  /><path fill="#333333" d="M64 832h896v64H64zM320 192h128v96H320z"  /><path fill="#333333" d="M384 832h256v-64a128 128 0 1 0-256 0v64z m128-256a192 192 0 0 1 192 192v128H320v-128a192 192 0 0 1 192-192z"  /><path fill="#333333" d="M320 384h128v96H320zM576 192h128v96H576zM576 384h128v96H576z"  /></svg>