<?xml version="1.0" standalone="no"?><!DOCTYPE svg PUBLIC "-//W3C//DTD SVG 1.1//EN" "http://www.w3.org/Graphics/SVG/1.1/DTD/svg11.dtd"><svg class="icon" width="200px" height="200.00px" viewBox="0 0 1024 1024" version="1.1" xmlns="http://www.w3.org/2000/svg"><path fill="#333333" d="M224 160a64 64 0 0 0-64 64v576a64 64 0 0 0 64 64h576a64 64 0 0 0 64-64v-576a64 64 0 0 0-64-64h-576z m0-64h576a128 128 0 0 1 128 128v576a128 128 0 0 1-128 128h-576a128 128 0 0 1-128-128v-576a128 128 0 0 1 128-128z"  /><path fill="#333333" d="M384 416a64 64 0 1 0 0-128 64 64 0 0 0 0 128z m0 64a128 128 0 1 1 0-256 128 128 0 0 1 0 256z"  /><path fill="#333333" d="M448 320m32 0l256 0q32 0 32 32l0 0q0 32-32 32l-256 0q-32 0-32-32l0 0q0-32 32-32Z"  /><path fill="#333333" d="M640 736a64 64 0 1 0 0-128 64 64 0 0 0 0 128z m0 64a128 128 0 1 1 0-256 128 128 0 0 1 0 256z"  /><path fill="#333333" d="M256 640m32 0l256 0q32 0 32 32l0 0q0 32-32 32l-256 0q-32 0-32-32l0 0q0-32 32-32Z"  /></svg>