<?xml version="1.0" standalone="no"?><!DOCTYPE svg PUBLIC "-//W3C//DTD SVG 1.1//EN" "http://www.w3.org/Graphics/SVG/1.1/DTD/svg11.dtd"><svg class="icon" width="200px" height="200.00px" viewBox="0 0 1024 1024" version="1.1" xmlns="http://www.w3.org/2000/svg"><path fill="#333333" d="M192 320v576h640V320H192z m-32-64h704a32 32 0 0 1 32 32v640a32 32 0 0 1-32 32h-704a32 32 0 0 1-32-32v-640a32 32 0 0 1 32-32z"  /><path fill="#333333" d="M640 448V256a128 128 0 1 0-256 0v192H320V256a192 192 0 1 1 384 0v192h-64z"  /></svg>