<?xml version="1.0" standalone="no"?><!DOCTYPE svg PUBLIC "-//W3C//DTD SVG 1.1//EN" "http://www.w3.org/Graphics/SVG/1.1/DTD/svg11.dtd"><svg class="icon" width="200px" height="200.00px" viewBox="0 0 1024 1024" version="1.1" xmlns="http://www.w3.org/2000/svg"><path fill="#333333" d="M96 128h823.04a32 32 0 0 1 31.04 39.744l-112 448a32 32 0 0 1-31.04 24.256H256v64h608a32 32 0 1 1 0 64H192V192H96a32 32 0 0 1 0-64zM256 192v384h525.888l96.576-384H256zM368 928a48 48 0 1 1 0-96 48 48 0 0 1 0 96z m320 0a48 48 0 1 1 0-96 48 48 0 0 1 0 96z" /></svg>