<?xml version="1.0" standalone="no"?><!DOCTYPE svg PUBLIC "-//W3C//DTD SVG 1.1//EN" "http://www.w3.org/Graphics/SVG/1.1/DTD/svg11.dtd"><svg class="icon" width="200px" height="200.00px" viewBox="0 0 1024 1024" version="1.1" xmlns="http://www.w3.org/2000/svg"><path fill="#333333" d="M432 928a48 48 0 1 1 0-96 48 48 0 0 1 0 96z m320 0a48 48 0 1 1 0-96 48 48 0 0 1 0 96z"  /><path fill="#333333" d="M96 128a32 32 0 0 1 0-64H256a32 32 0 0 1 31.36 25.728L320.64 256h607.36a32 32 0 0 1 31.296 38.72l-96 448A32 32 0 0 1 832 768H384a32 32 0 0 1-31.36-25.728L229.76 128H96z m314.24 576h395.904l82.304-384H333.44l76.8 384z"  /></svg>