<?xml version="1.0" standalone="no"?><!DOCTYPE svg PUBLIC "-//W3C//DTD SVG 1.1//EN" "http://www.w3.org/Graphics/SVG/1.1/DTD/svg11.dtd"><svg class="icon" width="200px" height="200.00px" viewBox="0 0 1024 1024" version="1.1" xmlns="http://www.w3.org/2000/svg"><path fill="#333333" d="M704 320v96a32 32 0 0 1-32 32H640V320H384v128h-32a32 32 0 0 1-32-32V320H192v576h640V320h-128zM320 256a192 192 0 1 1 384 0h160a32 32 0 0 1 32 32v640a32 32 0 0 1-32 32h-704a32 32 0 0 1-32-32v-640a32 32 0 0 1 32-32H320z m64 0h256a128 128 0 1 0-256 0z"  /><path fill="#333333" d="M192 704h640v64H192z"  /></svg>