<?xml version="1.0" standalone="no"?><!DOCTYPE svg PUBLIC "-//W3C//DTD SVG 1.1//EN" "http://www.w3.org/Graphics/SVG/1.1/DTD/svg11.dtd"><svg class="icon" width="200px" height="200.00px" viewBox="0 0 1024 1024" version="1.1" xmlns="http://www.w3.org/2000/svg"><path fill="#333333" d="M256 576v128h640V576H256z m-32-64h704a32 32 0 0 1 32 32v192a32 32 0 0 1-32 32h-704a32 32 0 0 1-32-32v-192a32 32 0 0 1 32-32z"  /><path fill="#333333" d="M704 576h64v128h-64zM256 64h64v320H256zM128 192h64v192H128zM64 512h64v256H64z"  /></svg>