<?xml version="1.0" standalone="no"?><!DOCTYPE svg PUBLIC "-//W3C//DTD SVG 1.1//EN" "http://www.w3.org/Graphics/SVG/1.1/DTD/svg11.dtd"><svg class="icon" width="200px" height="200.00px" viewBox="0 0 1024 1024" version="1.1" xmlns="http://www.w3.org/2000/svg"><path fill="#333333" d="M418.496 871.04l-266.24-266.24c-16.512 94.016-2.368 178.624 42.944 224 44.928 44.928 129.344 58.752 223.296 42.24z m72.32-18.176a573.056 573.056 0 0 0 224.832-137.216 573.12 573.12 0 0 0 137.216-224.832L533.888 171.84a578.56 578.56 0 0 0-227.52 138.496A567.68 567.68 0 0 0 170.432 532.48l320.384 320.384z m380.224-434.368c16.512-93.952 2.688-178.368-42.24-223.296-44.544-44.544-128.704-58.048-222.592-41.536l264.832 264.832zM149.952 874.048C36.992 761.088 61.12 465.088 261.12 265.088c199.936-199.936 499.84-228.16 612.928-115.136 113.024 113.024 86.784 411.008-113.152 610.944-199.936 199.936-497.92 226.112-610.944 113.152z m452.544-497.792l22.656-22.656a32 32 0 0 1 45.248 45.248l-22.656 22.656 45.248 45.248a32 32 0 1 1-45.248 45.248l-45.248-45.248L557.248 512l45.248 45.248a32 32 0 1 1-45.248 45.248L512 557.248l-45.248 45.248 45.248 45.248a32 32 0 1 1-45.248 45.248l-45.248-45.248-22.656 22.656a32 32 0 1 1-45.248-45.248l22.656-22.656-45.248-45.248A32 32 0 1 1 376.256 512l45.248 45.248L466.752 512l-45.248-45.248a32 32 0 1 1 45.248-45.248L512 466.752l45.248-45.248L512 376.256a32 32 0 0 1 45.248-45.248l45.248 45.248z" /></svg>