<?xml version="1.0" standalone="no"?><!DOCTYPE svg PUBLIC "-//W3C//DTD SVG 1.1//EN" "http://www.w3.org/Graphics/SVG/1.1/DTD/svg11.dtd"><svg class="icon" width="200px" height="200.00px" viewBox="0 0 1024 1024" version="1.1" xmlns="http://www.w3.org/2000/svg"><path fill="#333333" d="M384 96a32 32 0 0 1 64 0v786.752a32 32 0 0 1-54.592 22.656L95.936 608a32 32 0 0 1 0-45.312h0.128a32 32 0 0 1 45.184 0L384 805.632V96z m192 45.248a32 32 0 0 1 54.592-22.592L928.064 416a32 32 0 0 1 0 45.312h-0.128a32 32 0 0 1-45.184 0L640 218.496V928a32 32 0 1 1-64 0V141.248z" /></svg>