<?xml version="1.0" standalone="no"?><!DOCTYPE svg PUBLIC "-//W3C//DTD SVG 1.1//EN" "http://www.w3.org/Graphics/SVG/1.1/DTD/svg11.dtd"><svg class="icon" width="200px" height="200.00px" viewBox="0 0 1024 1024" version="1.1" xmlns="http://www.w3.org/2000/svg"><path fill="#333333" d="M512 747.84l228.16 119.936a6.4 6.4 0 0 0 9.28-6.72l-43.52-254.08 184.512-179.904a6.4 6.4 0 0 0-3.52-10.88l-255.104-37.12L517.76 147.904a6.4 6.4 0 0 0-11.52 0L392.192 379.072l-255.104 37.12a6.4 6.4 0 0 0-3.52 10.88L318.08 606.976l-43.584 254.08a6.4 6.4 0 0 0 9.28 6.72L512 747.84z m-198.4 176.64a70.4 70.4 0 0 1-102.144-74.24l37.888-220.928L88.96 472.96a70.4 70.4 0 0 1 39.04-120.064l221.76-32.256 99.2-200.96a70.4 70.4 0 0 1 126.208 0l99.2 200.96 221.824 32.256a70.4 70.4 0 0 1 39.04 120.064l-160.512 156.416 37.888 220.928a70.4 70.4 0 0 1-102.144 74.24L512 820.096l-198.4 104.32z" /></svg>