<?xml version="1.0" standalone="no"?><!DOCTYPE svg PUBLIC "-//W3C//DTD SVG 1.1//EN" "http://www.w3.org/Graphics/SVG/1.1/DTD/svg11.dtd"><svg class="icon" width="200px" height="200.00px" viewBox="0 0 1024 1024" version="1.1" xmlns="http://www.w3.org/2000/svg"><path fill="#333333" d="M801.728 349.184l4.48 4.48a128 128 0 0 1 0 180.992l-271.552 271.488a128 128 0 0 1-181.056 0l-4.48-4.48-19.392 109.696a64 64 0 0 1-108.288 34.176L78.464 802.56a64 64 0 0 1 34.176-108.288l109.76-19.328-4.544-4.544a128 128 0 0 1 0-181.056l271.488-271.488a128 128 0 0 1 181.056 0l4.48 4.48 19.392-109.504a64 64 0 0 1 108.352-34.048l142.592 143.04a64 64 0 0 1-34.24 108.16l-109.248 19.2zM252.928 547.904h447.168v2.24l60.8-60.8a63.808 63.808 0 0 0 18.752-44.416h-426.88L263.104 534.656a64.064 64.064 0 0 0-10.24 13.248z m0 64c2.752 4.736 6.144 9.152 10.176 13.248l135.744 135.744a64 64 0 0 0 90.496 0l149.056-148.992H252.928z m490.048-230.976L625.152 263.104a64 64 0 0 0-90.496 0L416.768 380.928h326.208z m-619.264 376.384l142.976 142.976 24.32-137.6a25.6 25.6 0 0 0-29.696-29.632l-137.6 24.256z m633.6-633.344l-24.32 137.472a25.6 25.6 0 0 0 29.632 29.632l137.28-24.064-142.656-143.04z" /></svg>