<?xml version="1.0" standalone="no"?><!DOCTYPE svg PUBLIC "-//W3C//DTD SVG 1.1//EN" "http://www.w3.org/Graphics/SVG/1.1/DTD/svg11.dtd"><svg class="icon" width="200px" height="200.00px" viewBox="0 0 1024 1024" version="1.1" xmlns="http://www.w3.org/2000/svg"><path fill="#333333" d="M128 384h768V320a64 64 0 0 0-64-64H192a64 64 0 0 0-64 64v64z m0 64v320a64 64 0 0 0 64 64h64V448H128z m192 384h384V448H320v384z m448 0h64a64 64 0 0 0 64-64V448h-128v384zM192 192h640a128 128 0 0 1 128 128v448a128 128 0 0 1-128 128H192a128 128 0 0 1-128-128V320a128 128 0 0 1 128-128z"  /><path fill="#333333" d="M384 128v64h256V128H384z m0-64h256a64 64 0 0 1 64 64v64a64 64 0 0 1-64 64H384a64 64 0 0 1-64-64V128a64 64 0 0 1 64-64z"  /></svg>