<?xml version="1.0" standalone="no"?><!DOCTYPE svg PUBLIC "-//W3C//DTD SVG 1.1//EN" "http://www.w3.org/Graphics/SVG/1.1/DTD/svg11.dtd"><svg class="icon" width="200px" height="200.00px" viewBox="0 0 1024 1024" version="1.1" xmlns="http://www.w3.org/2000/svg"><path fill="#333333" d="M512 704a192 192 0 1 0 0-384 192 192 0 0 0 0 384z m0 64a256 256 0 1 1 0-512 256 256 0 0 1 0 512z"  /><path fill="#333333" d="M512 64a32 32 0 0 1 32 32v64a32 32 0 0 1-64 0v-64A32 32 0 0 1 512 64z m0 768a32 32 0 0 1 32 32v64a32 32 0 1 1-64 0v-64A32 32 0 0 1 512 832zM195.2 195.2a32 32 0 0 1 45.248 0l45.248 45.248a32 32 0 1 1-45.248 45.248l-45.248-45.248a32 32 0 0 1 0-45.248z m543.104 543.104a32 32 0 0 1 45.248 0l45.248 45.248a32 32 0 0 1-45.248 45.248l-45.248-45.248a32 32 0 0 1 0-45.248zM64 512a32 32 0 0 1 32-32h64a32 32 0 0 1 0 64h-64A32 32 0 0 1 64 512z m768 0a32 32 0 0 1 32-32h64a32 32 0 1 1 0 64h-64A32 32 0 0 1 832 512z m-636.8 316.8a32 32 0 0 1 0-45.248l45.248-45.248a32 32 0 0 1 45.248 45.248l-45.248 45.248a32 32 0 0 1-45.248 0z m543.104-543.104a32 32 0 0 1 0-45.248l45.248-45.248a32 32 0 0 1 45.248 45.248l-45.248 45.248a32 32 0 0 1-45.248 0z"  /></svg>