<?xml version="1.0" standalone="no"?><!DOCTYPE svg PUBLIC "-//W3C//DTD SVG 1.1//EN" "http://www.w3.org/Graphics/SVG/1.1/DTD/svg11.dtd"><svg class="icon" width="200px" height="200.00px" viewBox="0 0 1024 1024" version="1.1" xmlns="http://www.w3.org/2000/svg"><path fill="#333333" d="M32 704h960a32 32 0 1 1 0 64H32a32 32 0 1 1 0-64z"  /><path fill="#333333" d="M256 832m32 0l448 0q32 0 32 32l0 0q0 32-32 32l-448 0q-32 0-32-32l0 0q0-32 32-32Z"  /><path fill="#333333" d="M160 640a352 352 0 0 1 704 0h-64a288 288 0 1 0-576 0h-64z"  /><path fill="#333333" d="M512 64a32 32 0 0 1 32 32V192a32 32 0 0 1-64 0V96A32 32 0 0 1 512 64zM919.296 232.704a32 32 0 0 1 0 45.248l-67.84 67.84a32 32 0 1 1-45.248-45.248l67.84-67.84a32 32 0 0 1 45.248 0zM104.704 232.704a32 32 0 0 1 45.248 0l67.84 67.84a32 32 0 1 1-45.248 45.248l-67.84-67.84a32 32 0 0 1 0-45.248z"  /></svg>