<?xml version="1.0" standalone="no"?><!DOCTYPE svg PUBLIC "-//W3C//DTD SVG 1.1//EN" "http://www.w3.org/Graphics/SVG/1.1/DTD/svg11.dtd"><svg class="icon" width="200px" height="200.00px" viewBox="0 0 1024 1024" version="1.1" xmlns="http://www.w3.org/2000/svg"><path fill="#333333" d="M82.56 640a448 448 0 1 1 858.88 0H874.24a384 384 0 1 0-724.288 0H82.56z"  /><path fill="#333333" d="M0 704m32 0l960 0q32 0 32 32l0 0q0 32-32 32l-960 0q-32 0-32-32l0 0q0-32 32-32Z"  /><path fill="#333333" d="M256 832m32 0l448 0q32 0 32 32l0 0q0 32-32 32l-448 0q-32 0-32-32l0 0q0-32 32-32Z"  /></svg>