<?xml version="1.0" standalone="no"?><!DOCTYPE svg PUBLIC "-//W3C//DTD SVG 1.1//EN" "http://www.w3.org/Graphics/SVG/1.1/DTD/svg11.dtd"><svg class="icon" width="200px" height="200.00px" viewBox="0 0 1024 1024" version="1.1" xmlns="http://www.w3.org/2000/svg"><path fill="#333333" d="M714.432 704a351.744 351.744 0 0 0 148.16-256H161.408a351.744 351.744 0 0 0 148.16 256h404.864z m-426.432 62.592a415.68 415.68 0 0 1-192-350.592A32 32 0 0 1 128 384h768a32 32 0 0 1 32 32 415.68 415.68 0 0 1-192 350.592V832a64 64 0 0 1-64 64h-320a64 64 0 0 1-64-64v-65.408zM493.248 320H402.752l254.4-254.4a32 32 0 1 1 45.248 45.248L493.248 320z m187.328 0h-128l269.696-155.712a32 32 0 0 1 32 55.424L680.576 320zM352 768v64h320v-64h-320z" /></svg>