<?xml version="1.0" standalone="no"?><!DOCTYPE svg PUBLIC "-//W3C//DTD SVG 1.1//EN" "http://www.w3.org/Graphics/SVG/1.1/DTD/svg11.dtd"><svg class="icon" width="200px" height="200.00px" viewBox="0 0 1024 1024" version="1.1" xmlns="http://www.w3.org/2000/svg"><path fill="#333333" d="M320 896m32 0l320 0q32 0 32 32l0 0q0 32-32 32l-320 0q-32 0-32-32l0 0q0-32 32-32Z"  /><path fill="#333333" d="M307.328 128L207.808 576h608.384l-99.52-448H307.328z m-25.6-64h460.608a32 32 0 0 1 31.232 25.088l113.792 512a32 32 0 0 1-31.232 38.912H167.872a32 32 0 0 1-31.232-38.912l113.792-512A32 32 0 0 1 281.664 64z"  /><path fill="#333333" d="M640 576m32 0l0 0q32 0 32 32l0 128q0 32-32 32l0 0q-32 0-32-32l0-128q0-32 32-32Z"  /><path fill="#333333" d="M480 575.936h64V960h-64z"  /></svg>