<?xml version="1.0" standalone="no"?><!DOCTYPE svg PUBLIC "-//W3C//DTD SVG 1.1//EN" "http://www.w3.org/Graphics/SVG/1.1/DTD/svg11.dtd"><svg class="icon" width="200px" height="200.00px" viewBox="0 0 1024 1024" version="1.1" xmlns="http://www.w3.org/2000/svg"><path fill="#333333" d="M832 384H192v448h640V384zM96 320h832V128h-832v192zM896 384v480a32 32 0 0 1-32 32h-704a32 32 0 0 1-32-32V384H64a32 32 0 0 1-32-32v-256A32 32 0 0 1 64 64h896a32 32 0 0 1 32 32v256a32 32 0 0 1-32 32h-64zM416 512h192a32 32 0 0 1 0 64h-192a32 32 0 0 1 0-64z" /></svg>