<?xml version="1.0" standalone="no"?><!DOCTYPE svg PUBLIC "-//W3C//DTD SVG 1.1//EN" "http://www.w3.org/Graphics/SVG/1.1/DTD/svg11.dtd"><svg class="icon" width="200px" height="200.00px" viewBox="0 0 1024 1024" version="1.1" xmlns="http://www.w3.org/2000/svg"><path fill="#333333" d="M512 896A320 320 0 1 0 512 256a320 320 0 0 0 0 640z m0 64A384 384 0 1 1 512 192a384 384 0 0 1 0 768z"  /><path fill="#333333" d="M512 320a32 32 0 0 1 32 32L543.488 576a32 32 0 1 1-64 0L480 352A32 32 0 0 1 512 320z"  /><path fill="#333333" d="M512 576m-64 0a64 64 0 1 0 128 0 64 64 0 1 0-128 0Z"  /><path fill="#333333" d="M544 128v128h-64V128H384a32 32 0 0 1 0-64h256a32 32 0 1 1 0 64H544z"  /></svg>