<?xml version="1.0" standalone="no"?><!DOCTYPE svg PUBLIC "-//W3C//DTD SVG 1.1//EN" "http://www.w3.org/Graphics/SVG/1.1/DTD/svg11.dtd"><svg class="icon" width="200px" height="200.00px" viewBox="0 0 1024 1024" version="1.1" xmlns="http://www.w3.org/2000/svg"><path fill="#333333" d="M128.896 736H96A32 32 0 0 1 64 704V224a32 32 0 0 1 32-32h576a32 32 0 0 1 32 32V320h164.544a32 32 0 0 1 31.616 27.136l54.144 352a32 32 0 0 1-31.616 36.864h-91.52a144 144 0 1 1-286.272 0H415.104a144 144 0 1 1-286.272 0z m23.36-64a143.872 143.872 0 0 1 239.488 0H568.32c17.088-25.6 42.24-45.376 71.744-55.808V256H128v416h24.256z m655.488 0h77.632l-19.648-128H704v64.896a144 144 0 0 1 103.744 63.104z m48.128-192l-14.72-96H704v96h151.872zM688 832a80 80 0 1 0 0-160 80 80 0 0 0 0 160z m-416 0a80 80 0 1 0 0-160 80 80 0 0 0 0 160z"  /></svg>