<?xml version="1.0" standalone="no"?><!DOCTYPE svg PUBLIC "-//W3C//DTD SVG 1.1//EN" "http://www.w3.org/Graphics/SVG/1.1/DTD/svg11.dtd"><svg class="icon" width="200px" height="200.00px" viewBox="0 0 1024 1024" version="1.1" xmlns="http://www.w3.org/2000/svg"><path fill="#333333" d="M412.16 592.128l-45.44 45.44A191.232 191.232 0 0 1 320 512V256a192 192 0 1 1 384 0v44.352l-64 64V256a128 128 0 1 0-256 0v256c0 30.336 10.56 58.24 28.16 80.128z m51.968 38.592A128 128 0 0 0 640 512v-57.152l64-64V512a192 192 0 0 1-287.68 166.528l47.808-47.808zM314.88 779.968l46.144-46.08A222.976 222.976 0 0 0 480 768h64A224 224 0 0 0 768 544V512a32 32 0 1 1 64 0v32A288 288 0 0 1 544 832v64h64a32 32 0 1 1 0 64h-192a32 32 0 1 1 0-64h64v-64c-61.44 0-118.4-19.2-165.12-52.032z m-48.128-42.368A286.976 286.976 0 0 1 192 544V512a32 32 0 0 1 64 0v32c0 56.832 21.184 108.8 56.064 148.288l-45.312 45.312z"  /><path fill="#333333" d="M150.72 859.072a32 32 0 0 1-45.44-45.056l704-708.544a32 32 0 0 1 45.44 45.056l-704 708.544z"  /></svg>