<?xml version="1.0" standalone="no"?><!DOCTYPE svg PUBLIC "-//W3C//DTD SVG 1.1//EN" "http://www.w3.org/Graphics/SVG/1.1/DTD/svg11.dtd"><svg class="icon" width="200px" height="200.00px" viewBox="0 0 1024 1024" version="1.1" xmlns="http://www.w3.org/2000/svg"><path fill="#333333" d="M224 448a32 32 0 0 0-32 32v384a32 32 0 0 0 32 32h576a32 32 0 0 0 32-32v-384a32 32 0 0 0-32-32h-576z m0-64h576A96 96 0 0 1 896 480v384a96 96 0 0 1-96 96h-576A96 96 0 0 1 128 864v-384A96 96 0 0 1 224 384z"  /><path fill="#333333" d="M512 544a32 32 0 0 1 32 32v192a32 32 0 1 1-64 0V576a32 32 0 0 1 32-32z"  /><path fill="#333333" d="M690.304 248.704A192.064 192.064 0 0 0 320 320v64h352l96 38.4V448H256V320a256 256 0 0 1 493.76-95.104l-59.456 23.808z"  /></svg>