<?xml version="1.0" standalone="no"?><!DOCTYPE svg PUBLIC "-//W3C//DTD SVG 1.1//EN" "http://www.w3.org/Graphics/SVG/1.1/DTD/svg11.dtd"><svg class="icon" width="200px" height="200.00px" viewBox="0 0 1024 1024" version="1.1" xmlns="http://www.w3.org/2000/svg"><path fill="#333333" d="M544 864v-192h128L512 480l-160 192h128v192H320v-1.6c-5.376 0.32-10.496 1.6-16 1.6A240 240 0 0 1 64 624c0-123.136 93.12-223.488 212.608-237.248A239.808 239.808 0 0 1 512 192a239.872 239.872 0 0 1 235.456 194.752c119.488 13.76 212.48 114.112 212.48 237.248a240 240 0 0 1-240 240c-5.376 0-10.56-1.28-16-1.6v1.6H544z" /></svg>