<?xml version="1.0" standalone="no"?><!DOCTYPE svg PUBLIC "-//W3C//DTD SVG 1.1//EN" "http://www.w3.org/Graphics/SVG/1.1/DTD/svg11.dtd"><svg class="icon" width="200px" height="200.00px" viewBox="0 0 1024 1024" version="1.1" xmlns="http://www.w3.org/2000/svg"><path fill="#333333" d="M512 512a192 192 0 1 0 0-384 192 192 0 0 0 0 384z m0 64a256 256 0 1 1 0-512 256 256 0 0 1 0 512zM832 896v-96a96 96 0 0 0-96-96h-448A96 96 0 0 0 192 800V896a32 32 0 1 1-64 0v-96A160 160 0 0 1 288 640h448a160 160 0 0 1 160 160V896a32 32 0 1 1-64 0z" /></svg>