<?xml version="1.0" standalone="no"?><!DOCTYPE svg PUBLIC "-//W3C//DTD SVG 1.1//EN" "http://www.w3.org/Graphics/SVG/1.1/DTD/svg11.dtd"><svg class="icon" width="200px" height="200.00px" viewBox="0 0 1024 1024" version="1.1" xmlns="http://www.w3.org/2000/svg"><path fill="#333333" d="M512 64a448 448 0 1 1 0 896A448 448 0 0 1 512 64z m0 832A384 384 0 0 0 512 128a384 384 0 0 0 0 768zM384 352m32 0l0 0q32 0 32 32l0 256q0 32-32 32l0 0q-32 0-32-32l0-256q0-32 32-32ZM576 352m32 0l0 0q32 0 32 32l0 256q0 32-32 32l0 0q-32 0-32-32l0-256q0-32 32-32Z" /></svg>