<?xml version="1.0" standalone="no"?><!DOCTYPE svg PUBLIC "-//W3C//DTD SVG 1.1//EN" "http://www.w3.org/Graphics/SVG/1.1/DTD/svg11.dtd"><svg class="icon" width="200px" height="200.00px" viewBox="0 0 1024 1024" version="1.1" xmlns="http://www.w3.org/2000/svg"><path fill="#333333" d="M512 64a448 448 0 1 1 0 896A448 448 0 0 1 512 64z m0 832A384 384 0 0 0 512 128a384 384 0 0 0 0 768zM464 648.384L668.608 512 464 375.616v272.768z m10.624-342.656l249.472 166.336a48 48 0 0 1 0 79.872l-249.472 166.336a48 48 0 0 1-74.624-39.936V345.6a48 48 0 0 1 74.624-39.936z" /></svg>