<?xml version="1.0" standalone="no"?><!DOCTYPE svg PUBLIC "-//W3C//DTD SVG 1.1//EN" "http://www.w3.org/Graphics/SVG/1.1/DTD/svg11.dtd"><svg class="icon" width="200px" height="200.00px" viewBox="0 0 1024 1024" version="1.1" xmlns="http://www.w3.org/2000/svg"><path fill="#333333" d="M704 768V256H128v512h576z m64-416L960 256v512l-192-96v128a32 32 0 0 1-32 32h-640a32 32 0 0 1-32-32v-576a32 32 0 0 1 32-32h640a32 32 0 0 1 32 32v128z m0 71.552v176.896l128 64V359.552l-128 64zM192 320h192v64H192V320z" /></svg>