<?xml version="1.0" standalone="no"?><!DOCTYPE svg PUBLIC "-//W3C//DTD SVG 1.1//EN" "http://www.w3.org/Graphics/SVG/1.1/DTD/svg11.dtd"><svg class="icon" width="200px" height="200.00px" viewBox="0 0 1024 1024" version="1.1" xmlns="http://www.w3.org/2000/svg"><path fill="#333333" d="M512 160c320 0 512 352 512 352s-192 352-512 352S0 512 0 512s192-352 512-352z m0 64C286.72 224 127.872 432.064 75.2 512 127.808 591.872 286.656 800 512 800c225.28 0 384.128-208.064 436.8-288C896.192 432.128 737.344 224 512 224z m0 64a224 224 0 1 1 0 448 224 224 0 0 1 0-448z m0 64A160.192 160.192 0 0 0 352 512c0 88.192 71.744 160 160 160s160-71.808 160-160S600.256 352 512 352z" /></svg>