<?xml version="1.0" standalone="no"?><!DOCTYPE svg PUBLIC "-//W3C//DTD SVG 1.1//EN" "http://www.w3.org/Graphics/SVG/1.1/DTD/svg11.dtd"><svg class="icon" width="200px" height="200.00px" viewBox="0 0 1024 1024" version="1.1" xmlns="http://www.w3.org/2000/svg"><path fill="#333333" d="M640 288H576V128H128v704h384v32a32 32 0 0 0 32 32h-448a32 32 0 0 1-32-32v-768a32 32 0 0 1 32-32h512a32 32 0 0 1 32 32v192z"  /><path fill="#333333" d="M128 320v512h768V320H128z m-32-64h832a32 32 0 0 1 32 32v576a32 32 0 0 1-32 32h-832a32 32 0 0 1-32-32v-576a32 32 0 0 1 32-32z"  /><path fill="#333333" d="M704 640a64 64 0 1 1 0-128 64 64 0 0 1 0 128z"  /></svg>