<?xml version="1.0" standalone="no"?><!DOCTYPE svg PUBLIC "-//W3C//DTD SVG 1.1//EN" "http://www.w3.org/Graphics/SVG/1.1/DTD/svg11.dtd"><svg class="icon" width="200px" height="200.00px" viewBox="0 0 1024 1024" version="1.1" xmlns="http://www.w3.org/2000/svg"><path fill="#333333" d="M512 64a448 448 0 1 1 0 896A448 448 0 0 1 512 64z m0 192a58.432 58.432 0 0 0-58.24 63.744l23.36 256.384a35.072 35.072 0 0 0 69.76 0l23.296-256.384A58.432 58.432 0 0 0 512 256z m0 512a51.2 51.2 0 1 0 0-102.4 51.2 51.2 0 0 0 0 102.4z" /></svg>