<?xml version="1.0" standalone="no"?><!DOCTYPE svg PUBLIC "-//W3C//DTD SVG 1.1//EN" "http://www.w3.org/Graphics/SVG/1.1/DTD/svg11.dtd"><svg class="icon" width="200px" height="200.00px" viewBox="0 0 1024 1024" version="1.1" xmlns="http://www.w3.org/2000/svg"><path fill="#333333" d="M512 768a256 256 0 1 0 0-512 256 256 0 0 0 0 512z m0 64A320 320 0 1 1 512 192a320 320 0 0 1 0 640z"  /><path fill="#333333" d="M480 352A32 32 0 0 1 512 384v160a32 32 0 0 1-64 0V384a32 32 0 0 1 32-32z"  /><path fill="#333333" d="M448 512m32 0l128 0q32 0 32 32l0 0q0 32-32 32l-128 0q-32 0-32-32l0 0q0-32 32-32Z"  /><path fill="#333333" d="M608 256V128h-192v128h-64V64h320v192h-64zM416 768v128h192v-128h64v192h-320v-192h64z"  /></svg>