<?xml version="1.0" standalone="no"?><!DOCTYPE svg PUBLIC "-//W3C//DTD SVG 1.1//EN" "http://www.w3.org/Graphics/SVG/1.1/DTD/svg11.dtd"><svg class="icon" width="200px" height="200.00px" viewBox="0 0 1024 1024" version="1.1" xmlns="http://www.w3.org/2000/svg"><path fill="#333333" d="M512 768a256 256 0 1 0 0-512 256 256 0 0 0 0 512z m0 64A320 320 0 1 1 512 192a320 320 0 0 1 0 640z"  /><path fill="#333333" d="M608 256V128h-192v128h-64V64h320v192h-64zM416 768v128h192v-128h64v192h-320v-192h64z"  /><path fill="#333333" d="M512 384a32 32 0 1 1 0-64 32 32 0 0 1 0 64z m0 320a32 32 0 1 1 0-64 32 32 0 0 1 0 64zM384 512a32 32 0 1 1-64 0 32 32 0 0 1 64 0z m320 0a32 32 0 1 1-64 0 32 32 0 0 1 64 0zM421.504 421.504a32 32 0 1 1-45.248-45.248 32 32 0 0 1 45.248 45.248z m226.24 226.24a32 32 0 1 1-45.248-45.248 32 32 0 0 1 45.248 45.248z m-226.24-45.248a32 32 0 1 1-45.248 45.248 32 32 0 0 1 45.248-45.248zM647.68 376.32a32 32 0 1 1-45.248 45.248 32 32 0 0 1 45.248-45.248z"  /></svg>