<?xml version="1.0" standalone="no"?><!DOCTYPE svg PUBLIC "-//W3C//DTD SVG 1.1//EN" "http://www.w3.org/Graphics/SVG/1.1/DTD/svg11.dtd"><svg class="icon" width="200px" height="200.00px" viewBox="0 0 1024 1024" version="1.1" xmlns="http://www.w3.org/2000/svg"><path fill="#333333" d="M128 64m32 0l0 0q32 0 32 32l0 832q0 32-32 32l0 0q-32 0-32-32l0-832q0-32 32-32Z"  /><path fill="#333333" d="M576 418.624l128-11.584V168.96L576 157.44V418.56z m-64 5.824V151.552l-192-17.472V160H256V64l616.704 56.064A96 96 0 0 1 960 215.68v144.64a96 96 0 0 1-87.296 95.616L256 512V224h64v217.92l192-17.472z m256-23.232l98.88-8.96A32 32 0 0 0 896 360.32V215.68a32 32 0 0 0-29.12-31.872L768 174.848v226.368z"  /></svg>