<svg class="icon" width="200" height="200" viewBox="0 0 1024 1024" xmlns="http://www.w3.org/2000/svg"><path fill="#333" d="M288 896h448q32 0 32 32t-32 32H288q-32 0-32-32t32-32z"/><path fill="#333" d="M800 416a288 288 0 10-576 0c0 118.144 94.528 272.128 288 456.576C705.472 688.128 800 534.144 800 416zM512 960C277.312 746.688 160 565.312 160 416a352 352 0 01704 0c0 149.312-117.312 330.688-352 544z"/><path fill="#333" d="M544 384h96a32 32 0 110 64h-96v96a32 32 0 01-64 0v-96h-96a32 32 0 010-64h96v-96a32 32 0 0164 0v96z"/></svg>